M48
; DRILL file {KiCad 8.0.6} date 2025-01-21T14:15:14+0100
; FORMAT={-:-/ absolute / inch / decimal}
; #@! TF.CreationDate,2025-01-21T14:15:14+01:00
; #@! TF.GenerationSoftware,Kicad,Pcbnew,8.0.6
; #@! TF.FileFunction,Plated,1,4,PTH
FMAT,2
INCH
; #@! TA.AperFunction,Plated,PTH,ViaDrill
T1C0.0118
; #@! TA.AperFunction,Plated,PTH,ComponentDrill
T2C0.0374
; #@! TA.AperFunction,Plated,PTH,ComponentDrill
T3C0.0394
; #@! TA.AperFunction,Plated,PTH,ComponentDrill
T4C0.0598
%
G90
G05
T1
X3.937Y-2.9528
X4.0354Y-2.7953
X4.1299Y-2.7756
X4.1732Y-2.9567
X4.2087Y-2.6339
X4.252Y-2.7559
X4.252Y-2.7953
X4.252Y-2.8346
X4.2717Y-2.5315
X4.2913Y-2.7559
X4.2913Y-2.7953
X4.2913Y-2.8346
X4.311Y-2.5
X4.3307Y-2.7559
X4.3307Y-2.7953
X4.3307Y-2.8346
X4.3895Y-2.4783
X4.3898Y-2.6181
X4.4555Y-2.7969
X4.4685Y-2.7165
X4.4909Y-2.8165
X4.5343Y-2.8402
X4.5472Y-3.0512
X4.5736Y-2.8441
X4.7047Y-2.6181
X4.7835Y-3.0512
X4.8031Y-2.3425
X4.8543Y-2.9528
X4.9213Y-2.7953
X4.9409Y-2.6181
X5.0197Y-2.7756
X5.0669Y-2.9567
X5.1142Y-2.6339
X5.1476Y-2.7559
X5.1476Y-2.7953
X5.1476Y-2.8346
X5.1673Y-2.5394
X5.187Y-2.7559
X5.187Y-2.7953
X5.187Y-2.8346
X5.2047Y-2.4965
X5.2264Y-2.7559
X5.2264Y-2.7953
X5.2264Y-2.8346
X5.2531Y-2.4724
X5.2854Y-2.6181
X5.3484Y-2.7933
X5.3691Y-2.7116
X5.3839Y-2.813
X5.4272Y-2.8366
X5.4528Y-3.0512
X5.4665Y-2.8406
T2
X3.9724Y-3.5394
X4.0709Y-3.5394
X4.1693Y-3.5394
X4.2677Y-3.5394
X4.3661Y-3.5394
X4.4646Y-3.5394
X4.5866Y-3.2283
X4.685Y-3.2283
X4.7835Y-3.2283
X4.8819Y-3.5354
X4.9803Y-3.5354
X5.0787Y-3.5354
X5.1772Y-3.5354
X5.2756Y-3.5354
X5.374Y-3.5354
T3
X3.7402Y-2.1571
X3.7402Y-2.2571
X3.7402Y-2.3571
X3.7402Y-2.4571
X3.7402Y-2.5571
X3.7402Y-2.6571
X3.7402Y-2.7571
X3.7402Y-2.8571
X3.7402Y-3.0571
X3.7402Y-3.1571
X3.7402Y-3.2571
X3.7402Y-3.3571
X3.7402Y-3.4571
X3.7402Y-3.5571
X4.4882Y-2.0512
X4.5866Y-2.0512
X4.8819Y-2.0079
X4.9803Y-2.0079
X5.2362Y-2.0079
X5.3346Y-2.0079
X5.6398Y-1.7949
X5.6398Y-1.8949
X5.6398Y-1.9949
X5.6398Y-2.0949
X5.6398Y-2.1949
X5.6398Y-2.2949
X5.6398Y-2.3949
X5.6398Y-2.4949
X5.6398Y-2.5949
X5.6398Y-2.6949
X5.6417Y-2.8547
X5.6417Y-2.9547
X5.6417Y-3.0547
X5.6417Y-3.1547
X5.6417Y-3.2547
X5.6417Y-3.3547
X5.6417Y-3.4547
X5.6417Y-3.5547
T4
X3.9492Y-2.0492
X4.1492Y-2.0492
M30
