%TF.GenerationSoftware,KiCad,Pcbnew,8.0.6*%
%TF.CreationDate,2025-01-21T14:15:02+01:00*%
%TF.ProjectId,Drivers_PCB,44726976-6572-4735-9f50-43422e6b6963,rev?*%
%TF.SameCoordinates,Original*%
%TF.FileFunction,Soldermask,Bot*%
%TF.FilePolarity,Negative*%
%FSLAX46Y46*%
G04 Gerber Fmt 4.6, Leading zero omitted, Abs format (unit mm)*
G04 Created by KiCad (PCBNEW 8.0.6) date 2025-01-21 14:15:02*
%MOMM*%
%LPD*%
G01*
G04 APERTURE LIST*
G04 Aperture macros list*
%AMRoundRect*
0 Rectangle with rounded corners*
0 $1 Rounding radius*
0 $2 $3 $4 $5 $6 $7 $8 $9 X,Y pos of 4 corners*
0 Add a 4 corners polygon primitive as box body*
4,1,4,$2,$3,$4,$5,$6,$7,$8,$9,$2,$3,0*
0 Add four circle primitives for the rounded corners*
1,1,$1+$1,$2,$3*
1,1,$1+$1,$4,$5*
1,1,$1+$1,$6,$7*
1,1,$1+$1,$8,$9*
0 Add four rect primitives between the rounded corners*
20,1,$1+$1,$2,$3,$4,$5,0*
20,1,$1+$1,$4,$5,$6,$7,0*
20,1,$1+$1,$6,$7,$8,$9,0*
20,1,$1+$1,$8,$9,$2,$3,0*%
G04 Aperture macros list end*
%ADD10R,3.000000X3.000000*%
%ADD11C,3.000000*%
%ADD12RoundRect,0.250000X0.600000X0.725000X-0.600000X0.725000X-0.600000X-0.725000X0.600000X-0.725000X0*%
%ADD13O,1.700000X1.950000*%
%ADD14RoundRect,0.250000X-0.600000X-0.750000X0.600000X-0.750000X0.600000X0.750000X-0.600000X0.750000X0*%
%ADD15O,1.700000X2.000000*%
%ADD16RoundRect,0.250000X-0.600000X-0.725000X0.600000X-0.725000X0.600000X0.725000X-0.600000X0.725000X0*%
%ADD17RoundRect,0.250000X0.600000X0.750000X-0.600000X0.750000X-0.600000X-0.750000X0.600000X-0.750000X0*%
%ADD18R,1.700000X1.700000*%
%ADD19O,1.700000X1.700000*%
G04 APERTURE END LIST*
D10*
%TO.C,J1*%
X105390000Y-52050000D03*
D11*
X100310000Y-52050000D03*
%TD*%
D12*
%TO.C,J5*%
X136500000Y-89800000D03*
D13*
X134000000Y-89800000D03*
X131500000Y-89800000D03*
X129000000Y-89800000D03*
X126500000Y-89800000D03*
X124000000Y-89800000D03*
%TD*%
D14*
%TO.C,J6*%
X133000000Y-51000000D03*
D15*
X135500000Y-51000000D03*
%TD*%
D12*
%TO.C,J3*%
X113400000Y-89900000D03*
D13*
X110900000Y-89900000D03*
X108400000Y-89900000D03*
X105900000Y-89900000D03*
X103400000Y-89900000D03*
X100900000Y-89900000D03*
%TD*%
D16*
%TO.C,J4*%
X116500000Y-82000000D03*
D13*
X119000000Y-82000000D03*
X121500000Y-82000000D03*
%TD*%
D17*
%TO.C,J11*%
X116500000Y-52100000D03*
D15*
X114000000Y-52100000D03*
%TD*%
D14*
%TO.C,J2*%
X124000000Y-51000000D03*
D15*
X126500000Y-51000000D03*
%TD*%
D18*
%TO.C,J8*%
X95000000Y-77650000D03*
D19*
X95000000Y-80190000D03*
X95000000Y-82730000D03*
X95000000Y-85270000D03*
X95000000Y-87810000D03*
X95000000Y-90350000D03*
%TD*%
D18*
%TO.C,J7*%
X95000000Y-54790000D03*
D19*
X95000000Y-57330000D03*
X95000000Y-59870000D03*
X95000000Y-62410000D03*
X95000000Y-64950000D03*
X95000000Y-67490000D03*
X95000000Y-70030000D03*
X95000000Y-72570000D03*
%TD*%
D18*
%TO.C,J9*%
X143250000Y-68450000D03*
D19*
X143250000Y-65910000D03*
X143250000Y-63370000D03*
X143250000Y-60830000D03*
X143250000Y-58290000D03*
X143250000Y-55750000D03*
X143250000Y-53210000D03*
X143250000Y-50670000D03*
X143250000Y-48130000D03*
X143250000Y-45590000D03*
%TD*%
D18*
%TO.C,J10*%
X143300000Y-90290000D03*
D19*
X143300000Y-87750000D03*
X143300000Y-85210000D03*
X143300000Y-82670000D03*
X143300000Y-80130000D03*
X143300000Y-77590000D03*
X143300000Y-75050000D03*
X143300000Y-72510000D03*
%TD*%
M02*
