%TF.GenerationSoftware,KiCad,Pcbnew,8.0.6*%
%TF.CreationDate,2025-01-21T14:15:01+01:00*%
%TF.ProjectId,Drivers_PCB,44726976-6572-4735-9f50-43422e6b6963,rev?*%
%TF.SameCoordinates,Original*%
%TF.FileFunction,Soldermask,Top*%
%TF.FilePolarity,Negative*%
%FSLAX46Y46*%
G04 Gerber Fmt 4.6, Leading zero omitted, Abs format (unit mm)*
G04 Created by KiCad (PCBNEW 8.0.6) date 2025-01-21 14:15:01*
%MOMM*%
%LPD*%
G01*
G04 APERTURE LIST*
G04 Aperture macros list*
%AMRoundRect*
0 Rectangle with rounded corners*
0 $1 Rounding radius*
0 $2 $3 $4 $5 $6 $7 $8 $9 X,Y pos of 4 corners*
0 Add a 4 corners polygon primitive as box body*
4,1,4,$2,$3,$4,$5,$6,$7,$8,$9,$2,$3,0*
0 Add four circle primitives for the rounded corners*
1,1,$1+$1,$2,$3*
1,1,$1+$1,$4,$5*
1,1,$1+$1,$6,$7*
1,1,$1+$1,$8,$9*
0 Add four rect primitives between the rounded corners*
20,1,$1+$1,$2,$3,$4,$5,0*
20,1,$1+$1,$4,$5,$6,$7,0*
20,1,$1+$1,$6,$7,$8,$9,0*
20,1,$1+$1,$8,$9,$2,$3,0*%
G04 Aperture macros list end*
%ADD10RoundRect,0.250000X0.337500X0.475000X-0.337500X0.475000X-0.337500X-0.475000X0.337500X-0.475000X0*%
%ADD11R,3.000000X3.000000*%
%ADD12C,3.000000*%
%ADD13RoundRect,0.250000X0.600000X0.725000X-0.600000X0.725000X-0.600000X-0.725000X0.600000X-0.725000X0*%
%ADD14O,1.700000X1.950000*%
%ADD15RoundRect,0.250000X0.350000X0.450000X-0.350000X0.450000X-0.350000X-0.450000X0.350000X-0.450000X0*%
%ADD16RoundRect,0.250000X-0.600000X-0.750000X0.600000X-0.750000X0.600000X0.750000X-0.600000X0.750000X0*%
%ADD17O,1.700000X2.000000*%
%ADD18RoundRect,0.250000X-0.350000X-0.450000X0.350000X-0.450000X0.350000X0.450000X-0.350000X0.450000X0*%
%ADD19R,0.300000X1.150000*%
%ADD20R,1.150000X0.300000*%
%ADD21R,3.150000X3.150000*%
%ADD22RoundRect,0.250000X0.475000X-0.337500X0.475000X0.337500X-0.475000X0.337500X-0.475000X-0.337500X0*%
%ADD23RoundRect,0.400000X-1.350000X-0.400000X1.350000X-0.400000X1.350000X0.400000X-1.350000X0.400000X0*%
%ADD24RoundRect,0.250000X-0.600000X-0.725000X0.600000X-0.725000X0.600000X0.725000X-0.600000X0.725000X0*%
%ADD25RoundRect,0.250000X0.600000X0.750000X-0.600000X0.750000X-0.600000X-0.750000X0.600000X-0.750000X0*%
%ADD26R,1.700000X1.700000*%
%ADD27O,1.700000X1.700000*%
G04 APERTURE END LIST*
D10*
%TO.C,C6*%
X115037500Y-65500000D03*
X112962500Y-65500000D03*
%TD*%
D11*
%TO.C,J1*%
X105390000Y-52050000D03*
D12*
X100310000Y-52050000D03*
%TD*%
D13*
%TO.C,J5*%
X136500000Y-89800000D03*
D14*
X134000000Y-89800000D03*
X131500000Y-89800000D03*
X129000000Y-89800000D03*
X126500000Y-89800000D03*
X124000000Y-89800000D03*
%TD*%
D15*
%TO.C,R8*%
X125250000Y-73000000D03*
X123250000Y-73000000D03*
%TD*%
D10*
%TO.C,C2*%
X117037500Y-73750000D03*
X114962500Y-73750000D03*
%TD*%
D15*
%TO.C,R6*%
X140250000Y-69500000D03*
X138250000Y-69500000D03*
%TD*%
D16*
%TO.C,J6*%
X133000000Y-51000000D03*
D17*
X135500000Y-51000000D03*
%TD*%
D18*
%TO.C,R1*%
X113000000Y-67500000D03*
X115000000Y-67500000D03*
%TD*%
D13*
%TO.C,J3*%
X113400000Y-89900000D03*
D14*
X110900000Y-89900000D03*
X108400000Y-89900000D03*
X105900000Y-89900000D03*
X103400000Y-89900000D03*
X100900000Y-89900000D03*
%TD*%
D15*
%TO.C,R3*%
X103500000Y-68000000D03*
X101500000Y-68000000D03*
%TD*%
%TO.C,R2*%
X117000000Y-69500000D03*
X115000000Y-69500000D03*
%TD*%
D10*
%TO.C,C7*%
X140287500Y-73750000D03*
X138212500Y-73750000D03*
%TD*%
D19*
%TO.C,U1*%
X107500000Y-73500000D03*
X108000000Y-73500000D03*
X108500000Y-73500000D03*
X109000000Y-73500000D03*
X109500000Y-73500000D03*
X110000000Y-73500000D03*
X110500000Y-73500000D03*
D20*
X111500000Y-72500000D03*
X111500000Y-72000000D03*
X111500000Y-71500000D03*
X111500000Y-71000000D03*
X111500000Y-70500000D03*
X111500000Y-70000000D03*
X111500000Y-69500000D03*
D19*
X110500000Y-68500000D03*
X110000000Y-68500000D03*
X109500000Y-68500000D03*
X109000000Y-68500000D03*
X108500000Y-68500000D03*
X108000000Y-68500000D03*
X107500000Y-68500000D03*
D20*
X106500000Y-69500000D03*
X106500000Y-70000000D03*
X106500000Y-70500000D03*
X106500000Y-71000000D03*
X106500000Y-71500000D03*
X106500000Y-72000000D03*
X106500000Y-72500000D03*
D21*
X109000000Y-71000000D03*
%TD*%
D22*
%TO.C,C8*%
X132000000Y-78537500D03*
X132000000Y-76462500D03*
%TD*%
D15*
%TO.C,R7*%
X126250000Y-68000000D03*
X124250000Y-68000000D03*
%TD*%
D23*
%TO.C,C5*%
X128200000Y-61550000D03*
X133800000Y-61550000D03*
%TD*%
D18*
%TO.C,R5*%
X135750000Y-67500000D03*
X137750000Y-67500000D03*
%TD*%
D24*
%TO.C,J4*%
X116500000Y-82000000D03*
D14*
X119000000Y-82000000D03*
X121500000Y-82000000D03*
%TD*%
D19*
%TO.C,U2*%
X130250000Y-73500000D03*
X130750000Y-73500000D03*
X131250000Y-73500000D03*
X131750000Y-73500000D03*
X132250000Y-73500000D03*
X132750000Y-73500000D03*
X133250000Y-73500000D03*
D20*
X134250000Y-72500000D03*
X134250000Y-72000000D03*
X134250000Y-71500000D03*
X134250000Y-71000000D03*
X134250000Y-70500000D03*
X134250000Y-70000000D03*
X134250000Y-69500000D03*
D19*
X133250000Y-68500000D03*
X132750000Y-68500000D03*
X132250000Y-68500000D03*
X131750000Y-68500000D03*
X131250000Y-68500000D03*
X130750000Y-68500000D03*
X130250000Y-68500000D03*
D20*
X129250000Y-69500000D03*
X129250000Y-70000000D03*
X129250000Y-70500000D03*
X129250000Y-71000000D03*
X129250000Y-71500000D03*
X129250000Y-72000000D03*
X129250000Y-72500000D03*
D21*
X131750000Y-71000000D03*
%TD*%
D23*
%TO.C,C10*%
X105450000Y-61550000D03*
X111050000Y-61550000D03*
%TD*%
D22*
%TO.C,C3*%
X109000000Y-78537500D03*
X109000000Y-76462500D03*
%TD*%
%TO.C,C4*%
X112000000Y-78537500D03*
X112000000Y-76462500D03*
%TD*%
D25*
%TO.C,J11*%
X116500000Y-52100000D03*
D17*
X114000000Y-52100000D03*
%TD*%
D16*
%TO.C,J2*%
X124000000Y-51000000D03*
D17*
X126500000Y-51000000D03*
%TD*%
D10*
%TO.C,C1*%
X137787500Y-65500000D03*
X135712500Y-65500000D03*
%TD*%
D22*
%TO.C,C9*%
X135000000Y-78537500D03*
X135000000Y-76462500D03*
%TD*%
D15*
%TO.C,R4*%
X102000000Y-73000000D03*
X100000000Y-73000000D03*
%TD*%
D26*
%TO.C,J8*%
X95000000Y-77650000D03*
D27*
X95000000Y-80190000D03*
X95000000Y-82730000D03*
X95000000Y-85270000D03*
X95000000Y-87810000D03*
X95000000Y-90350000D03*
%TD*%
D26*
%TO.C,J7*%
X95000000Y-54790000D03*
D27*
X95000000Y-57330000D03*
X95000000Y-59870000D03*
X95000000Y-62410000D03*
X95000000Y-64950000D03*
X95000000Y-67490000D03*
X95000000Y-70030000D03*
X95000000Y-72570000D03*
%TD*%
D26*
%TO.C,J9*%
X143250000Y-68450000D03*
D27*
X143250000Y-65910000D03*
X143250000Y-63370000D03*
X143250000Y-60830000D03*
X143250000Y-58290000D03*
X143250000Y-55750000D03*
X143250000Y-53210000D03*
X143250000Y-50670000D03*
X143250000Y-48130000D03*
X143250000Y-45590000D03*
%TD*%
D26*
%TO.C,J10*%
X143300000Y-90290000D03*
D27*
X143300000Y-87750000D03*
X143300000Y-85210000D03*
X143300000Y-82670000D03*
X143300000Y-80130000D03*
X143300000Y-77590000D03*
X143300000Y-75050000D03*
X143300000Y-72510000D03*
%TD*%
M02*
