%TF.GenerationSoftware,KiCad,Pcbnew,8.0.6*%
%TF.CreationDate,2025-01-28T15:40:01+01:00*%
%TF.ProjectId,Drivers_PCB,44726976-6572-4735-9f50-43422e6b6963,rev?*%
%TF.SameCoordinates,Original*%
%TF.FileFunction,Copper,L2,Inr*%
%TF.FilePolarity,Positive*%
%FSLAX46Y46*%
G04 Gerber Fmt 4.6, Leading zero omitted, Abs format (unit mm)*
G04 Created by KiCad (PCBNEW 8.0.6) date 2025-01-28 15:40:01*
%MOMM*%
%LPD*%
G01*
G04 APERTURE LIST*
G04 Aperture macros list*
%AMRoundRect*
0 Rectangle with rounded corners*
0 $1 Rounding radius*
0 $2 $3 $4 $5 $6 $7 $8 $9 X,Y pos of 4 corners*
0 Add a 4 corners polygon primitive as box body*
4,1,4,$2,$3,$4,$5,$6,$7,$8,$9,$2,$3,0*
0 Add four circle primitives for the rounded corners*
1,1,$1+$1,$2,$3*
1,1,$1+$1,$4,$5*
1,1,$1+$1,$6,$7*
1,1,$1+$1,$8,$9*
0 Add four rect primitives between the rounded corners*
20,1,$1+$1,$2,$3,$4,$5,0*
20,1,$1+$1,$4,$5,$6,$7,0*
20,1,$1+$1,$6,$7,$8,$9,0*
20,1,$1+$1,$8,$9,$2,$3,0*%
G04 Aperture macros list end*
%TA.AperFunction,ComponentPad*%
%ADD10R,3.000000X3.000000*%
%TD*%
%TA.AperFunction,ComponentPad*%
%ADD11C,3.000000*%
%TD*%
%TA.AperFunction,ComponentPad*%
%ADD12RoundRect,0.250000X0.600000X0.725000X-0.600000X0.725000X-0.600000X-0.725000X0.600000X-0.725000X0*%
%TD*%
%TA.AperFunction,ComponentPad*%
%ADD13O,1.700000X1.950000*%
%TD*%
%TA.AperFunction,ComponentPad*%
%ADD14RoundRect,0.250000X-0.600000X-0.750000X0.600000X-0.750000X0.600000X0.750000X-0.600000X0.750000X0*%
%TD*%
%TA.AperFunction,ComponentPad*%
%ADD15O,1.700000X2.000000*%
%TD*%
%TA.AperFunction,ComponentPad*%
%ADD16RoundRect,0.250000X-0.600000X-0.725000X0.600000X-0.725000X0.600000X0.725000X-0.600000X0.725000X0*%
%TD*%
%TA.AperFunction,ComponentPad*%
%ADD17RoundRect,0.250000X0.600000X0.750000X-0.600000X0.750000X-0.600000X-0.750000X0.600000X-0.750000X0*%
%TD*%
%TA.AperFunction,ComponentPad*%
%ADD18R,1.700000X1.700000*%
%TD*%
%TA.AperFunction,ComponentPad*%
%ADD19O,1.700000X1.700000*%
%TD*%
%TA.AperFunction,ViaPad*%
%ADD20C,0.600000*%
%TD*%
%TA.AperFunction,ViaPad*%
%ADD21C,0.800000*%
%TD*%
%TA.AperFunction,Conductor*%
%ADD22C,0.200000*%
%TD*%
G04 APERTURE END LIST*
D10*
%TO.N,Net-(J1-Pin_1)*%
%TO.C,J1*%
X105390000Y-52050000D03*
D11*
%TO.N,GND*%
X100310000Y-52050000D03*
%TD*%
D12*
%TO.N,unconnected-(J5-Pin_1-Pad1)*%
%TO.C,J5*%
X136500000Y-89800000D03*
D13*
%TO.N,GREEN2*%
X134000000Y-89800000D03*
%TO.N,BLACK2*%
X131500000Y-89800000D03*
%TO.N,BLUE2*%
X129000000Y-89800000D03*
%TO.N,RED2*%
X126500000Y-89800000D03*
%TO.N,unconnected-(J5-Pin_6-Pad6)*%
X124000000Y-89800000D03*
%TD*%
D14*
%TO.N,IR_LED*%
%TO.C,J6*%
X133000000Y-51000000D03*
D15*
%TO.N,GND*%
X135500000Y-51000000D03*
%TD*%
D12*
%TO.N,unconnected-(J3-Pin_1-Pad1)*%
%TO.C,J3*%
X113400000Y-89900000D03*
D13*
%TO.N,GREEN1*%
X110900000Y-89900000D03*
%TO.N,BLACK1*%
X108400000Y-89900000D03*
%TO.N,BLUE1*%
X105900000Y-89900000D03*
%TO.N,RED1*%
X103400000Y-89900000D03*
%TO.N,unconnected-(J3-Pin_6-Pad6)*%
X100900000Y-89900000D03*
%TD*%
D16*
%TO.N,EOC_SWITCH*%
%TO.C,J4*%
X116500000Y-82000000D03*
D13*
%TO.N,GND*%
X119000000Y-82000000D03*
%TO.N,VDD*%
X121500000Y-82000000D03*
%TD*%
D17*
%TO.N,VBB*%
%TO.C,J11*%
X116500000Y-52100000D03*
D15*
%TO.N,Net-(J1-Pin_1)*%
X114000000Y-52100000D03*
%TD*%
D14*
%TO.N,VBB*%
%TO.C,J2*%
X124000000Y-51000000D03*
D15*
%TO.N,GND*%
X126500000Y-51000000D03*
%TD*%
D18*
%TO.N,EN1*%
%TO.C,J8*%
X95000000Y-77650000D03*
D19*
%TO.N,EN2*%
X95000000Y-80190000D03*
%TO.N,EOC_SWITCH*%
X95000000Y-82730000D03*
%TO.N,unconnected-(J8-Pin_4-Pad4)*%
X95000000Y-85270000D03*
%TO.N,unconnected-(J8-Pin_5-Pad5)*%
X95000000Y-87810000D03*
%TO.N,unconnected-(J8-Pin_6-Pad6)*%
X95000000Y-90350000D03*
%TD*%
D18*
%TO.N,unconnected-(J7-Pin_1-Pad1)*%
%TO.C,J7*%
X95000000Y-54790000D03*
D19*
%TO.N,unconnected-(J7-Pin_2-Pad2)*%
X95000000Y-57330000D03*
%TO.N,unconnected-(J7-Pin_3-Pad3)*%
X95000000Y-59870000D03*
%TO.N,VREF*%
X95000000Y-62410000D03*
%TO.N,VDD*%
X95000000Y-64950000D03*
%TO.N,GND*%
X95000000Y-67490000D03*
X95000000Y-70030000D03*
%TO.N,unconnected-(J7-Pin_8-Pad8)*%
X95000000Y-72570000D03*
%TD*%
D18*
%TO.N,MS1*%
%TO.C,J9*%
X143250000Y-68450000D03*
D19*
%TO.N,MS2*%
X143250000Y-65910000D03*
%TO.N,MS3*%
X143250000Y-63370000D03*
%TO.N,STEP1*%
X143250000Y-60830000D03*
%TO.N,IR_LED*%
X143250000Y-58290000D03*
%TO.N,STEP2*%
X143250000Y-55750000D03*
%TO.N,GND*%
X143250000Y-53210000D03*
%TO.N,unconnected-(J9-Pin_8-Pad8)*%
X143250000Y-50670000D03*
%TO.N,unconnected-(J9-Pin_9-Pad9)*%
X143250000Y-48130000D03*
%TO.N,unconnected-(J9-Pin_10-Pad10)*%
X143250000Y-45590000D03*
%TD*%
D18*
%TO.N,unconnected-(J10-Pin_1-Pad1)*%
%TO.C,J10*%
X143300000Y-90290000D03*
D19*
%TO.N,unconnected-(J10-Pin_2-Pad2)*%
X143300000Y-87750000D03*
%TO.N,SLEEP1*%
X143300000Y-85210000D03*
%TO.N,SLEEP2*%
X143300000Y-82670000D03*
%TO.N,RESET1*%
X143300000Y-80130000D03*
%TO.N,RESET2*%
X143300000Y-77590000D03*
%TO.N,DIR1*%
X143300000Y-75050000D03*
%TO.N,DIR2*%
X143300000Y-72510000D03*
%TD*%
D20*
%TO.N,GND*%
X131750000Y-72000000D03*
X110000000Y-70000000D03*
X108000000Y-71000000D03*
X109000000Y-71000000D03*
X110000000Y-72000000D03*
X130750000Y-71000000D03*
X119500000Y-66500000D03*
X108000000Y-70000000D03*
X132750000Y-71000000D03*
X132750000Y-72000000D03*
X110000000Y-71000000D03*
X109000000Y-72000000D03*
X131750000Y-70000000D03*
X130750000Y-72000000D03*
X109000000Y-70000000D03*
X125500000Y-66500000D03*
X131750000Y-71000000D03*
X108000000Y-72000000D03*
X130750000Y-70000000D03*
X132750000Y-70000000D03*
D21*
%TO.N,VBB*%
X115500000Y-77500000D03*
X123300000Y-75000000D03*
X122000000Y-59500000D03*
X138500000Y-77500000D03*
X100000000Y-75000000D03*
%TO.N,VDD*%
X111500000Y-66500000D03*
X134250000Y-66500000D03*
%TO.N,BLUE1*%
X106000000Y-75100000D03*
%TO.N,GREEN1*%
X106900000Y-66900000D03*
%TO.N,RED1*%
X102500000Y-71000000D03*
%TO.N,BLACK1*%
X104900000Y-70500000D03*
%TO.N,RED2*%
X125000000Y-71000000D03*
D20*
%TO.N,SLEEP1*%
X113500000Y-69000000D03*
D21*
%TO.N,BLACK2*%
X127500000Y-70500000D03*
%TO.N,BLUE2*%
X128700000Y-75100000D03*
%TO.N,GREEN2*%
X129900000Y-66900000D03*
D20*
%TO.N,RESET1*%
X116170000Y-72240000D03*
%TO.N,DIR1*%
X108500000Y-64300000D03*
%TO.N,STEP1*%
X111493760Y-62950000D03*
%TO.N,MS3*%
X135850000Y-70950000D03*
X113170000Y-71040000D03*
%TO.N,MS1*%
X115170000Y-72140000D03*
X137850000Y-72050000D03*
%TO.N,MS2*%
X136750000Y-71450000D03*
X114070000Y-71540000D03*
%TO.N,STEP2*%
X133430000Y-62800000D03*
%TO.N,EN2*%
X121500000Y-77500000D03*
%TO.N,RESET2*%
X138850000Y-72150000D03*
%TO.N,DIR2*%
X131250000Y-64500000D03*
%TO.N,SLEEP2*%
X136375000Y-68875000D03*
%TO.N,VREF*%
X109500000Y-63500000D03*
X132200000Y-63410000D03*
%TD*%
D22*
%TO.N,DIR1*%
X108700000Y-64500000D02*
X111739950Y-64500000D01*
X134284365Y-65050000D02*
X143300000Y-74065635D01*
X111739950Y-64500000D02*
X112289950Y-65050000D01*
X112289950Y-65050000D02*
X134284365Y-65050000D01*
X108500000Y-64300000D02*
X108700000Y-64500000D01*
X143300000Y-74065635D02*
X143300000Y-75050000D01*
%TO.N,STEP2*%
X133430000Y-62800000D02*
X136200000Y-62800000D01*
X136200000Y-62800000D02*
X143250000Y-55750000D01*
%TO.N,DIR2*%
X134550000Y-64550000D02*
X142510000Y-72510000D01*
X142510000Y-72510000D02*
X143300000Y-72510000D01*
X131300000Y-64550000D02*
X134550000Y-64550000D01*
X131250000Y-64500000D02*
X131300000Y-64550000D01*
%TO.N,SLEEP2*%
X142000000Y-81370000D02*
X143300000Y-82670000D01*
X136375000Y-68875000D02*
X142000000Y-74500000D01*
X142000000Y-74500000D02*
X142000000Y-81370000D01*
%TD*%
%TA.AperFunction,Conductor*%
%TO.N,VDD*%
G36*
X145006922Y-43501280D02*
G01*
X145097266Y-43511459D01*
X145124331Y-43517636D01*
X145203540Y-43545352D01*
X145228553Y-43557398D01*
X145299606Y-43602043D01*
X145321313Y-43619355D01*
X145380644Y-43678686D01*
X145397957Y-43700395D01*
X145442600Y-43771444D01*
X145454648Y-43796462D01*
X145482362Y-43875666D01*
X145488540Y-43902735D01*
X145498720Y-43993076D01*
X145499500Y-44006961D01*
X145499500Y-92993038D01*
X145498720Y-93006923D01*
X145488540Y-93097264D01*
X145482362Y-93124333D01*
X145454648Y-93203537D01*
X145442600Y-93228555D01*
X145397957Y-93299604D01*
X145380644Y-93321313D01*
X145321313Y-93380644D01*
X145299604Y-93397957D01*
X145228555Y-93442600D01*
X145203537Y-93454648D01*
X145124333Y-93482362D01*
X145097264Y-93488540D01*
X145017075Y-93497576D01*
X145006921Y-93498720D01*
X144993038Y-93499500D01*
X93006962Y-93499500D01*
X92993078Y-93498720D01*
X92980553Y-93497308D01*
X92902735Y-93488540D01*
X92875666Y-93482362D01*
X92796462Y-93454648D01*
X92771444Y-93442600D01*
X92700395Y-93397957D01*
X92678686Y-93380644D01*
X92619355Y-93321313D01*
X92602042Y-93299604D01*
X92557399Y-93228555D01*
X92545351Y-93203537D01*
X92517637Y-93124333D01*
X92511459Y-93097263D01*
X92501280Y-93006922D01*
X92500500Y-92993038D01*
X92500500Y-90350000D01*
X93944417Y-90350000D01*
X93964699Y-90555932D01*
X93976446Y-90594655D01*
X94024768Y-90753954D01*
X94122315Y-90936450D01*
X94154362Y-90975500D01*
X94253589Y-91096410D01*
X94314908Y-91146732D01*
X94413550Y-91227685D01*
X94596046Y-91325232D01*
X94794066Y-91385300D01*
X94794065Y-91385300D01*
X94812529Y-91387118D01*
X95000000Y-91405583D01*
X95205934Y-91385300D01*
X95403954Y-91325232D01*
X95586450Y-91227685D01*
X95746410Y-91096410D01*
X95877685Y-90936450D01*
X95975232Y-90753954D01*
X96035300Y-90555934D01*
X96055583Y-90350000D01*
X96035300Y-90144066D01*
X95975232Y-89946046D01*
X95877685Y-89763550D01*
X95802167Y-89671530D01*
X99849500Y-89671530D01*
X99849500Y-90128469D01*
X99889868Y-90331412D01*
X99889870Y-90331420D01*
X99969058Y-90522596D01*
X100084024Y-90694657D01*
X100230342Y-90840975D01*
X100230345Y-90840977D01*
X100402402Y-90955941D01*
X100593580Y-91035130D01*
X100782187Y-91072646D01*
X100796530Y-91075499D01*
X100796534Y-91075500D01*
X100796535Y-91075500D01*
X101003466Y-91075500D01*
X101003467Y-91075499D01*
X101206420Y-91035130D01*
X101397598Y-90955941D01*
X101569655Y-90840977D01*
X101715977Y-90694655D01*
X101830941Y-90522598D01*
X101910130Y-90331420D01*
X101950500Y-90128465D01*
X101950500Y-89671535D01*
X101910130Y-89468580D01*
X101830941Y-89277402D01*
X101715977Y-89105345D01*
X101715975Y-89105342D01*
X101569657Y-88959024D01*
X101429811Y-88865583D01*
X101397598Y-88844059D01*
X101206420Y-88764870D01*
X101206412Y-88764868D01*
X101003469Y-88724500D01*
X101003465Y-88724500D01*
X100796535Y-88724500D01*
X100796530Y-88724500D01*
X100593587Y-88764868D01*
X100593579Y-88764870D01*
X100402403Y-88844058D01*
X100230342Y-88959024D01*
X100084024Y-89105342D01*
X99969058Y-89277403D01*
X99889870Y-89468579D01*
X99889868Y-89468587D01*
X99849500Y-89671530D01*
X95802167Y-89671530D01*
X95786144Y-89652006D01*
X95746410Y-89603589D01*
X95586452Y-89472317D01*
X95586453Y-89472317D01*
X95586450Y-89472315D01*
X95403954Y-89374768D01*
X95205934Y-89314700D01*
X95205932Y-89314699D01*
X95205934Y-89314699D01*
X95000000Y-89294417D01*
X94794067Y-89314699D01*
X94596043Y-89374769D01*
X94510958Y-89420249D01*
X94413550Y-89472315D01*
X94413548Y-89472316D01*
X94413547Y-89472317D01*
X94253589Y-89603589D01*
X94122317Y-89763547D01*
X94024769Y-89946043D01*
X93964699Y-90144067D01*
X93944417Y-90350000D01*
X92500500Y-90350000D01*
X92500500Y-87810000D01*
X93944417Y-87810000D01*
X93964699Y-88015932D01*
X93964700Y-88015934D01*
X94024768Y-88213954D01*
X94122315Y-88396450D01*
X94122317Y-88396452D01*
X94253589Y-88556410D01*
X94336558Y-88624500D01*
X94413550Y-88687685D01*
X94596046Y-88785232D01*
X94794066Y-88845300D01*
X94794065Y-88845300D01*
X94812529Y-88847118D01*
X95000000Y-88865583D01*
X95205934Y-88845300D01*
X95403954Y-88785232D01*
X95586450Y-88687685D01*
X95746410Y-88556410D01*
X95877685Y-88396450D01*
X95975232Y-88213954D01*
X96035300Y-88015934D01*
X96055583Y-87810000D01*
X96035300Y-87604066D01*
X95975232Y-87406046D01*
X95877685Y-87223550D01*
X95825702Y-87160209D01*
X95746410Y-87063589D01*
X95586452Y-86932317D01*
X95586453Y-86932317D01*
X95586450Y-86932315D01*
X95403954Y-86834768D01*
X95205934Y-86774700D01*
X95205932Y-86774699D01*
X95205934Y-86774699D01*
X95000000Y-86754417D01*
X94794067Y-86774699D01*
X94596043Y-86834769D01*
X94525801Y-86872315D01*
X94413550Y-86932315D01*
X94413548Y-86932316D01*
X94413547Y-86932317D01*
X94253589Y-87063589D01*
X94122317Y-87223547D01*
X94024769Y-87406043D01*
X93964699Y-87604067D01*
X93944417Y-87810000D01*
X92500500Y-87810000D01*
X92500500Y-85270000D01*
X93944417Y-85270000D01*
X93964699Y-85475932D01*
X93964700Y-85475934D01*
X94024768Y-85673954D01*
X94122315Y-85856450D01*
X94122317Y-85856452D01*
X94253589Y-86016410D01*
X94340436Y-86087682D01*
X94413550Y-86147685D01*
X94596046Y-86245232D01*
X94794066Y-86305300D01*
X94794065Y-86305300D01*
X94812529Y-86307118D01*
X95000000Y-86325583D01*
X95205934Y-86305300D01*
X95403954Y-86245232D01*
X95586450Y-86147685D01*
X95746410Y-86016410D01*
X95877685Y-85856450D01*
X95975232Y-85673954D01*
X96035300Y-85475934D01*
X96055583Y-85270000D01*
X96035300Y-85064066D01*
X95975232Y-84866046D01*
X95877685Y-84683550D01*
X95825702Y-84620209D01*
X95746410Y-84523589D01*
X95586452Y-84392317D01*
X95586453Y-84392317D01*
X95586450Y-84392315D01*
X95403954Y-84294768D01*
X95205934Y-84234700D01*
X95205932Y-84234699D01*
X95205934Y-84234699D01*
X95000000Y-84214417D01*
X94794067Y-84234699D01*
X94596043Y-84294769D01*
X94525801Y-84332315D01*
X94413550Y-84392315D01*
X94413548Y-84392316D01*
X94413547Y-84392317D01*
X94253589Y-84523589D01*
X94122317Y-84683547D01*
X94024769Y-84866043D01*
X93964699Y-85064067D01*
X93944417Y-85270000D01*
X92500500Y-85270000D01*
X92500500Y-82730000D01*
X93944417Y-82730000D01*
X93964699Y-82935932D01*
X93994734Y-83034944D01*
X94024768Y-83133954D01*
X94122315Y-83316450D01*
X94122317Y-83316452D01*
X94253589Y-83476410D01*
X94340436Y-83547682D01*
X94413550Y-83607685D01*
X94596046Y-83705232D01*
X94794066Y-83765300D01*
X94794065Y-83765300D01*
X94812529Y-83767118D01*
X95000000Y-83785583D01*
X95205934Y-83765300D01*
X95403954Y-83705232D01*
X95586450Y-83607685D01*
X95746410Y-83476410D01*
X95877685Y-83316450D01*
X95975232Y-83133954D01*
X96035300Y-82935934D01*
X96055583Y-82730000D01*
X96035300Y-82524066D01*
X95975232Y-82326046D01*
X95877685Y-82143550D01*
X95825702Y-82080209D01*
X95746410Y-81983589D01*
X95586452Y-81852317D01*
X95586453Y-81852317D01*
X95586450Y-81852315D01*
X95403954Y-81754768D01*
X95205934Y-81694700D01*
X95205932Y-81694699D01*
X95205934Y-81694699D01*
X95000000Y-81674417D01*
X94794067Y-81694699D01*
X94596043Y-81754769D01*
X94564677Y-81771535D01*
X94413550Y-81852315D01*
X94413548Y-81852316D01*
X94413547Y-81852317D01*
X94253589Y-81983589D01*
X94153400Y-82105672D01*
X94122315Y-82143550D01*
X94083643Y-82215898D01*
X94024769Y-82326043D01*
X93964699Y-82524067D01*
X93944417Y-82730000D01*
X92500500Y-82730000D01*
X92500500Y-80190000D01*
X93944417Y-80190000D01*
X93964699Y-80395932D01*
X93964700Y-80395934D01*
X94024768Y-80593954D01*
X94122315Y-80776450D01*
X94156969Y-80818677D01*
X94253589Y-80936410D01*
X94273622Y-80952850D01*
X94413550Y-81067685D01*
X94596046Y-81165232D01*
X94794066Y-81225300D01*
X94794065Y-81225300D01*
X94812529Y-81227118D01*
X95000000Y-81245583D01*
X95205934Y-81225300D01*
X95403954Y-81165232D01*
X95586450Y-81067685D01*
X95746410Y-80936410D01*
X95877685Y-80776450D01*
X95975232Y-80593954D01*
X96035300Y-80395934D01*
X96055583Y-80190000D01*
X96035300Y-79984066D01*
X95975232Y-79786046D01*
X95877685Y-79603550D01*
X95825702Y-79540209D01*
X95746410Y-79443589D01*
X95586452Y-79312317D01*
X95586453Y-79312317D01*
X95586450Y-79312315D01*
X95403954Y-79214768D01*
X95205934Y-79154700D01*
X95205932Y-79154699D01*
X95205934Y-79154699D01*
X95000000Y-79134417D01*
X94794067Y-79154699D01*
X94596043Y-79214769D01*
X94525801Y-79252315D01*
X94413550Y-79312315D01*
X94413548Y-79312316D01*
X94413547Y-79312317D01*
X94253589Y-79443589D01*
X94122317Y-79603547D01*
X94024769Y-79786043D01*
X93964699Y-79984067D01*
X93944417Y-80190000D01*
X92500500Y-80190000D01*
X92500500Y-76780247D01*
X93949500Y-76780247D01*
X93949500Y-78519752D01*
X93961131Y-78578229D01*
X93961132Y-78578230D01*
X94005447Y-78644552D01*
X94071769Y-78688867D01*
X94071770Y-78688868D01*
X94130247Y-78700499D01*
X94130250Y-78700500D01*
X94130252Y-78700500D01*
X95869750Y-78700500D01*
X95869751Y-78700499D01*
X95884568Y-78697552D01*
X95928229Y-78688868D01*
X95928229Y-78688867D01*
X95928231Y-78688867D01*
X95994552Y-78644552D01*
X96038867Y-78578231D01*
X96038867Y-78578229D01*
X96038868Y-78578229D01*
X96050499Y-78519752D01*
X96050500Y-78519750D01*
X96050500Y-76780249D01*
X96050499Y-76780247D01*
X96038868Y-76721770D01*
X96038867Y-76721769D01*
X95994552Y-76655447D01*
X95928230Y-76611132D01*
X95928229Y-76611131D01*
X95869752Y-76599500D01*
X95869748Y-76599500D01*
X94130252Y-76599500D01*
X94130247Y-76599500D01*
X94071770Y-76611131D01*
X94071769Y-76611132D01*
X94005447Y-76655447D01*
X93961132Y-76721769D01*
X93961131Y-76721770D01*
X93949500Y-76780247D01*
X92500500Y-76780247D01*
X92500500Y-74999998D01*
X99394318Y-74999998D01*
X99394318Y-75000001D01*
X99414955Y-75156760D01*
X99414956Y-75156762D01*
X99475464Y-75302841D01*
X99571718Y-75428282D01*
X99697159Y-75524536D01*
X99843238Y-75585044D01*
X99921619Y-75595363D01*
X99999999Y-75605682D01*
X100000000Y-75605682D01*
X100000001Y-75605682D01*
X100052254Y-75598802D01*
X100156762Y-75585044D01*
X100302841Y-75524536D01*
X100428282Y-75428282D01*
X100524536Y-75302841D01*
X100585044Y-75156762D01*
X100605682Y-75000000D01*
X100585044Y-74843238D01*
X100524536Y-74697159D01*
X100428282Y-74571718D01*
X100302841Y-74475464D01*
X100156762Y-74414956D01*
X100156760Y-74414955D01*
X100000001Y-74394318D01*
X99999999Y-74394318D01*
X99843239Y-74414955D01*
X99843237Y-74414956D01*
X99697160Y-74475463D01*
X99571718Y-74571718D01*
X99475463Y-74697160D01*
X99414956Y-74843237D01*
X99414955Y-74843239D01*
X99394318Y-74999998D01*
X92500500Y-74999998D01*
X92500500Y-72570000D01*
X93944417Y-72570000D01*
X93964699Y-72775932D01*
X93964700Y-72775934D01*
X94024768Y-72973954D01*
X94122315Y-73156450D01*
X94122317Y-73156452D01*
X94253589Y-73316410D01*
X94340414Y-73387664D01*
X94413550Y-73447685D01*
X94596046Y-73545232D01*
X94794066Y-73605300D01*
X94794065Y-73605300D01*
X94812529Y-73607118D01*
X95000000Y-73625583D01*
X95205934Y-73605300D01*
X95403954Y-73545232D01*
X95586450Y-73447685D01*
X95746410Y-73316410D01*
X95877685Y-73156450D01*
X95975232Y-72973954D01*
X96035300Y-72775934D01*
X96055583Y-72570000D01*
X96035300Y-72364066D01*
X95975232Y-72166046D01*
X95877685Y-71983550D01*
X95815308Y-71907543D01*
X95746410Y-71823589D01*
X95625402Y-71724282D01*
X95586450Y-71692315D01*
X95403954Y-71594768D01*
X95205934Y-71534700D01*
X95205932Y-71534699D01*
X95205934Y-71534699D01*
X95000000Y-71514417D01*
X94794067Y-71534699D01*
X94640764Y-71581203D01*
X94603665Y-71592457D01*
X94596043Y-71594769D01*
X94525801Y-71632315D01*
X94413550Y-71692315D01*
X94413548Y-71692316D01*
X94413547Y-71692317D01*
X94253589Y-71823589D01*
X94122317Y-71983547D01*
X94122315Y-71983550D01*
X94101027Y-72023377D01*
X94024769Y-72166043D01*
X94024768Y-72166045D01*
X94024768Y-72166046D01*
X94017898Y-72188692D01*
X93964699Y-72364067D01*
X93944417Y-72570000D01*
X92500500Y-72570000D01*
X92500500Y-70030000D01*
X93944417Y-70030000D01*
X93964699Y-70235932D01*
X93983637Y-70298361D01*
X94024768Y-70433954D01*
X94122315Y-70616450D01*
X94123468Y-70617855D01*
X94253589Y-70776410D01*
X94318522Y-70829698D01*
X94413550Y-70907685D01*
X94596046Y-71005232D01*
X94794066Y-71065300D01*
X94794065Y-71065300D01*
X94812529Y-71067118D01*
X95000000Y-71085583D01*
X95205934Y-71065300D01*
X95403954Y-71005232D01*
X95586450Y-70907685D01*
X95746410Y-70776410D01*
X95871486Y-70624003D01*
X101294500Y-70624003D01*
X101294500Y-72448638D01*
X101295678Y-72470618D01*
X101298511Y-72496965D01*
X101298512Y-72496967D01*
X101322470Y-72573478D01*
X101322471Y-72573483D01*
X101324866Y-72577869D01*
X101355956Y-72634805D01*
X101355958Y-72634808D01*
X101355960Y-72634811D01*
X101390998Y-72681615D01*
X101391002Y-72681619D01*
X101391009Y-72681629D01*
X101391016Y-72681636D01*
X102258181Y-73548801D01*
X102291666Y-73610124D01*
X102294500Y-73636482D01*
X102294500Y-90876007D01*
X102299197Y-90919686D01*
X102310397Y-90971174D01*
X102312890Y-90981372D01*
X102312891Y-90981375D01*
X102355899Y-91062083D01*
X102355901Y-91062086D01*
X102401660Y-91114895D01*
X102413570Y-91127050D01*
X102419246Y-91132843D01*
X102419247Y-91132844D01*
X102419249Y-91132845D01*
X102499059Y-91177488D01*
X102499063Y-91177490D01*
X102566102Y-91197175D01*
X102624000Y-91205500D01*
X102624004Y-91205500D01*
X104375991Y-91205500D01*
X104376000Y-91205500D01*
X104419684Y-91200803D01*
X104448875Y-91194452D01*
X104471174Y-91189602D01*
X104471190Y-91189598D01*
X104471195Y-91189597D01*
X104481373Y-91187110D01*
X104544727Y-91153349D01*
X104613145Y-91139194D01*
X104663574Y-91154562D01*
X104704557Y-91177487D01*
X104704563Y-91177490D01*
X104771602Y-91197175D01*
X104829500Y-91205500D01*
X104829504Y-91205500D01*
X106970491Y-91205500D01*
X106970500Y-91205500D01*
X107014184Y-91200803D01*
X107043375Y-91194452D01*
X107065674Y-91189602D01*
X107065690Y-91189598D01*
X107065695Y-91189597D01*
X107075873Y-91187110D01*
X107139227Y-91153349D01*
X107207645Y-91139194D01*
X107258074Y-91154562D01*
X107299057Y-91177487D01*
X107299063Y-91177490D01*
X107366102Y-91197175D01*
X107424000Y-91205500D01*
X107424004Y-91205500D01*
X109375991Y-91205500D01*
X109376000Y-91205500D01*
X109419684Y-91200803D01*
X109448875Y-91194452D01*
X109471174Y-91189602D01*
X109471190Y-91189598D01*
X109471195Y-91189597D01*
X109481373Y-91187110D01*
X109562085Y-91144100D01*
X109562087Y-91144097D01*
X109567514Y-91141206D01*
X109635934Y-91127050D01*
X109686363Y-91142418D01*
X109694074Y-91146731D01*
X109749063Y-91177490D01*
X109816102Y-91197175D01*
X109874000Y-91205500D01*
X109874004Y-91205500D01*
X112125991Y-91205500D01*
X112126000Y-91205500D01*
X112169684Y-91200803D01*
X112198875Y-91194452D01*
X112221174Y-91189602D01*
X112221190Y-91189598D01*
X112221195Y-91189597D01*
X112231373Y-91187110D01*
X112312085Y-91144100D01*
X112364889Y-91098345D01*
X112382843Y-91080754D01*
X112394829Y-91059325D01*
X112444733Y-91010429D01*
X112513154Y-90996274D01*
X112576680Y-91020090D01*
X112586280Y-91027174D01*
X112587118Y-91027793D01*
X112608089Y-91035131D01*
X112715299Y-91072646D01*
X112745730Y-91075500D01*
X112745734Y-91075500D01*
X114054270Y-91075500D01*
X114084699Y-91072646D01*
X114084701Y-91072646D01*
X114148790Y-91050219D01*
X114212882Y-91027793D01*
X114322150Y-90947150D01*
X114402793Y-90837882D01*
X114432161Y-90753954D01*
X114447646Y-90709701D01*
X114447646Y-90709699D01*
X114450500Y-90679269D01*
X114450500Y-89571530D01*
X122949500Y-89571530D01*
X122949500Y-90028469D01*
X122989868Y-90231412D01*
X122989870Y-90231420D01*
X123069058Y-90422596D01*
X123184024Y-90594657D01*
X123330342Y-90740975D01*
X123330345Y-90740977D01*
X123502402Y-90855941D01*
X123693580Y-90935130D01*
X123874787Y-90971174D01*
X123896530Y-90975499D01*
X123896534Y-90975500D01*
X123896535Y-90975500D01*
X124103466Y-90975500D01*
X124103467Y-90975499D01*
X124306420Y-90935130D01*
X124497598Y-90855941D01*
X124669655Y-90740977D01*
X124815977Y-90594655D01*
X124930941Y-90422598D01*
X125010130Y-90231420D01*
X125044071Y-90060787D01*
X125048883Y-90036596D01*
X125081268Y-89974685D01*
X125141983Y-89940111D01*
X125211753Y-89943850D01*
X125268425Y-89984716D01*
X125294006Y-90049734D01*
X125294500Y-90060787D01*
X125294500Y-90876007D01*
X125299197Y-90919686D01*
X125310397Y-90971174D01*
X125312890Y-90981372D01*
X125312891Y-90981375D01*
X125355899Y-91062083D01*
X125355901Y-91062086D01*
X125401660Y-91114895D01*
X125413570Y-91127050D01*
X125419246Y-91132843D01*
X125419247Y-91132844D01*
X125419249Y-91132845D01*
X125499059Y-91177488D01*
X125499063Y-91177490D01*
X125566102Y-91197175D01*
X125624000Y-91205500D01*
X125624004Y-91205500D01*
X127375991Y-91205500D01*
X127376000Y-91205500D01*
X127419684Y-91200803D01*
X127448875Y-91194452D01*
X127471174Y-91189602D01*
X127471190Y-91189598D01*
X127471195Y-91189597D01*
X127481373Y-91187110D01*
X127544727Y-91153349D01*
X127613145Y-91139194D01*
X127663574Y-91154562D01*
X127704557Y-91177487D01*
X127704563Y-91177490D01*
X127771602Y-91197175D01*
X127829500Y-91205500D01*
X127829504Y-91205500D01*
X129970491Y-91205500D01*
X129970500Y-91205500D01*
X130014184Y-91200803D01*
X130043375Y-91194452D01*
X130065674Y-91189602D01*
X130065690Y-91189598D01*
X130065695Y-91189597D01*
X130075873Y-91187110D01*
X130139227Y-91153349D01*
X130207645Y-91139194D01*
X130258074Y-91154562D01*
X130299057Y-91177487D01*
X130299063Y-91177490D01*
X130366102Y-91197175D01*
X130424000Y-91205500D01*
X130424004Y-91205500D01*
X132375991Y-91205500D01*
X132376000Y-91205500D01*
X132419684Y-91200803D01*
X132448875Y-91194452D01*
X132471174Y-91189602D01*
X132471190Y-91189598D01*
X132471195Y-91189597D01*
X132481373Y-91187110D01*
X132562085Y-91144100D01*
X132562087Y-91144097D01*
X132567514Y-91141206D01*
X132635934Y-91127050D01*
X132686363Y-91142418D01*
X132694074Y-91146731D01*
X132749063Y-91177490D01*
X132816102Y-91197175D01*
X132874000Y-91205500D01*
X132874004Y-91205500D01*
X134627760Y-91205500D01*
X134634800Y-91204768D01*
X134670005Y-91201111D01*
X134719900Y-91190630D01*
X134728678Y-91188584D01*
X134809996Y-91146732D01*
X134863448Y-91101736D01*
X134881653Y-91084401D01*
X134927435Y-91005229D01*
X134948075Y-90938477D01*
X134957225Y-90880706D01*
X134964602Y-90364251D01*
X134974028Y-90318575D01*
X135010130Y-90231420D01*
X135050500Y-90028465D01*
X135050500Y-89571535D01*
X135010130Y-89368580D01*
X134989660Y-89319162D01*
X134980235Y-89269943D01*
X134983795Y-89020730D01*
X135449500Y-89020730D01*
X135449500Y-90579269D01*
X135452353Y-90609699D01*
X135452353Y-90609701D01*
X135497206Y-90737880D01*
X135497207Y-90737882D01*
X135577850Y-90847150D01*
X135687118Y-90927793D01*
X135729845Y-90942744D01*
X135815299Y-90972646D01*
X135845730Y-90975500D01*
X135845734Y-90975500D01*
X137154270Y-90975500D01*
X137184699Y-90972646D01*
X137184701Y-90972646D01*
X137248790Y-90950219D01*
X137312882Y-90927793D01*
X137422150Y-90847150D01*
X137502793Y-90737882D01*
X137525219Y-90673790D01*
X137547646Y-90609701D01*
X137547646Y-90609699D01*
X137550500Y-90579269D01*
X137550500Y-89420247D01*
X142249500Y-89420247D01*
X142249500Y-91159752D01*
X142261131Y-91218229D01*
X142261132Y-91218230D01*
X142305447Y-91284552D01*
X142371769Y-91328867D01*
X142371770Y-91328868D01*
X142430247Y-91340499D01*
X142430250Y-91340500D01*
X142430252Y-91340500D01*
X144169750Y-91340500D01*
X144169751Y-91340499D01*
X144184568Y-91337552D01*
X144228229Y-91328868D01*
X144228229Y-91328867D01*
X144228231Y-91328867D01*
X144294552Y-91284552D01*
X144338867Y-91218231D01*
X144338867Y-91218229D01*
X144338868Y-91218229D01*
X144350499Y-91159752D01*
X144350500Y-91159750D01*
X144350500Y-89420249D01*
X144350499Y-89420247D01*
X144338868Y-89361770D01*
X144338867Y-89361769D01*
X144294552Y-89295447D01*
X144228230Y-89251132D01*
X144228229Y-89251131D01*
X144169752Y-89239500D01*
X144169748Y-89239500D01*
X142430252Y-89239500D01*
X142430247Y-89239500D01*
X142371770Y-89251131D01*
X142371769Y-89251132D01*
X142305447Y-89295447D01*
X142261132Y-89361769D01*
X142261131Y-89361770D01*
X142249500Y-89420247D01*
X137550500Y-89420247D01*
X137550500Y-89020730D01*
X137547646Y-88990300D01*
X137547646Y-88990298D01*
X137502793Y-88862119D01*
X137502792Y-88862117D01*
X137422150Y-88752850D01*
X137312882Y-88672207D01*
X137312880Y-88672206D01*
X137184700Y-88627353D01*
X137154270Y-88624500D01*
X137154266Y-88624500D01*
X135845734Y-88624500D01*
X135845730Y-88624500D01*
X135815300Y-88627353D01*
X135815298Y-88627353D01*
X135687119Y-88672206D01*
X135687117Y-88672207D01*
X135577850Y-88752850D01*
X135497207Y-88862117D01*
X135497206Y-88862119D01*
X135452353Y-88990298D01*
X135452353Y-88990300D01*
X135449500Y-89020730D01*
X134983795Y-89020730D01*
X135001948Y-87750000D01*
X142244417Y-87750000D01*
X142264699Y-87955932D01*
X142294734Y-88054944D01*
X142324768Y-88153954D01*
X142422315Y-88336450D01*
X142422317Y-88336452D01*
X142553589Y-88496410D01*
X142650209Y-88575702D01*
X142713550Y-88627685D01*
X142896046Y-88725232D01*
X143094066Y-88785300D01*
X143094065Y-88785300D01*
X143112529Y-88787118D01*
X143300000Y-88805583D01*
X143505934Y-88785300D01*
X143703954Y-88725232D01*
X143886450Y-88627685D01*
X144046410Y-88496410D01*
X144177685Y-88336450D01*
X144275232Y-88153954D01*
X144335300Y-87955934D01*
X144355583Y-87750000D01*
X144335300Y-87544066D01*
X144275232Y-87346046D01*
X144177685Y-87163550D01*
X144125702Y-87100209D01*
X144046410Y-87003589D01*
X143886452Y-86872317D01*
X143886453Y-86872317D01*
X143886450Y-86872315D01*
X143703954Y-86774768D01*
X143505934Y-86714700D01*
X143505932Y-86714699D01*
X143505934Y-86714699D01*
X143300000Y-86694417D01*
X143094067Y-86714699D01*
X142918692Y-86767898D01*
X142896274Y-86774699D01*
X142896043Y-86774769D01*
X142785898Y-86833643D01*
X142713550Y-86872315D01*
X142713548Y-86872316D01*
X142713547Y-86872317D01*
X142553589Y-87003589D01*
X142422317Y-87163547D01*
X142324769Y-87346043D01*
X142264699Y-87544067D01*
X142244417Y-87750000D01*
X135001948Y-87750000D01*
X135038234Y-85210000D01*
X142244417Y-85210000D01*
X142264699Y-85415932D01*
X142294734Y-85514944D01*
X142324768Y-85613954D01*
X142422315Y-85796450D01*
X142422317Y-85796452D01*
X142553589Y-85956410D01*
X142650209Y-86035702D01*
X142713550Y-86087685D01*
X142896046Y-86185232D01*
X143094066Y-86245300D01*
X143094065Y-86245300D01*
X143112529Y-86247118D01*
X143300000Y-86265583D01*
X143505934Y-86245300D01*
X143703954Y-86185232D01*
X143886450Y-86087685D01*
X144046410Y-85956410D01*
X144177685Y-85796450D01*
X144275232Y-85613954D01*
X144335300Y-85415934D01*
X144355583Y-85210000D01*
X144335300Y-85004066D01*
X144275232Y-84806046D01*
X144177685Y-84623550D01*
X144125702Y-84560209D01*
X144046410Y-84463589D01*
X143886452Y-84332317D01*
X143886453Y-84332317D01*
X143886450Y-84332315D01*
X143703954Y-84234768D01*
X143505934Y-84174700D01*
X143505932Y-84174699D01*
X143505934Y-84174699D01*
X143300000Y-84154417D01*
X143094067Y-84174699D01*
X142918692Y-84227898D01*
X142896274Y-84234699D01*
X142896043Y-84234769D01*
X142785898Y-84293643D01*
X142713550Y-84332315D01*
X142713548Y-84332316D01*
X142713547Y-84332317D01*
X142553589Y-84463589D01*
X142422317Y-84623547D01*
X142324769Y-84806043D01*
X142264699Y-85004067D01*
X142244417Y-85210000D01*
X135038234Y-85210000D01*
X135148378Y-77499998D01*
X137894318Y-77499998D01*
X137894318Y-77500001D01*
X137914955Y-77656760D01*
X137914956Y-77656762D01*
X137975464Y-77802841D01*
X138071718Y-77928282D01*
X138197159Y-78024536D01*
X138343238Y-78085044D01*
X138421619Y-78095363D01*
X138499999Y-78105682D01*
X138500000Y-78105682D01*
X138500001Y-78105682D01*
X138552254Y-78098802D01*
X138656762Y-78085044D01*
X138802841Y-78024536D01*
X138928282Y-77928282D01*
X139024536Y-77802841D01*
X139085044Y-77656762D01*
X139105682Y-77500000D01*
X139085044Y-77343238D01*
X139024536Y-77197159D01*
X138928282Y-77071718D01*
X138802841Y-76975464D01*
X138656762Y-76914956D01*
X138656760Y-76914955D01*
X138500001Y-76894318D01*
X138499999Y-76894318D01*
X138343239Y-76914955D01*
X138343237Y-76914956D01*
X138197160Y-76975463D01*
X138071718Y-77071718D01*
X137975463Y-77197160D01*
X137914956Y-77343237D01*
X137914955Y-77343239D01*
X137894318Y-77499998D01*
X135148378Y-77499998D01*
X135158002Y-76826351D01*
X135205463Y-73504070D01*
X135205463Y-73504013D01*
X135205466Y-73503845D01*
X135205481Y-73502418D01*
X135205494Y-73500647D01*
X135205500Y-73499139D01*
X135205500Y-71302948D01*
X135225185Y-71235909D01*
X135277989Y-71190154D01*
X135347147Y-71180210D01*
X135410703Y-71209235D01*
X135423213Y-71221746D01*
X135493574Y-71302948D01*
X135518872Y-71332143D01*
X135639947Y-71409953D01*
X135639950Y-71409954D01*
X135639949Y-71409954D01*
X135747107Y-71441417D01*
X135776336Y-71450000D01*
X135778036Y-71450499D01*
X135778038Y-71450500D01*
X135778039Y-71450500D01*
X135921962Y-71450500D01*
X135921962Y-71450499D01*
X136060053Y-71409953D01*
X136061171Y-71409234D01*
X136062448Y-71408859D01*
X136068118Y-71406270D01*
X136068490Y-71407084D01*
X136128207Y-71389547D01*
X136195248Y-71409228D01*
X136241005Y-71462029D01*
X136250952Y-71495900D01*
X136264834Y-71592456D01*
X136305937Y-71682457D01*
X136324623Y-71723373D01*
X136418872Y-71832143D01*
X136539947Y-71909953D01*
X136539950Y-71909954D01*
X136539949Y-71909954D01*
X136678036Y-71950499D01*
X136678038Y-71950500D01*
X136678039Y-71950500D01*
X136821962Y-71950500D01*
X136821962Y-71950499D01*
X136929121Y-71919035D01*
X136960050Y-71909954D01*
X136960050Y-71909953D01*
X136960053Y-71909953D01*
X137081128Y-71832143D01*
X137175377Y-71723373D01*
X137235165Y-71592457D01*
X137255647Y-71450000D01*
X137235165Y-71307543D01*
X137175377Y-71176627D01*
X137081128Y-71067857D01*
X136960053Y-70990047D01*
X136960051Y-70990046D01*
X136960049Y-70990045D01*
X136960050Y-70990045D01*
X136821963Y-70949500D01*
X136821961Y-70949500D01*
X136678039Y-70949500D01*
X136678036Y-70949500D01*
X136539949Y-70990045D01*
X136539945Y-70990047D01*
X136538816Y-70990773D01*
X136537530Y-70991150D01*
X136531882Y-70993730D01*
X136531510Y-70992917D01*
X136471775Y-71010452D01*
X136404737Y-70990762D01*
X136358987Y-70937955D01*
X136349047Y-70904098D01*
X136345756Y-70881210D01*
X136335165Y-70807543D01*
X136275377Y-70676627D01*
X136181128Y-70567857D01*
X136060053Y-70490047D01*
X136060051Y-70490046D01*
X136060049Y-70490045D01*
X136060050Y-70490045D01*
X135921963Y-70449500D01*
X135921961Y-70449500D01*
X135778039Y-70449500D01*
X135778036Y-70449500D01*
X135639949Y-70490045D01*
X135518873Y-70567856D01*
X135423213Y-70678254D01*
X135364435Y-70716028D01*
X135294565Y-70716028D01*
X135235787Y-70678254D01*
X135206762Y-70614698D01*
X135205500Y-70597051D01*
X135205500Y-68064566D01*
X135205500Y-68064561D01*
X135201628Y-68024856D01*
X135192370Y-67977842D01*
X135191031Y-67971563D01*
X135190853Y-67971195D01*
X135165966Y-67919684D01*
X135151245Y-67889215D01*
X135144506Y-67880787D01*
X135107624Y-67834657D01*
X135107606Y-67834638D01*
X135074090Y-67803194D01*
X135071915Y-67799496D01*
X135065076Y-67794709D01*
X135064956Y-67794625D01*
X135064954Y-67794623D01*
X135014290Y-67759159D01*
X135014291Y-67759159D01*
X134580417Y-67455447D01*
X133841783Y-66938402D01*
X133841778Y-66938400D01*
X133419002Y-66642457D01*
X132649867Y-66104063D01*
X132646495Y-66101752D01*
X132644439Y-66100373D01*
X132642423Y-66099020D01*
X132585855Y-66072513D01*
X132585849Y-66072510D01*
X132585843Y-66072508D01*
X132585835Y-66072505D01*
X132518821Y-66052827D01*
X132518812Y-66052825D01*
X132518810Y-66052825D01*
X132460912Y-66044500D01*
X129124000Y-66044500D01*
X129123992Y-66044500D01*
X129080313Y-66049197D01*
X129028825Y-66060397D01*
X129018627Y-66062890D01*
X129018624Y-66062891D01*
X128937916Y-66105899D01*
X128937913Y-66105901D01*
X128885104Y-66151660D01*
X128867160Y-66169242D01*
X128867154Y-66169249D01*
X128822511Y-66249059D01*
X128822509Y-66249064D01*
X128802826Y-66316096D01*
X128802825Y-66316101D01*
X128802825Y-66316102D01*
X128796867Y-66357543D01*
X128794500Y-66374003D01*
X128794500Y-67876007D01*
X128799197Y-67919686D01*
X128810397Y-67971174D01*
X128812016Y-67977795D01*
X128812890Y-67981373D01*
X128855900Y-68062085D01*
X128858050Y-68064566D01*
X128901660Y-68114895D01*
X128919242Y-68132839D01*
X128919246Y-68132843D01*
X128919247Y-68132844D01*
X128919249Y-68132845D01*
X128999059Y-68177488D01*
X128999063Y-68177490D01*
X129066102Y-68197175D01*
X129124000Y-68205500D01*
X132863518Y-68205500D01*
X132930557Y-68225185D01*
X132951199Y-68241819D01*
X133758181Y-69048801D01*
X133791666Y-69110124D01*
X133794500Y-69136482D01*
X133794500Y-72113517D01*
X133774815Y-72180556D01*
X133758181Y-72201198D01*
X132641016Y-73318362D01*
X132635465Y-73324542D01*
X132576019Y-73361257D01*
X132506161Y-73360005D01*
X132479425Y-73348002D01*
X131135387Y-72541579D01*
X131088028Y-72490208D01*
X131075961Y-72421388D01*
X131103016Y-72356970D01*
X131105435Y-72354090D01*
X131156288Y-72295402D01*
X131215066Y-72257629D01*
X131284936Y-72257629D01*
X131343712Y-72295403D01*
X131418872Y-72382143D01*
X131539947Y-72459953D01*
X131539950Y-72459954D01*
X131539949Y-72459954D01*
X131678036Y-72500499D01*
X131678038Y-72500500D01*
X131678039Y-72500500D01*
X131821962Y-72500500D01*
X131821962Y-72500499D01*
X131960053Y-72459953D01*
X132081128Y-72382143D01*
X132156287Y-72295403D01*
X132215064Y-72257629D01*
X132284934Y-72257629D01*
X132343711Y-72295402D01*
X132418872Y-72382143D01*
X132539947Y-72459953D01*
X132539950Y-72459954D01*
X132539949Y-72459954D01*
X132678036Y-72500499D01*
X132678038Y-72500500D01*
X132678039Y-72500500D01*
X132821962Y-72500500D01*
X132821962Y-72500499D01*
X132960053Y-72459953D01*
X133081128Y-72382143D01*
X133175377Y-72273373D01*
X133235165Y-72142457D01*
X133255647Y-72000000D01*
X133235165Y-71857543D01*
X133175377Y-71726627D01*
X133081128Y-71617857D01*
X133081125Y-71617855D01*
X133081125Y-71617854D01*
X133060058Y-71604316D01*
X133014302Y-71551513D01*
X133004358Y-71482354D01*
X133033382Y-71418798D01*
X133060058Y-71395684D01*
X133081125Y-71382145D01*
X133081125Y-71382144D01*
X133081128Y-71382143D01*
X133175377Y-71273373D01*
X133235165Y-71142457D01*
X133255647Y-71000000D01*
X133235165Y-70857543D01*
X133175377Y-70726627D01*
X133081128Y-70617857D01*
X133081125Y-70617855D01*
X133081125Y-70617854D01*
X133060058Y-70604316D01*
X133014302Y-70551513D01*
X133004358Y-70482354D01*
X133033382Y-70418798D01*
X133060058Y-70395684D01*
X133081125Y-70382145D01*
X133081125Y-70382144D01*
X133081128Y-70382143D01*
X133175377Y-70273373D01*
X133235165Y-70142457D01*
X133255647Y-70000000D01*
X133235165Y-69857543D01*
X133175377Y-69726627D01*
X133081128Y-69617857D01*
X132960053Y-69540047D01*
X132960051Y-69540046D01*
X132960049Y-69540045D01*
X132960050Y-69540045D01*
X132821963Y-69499500D01*
X132821961Y-69499500D01*
X132678039Y-69499500D01*
X132678036Y-69499500D01*
X132539949Y-69540045D01*
X132418873Y-69617856D01*
X132343713Y-69704596D01*
X132284935Y-69742370D01*
X132215065Y-69742370D01*
X132156287Y-69704596D01*
X132081128Y-69617857D01*
X131960053Y-69540047D01*
X131960051Y-69540046D01*
X131960049Y-69540045D01*
X131960050Y-69540045D01*
X131821963Y-69499500D01*
X131821961Y-69499500D01*
X131678039Y-69499500D01*
X131678036Y-69499500D01*
X131539949Y-69540045D01*
X131418873Y-69617856D01*
X131343713Y-69704596D01*
X131284935Y-69742370D01*
X131215065Y-69742370D01*
X131156287Y-69704596D01*
X131081128Y-69617857D01*
X130960053Y-69540047D01*
X130960051Y-69540046D01*
X130960049Y-69540045D01*
X130960050Y-69540045D01*
X130821963Y-69499500D01*
X130821961Y-69499500D01*
X130678039Y-69499500D01*
X130678036Y-69499500D01*
X130539949Y-69540045D01*
X130418873Y-69617856D01*
X130324623Y-69726626D01*
X130324622Y-69726628D01*
X130264834Y-69857543D01*
X130244353Y-70000000D01*
X130264834Y-70142456D01*
X130324622Y-70273371D01*
X130324623Y-70273373D01*
X130418872Y-70382143D01*
X130426324Y-70386932D01*
X130439943Y-70395685D01*
X130485698Y-70448489D01*
X130495641Y-70517648D01*
X130466615Y-70581203D01*
X130439943Y-70604315D01*
X130418874Y-70617855D01*
X130324623Y-70726626D01*
X130324622Y-70726628D01*
X130264834Y-70857543D01*
X130244353Y-71000000D01*
X130264834Y-71142456D01*
X130314086Y-71250301D01*
X130324623Y-71273373D01*
X130418872Y-71382143D01*
X130426324Y-71386932D01*
X130439943Y-71395685D01*
X130485698Y-71448489D01*
X130495641Y-71517648D01*
X130466615Y-71581203D01*
X130439943Y-71604315D01*
X130418874Y-71617855D01*
X130418872Y-71617856D01*
X130418872Y-71617857D01*
X130400118Y-71639500D01*
X130324623Y-71726626D01*
X130324622Y-71726628D01*
X130264500Y-71858275D01*
X130218745Y-71911079D01*
X130151705Y-71930763D01*
X130087908Y-71913092D01*
X129265702Y-71419768D01*
X129218344Y-71368397D01*
X129205500Y-71313439D01*
X129205500Y-70124008D01*
X129205499Y-70123992D01*
X129200803Y-70080316D01*
X129191875Y-70039276D01*
X129189602Y-70028825D01*
X129189348Y-70027789D01*
X129187110Y-70018627D01*
X129144100Y-69937915D01*
X129098345Y-69885111D01*
X129098339Y-69885104D01*
X129080757Y-69867160D01*
X129080756Y-69867159D01*
X129080754Y-69867157D01*
X129080752Y-69867156D01*
X129080750Y-69867154D01*
X129000940Y-69822511D01*
X129000935Y-69822509D01*
X128933903Y-69802826D01*
X128933899Y-69802825D01*
X128933898Y-69802825D01*
X128876000Y-69794500D01*
X127124000Y-69794500D01*
X127123992Y-69794500D01*
X127080313Y-69799197D01*
X127028825Y-69810397D01*
X127018627Y-69812890D01*
X127018624Y-69812891D01*
X126937916Y-69855899D01*
X126937913Y-69855901D01*
X126885104Y-69901660D01*
X126867160Y-69919242D01*
X126867154Y-69919249D01*
X126822511Y-69999059D01*
X126822509Y-69999064D01*
X126802826Y-70066096D01*
X126802825Y-70066101D01*
X126802825Y-70066102D01*
X126794502Y-70123992D01*
X126794500Y-70124003D01*
X126794500Y-70175623D01*
X126774815Y-70242662D01*
X126722011Y-70288417D01*
X126652853Y-70298361D01*
X126640542Y-70296590D01*
X126626000Y-70294500D01*
X124624000Y-70294500D01*
X124623992Y-70294500D01*
X124580313Y-70299197D01*
X124528825Y-70310397D01*
X124518627Y-70312890D01*
X124518624Y-70312891D01*
X124437916Y-70355899D01*
X124437913Y-70355901D01*
X124385104Y-70401660D01*
X124367160Y-70419242D01*
X124367154Y-70419249D01*
X124322511Y-70499059D01*
X124322509Y-70499064D01*
X124302826Y-70566096D01*
X124302825Y-70566101D01*
X124302825Y-70566102D01*
X124295384Y-70617857D01*
X124294500Y-70624003D01*
X124294500Y-72448638D01*
X124295678Y-72470618D01*
X124298511Y-72496965D01*
X124298512Y-72496967D01*
X124322470Y-72573478D01*
X124322471Y-72573483D01*
X124324866Y-72577869D01*
X124355956Y-72634805D01*
X124355958Y-72634808D01*
X124355960Y-72634811D01*
X124390998Y-72681615D01*
X124391002Y-72681619D01*
X124391009Y-72681629D01*
X124391016Y-72681636D01*
X125258181Y-73548801D01*
X125291666Y-73610124D01*
X125294500Y-73636482D01*
X125294500Y-89539212D01*
X125274815Y-89606251D01*
X125222011Y-89652006D01*
X125152853Y-89661950D01*
X125089297Y-89632925D01*
X125051523Y-89574147D01*
X125048883Y-89563403D01*
X125020408Y-89420252D01*
X125010130Y-89368580D01*
X124930941Y-89177402D01*
X124815977Y-89005345D01*
X124815975Y-89005342D01*
X124669657Y-88859024D01*
X124559215Y-88785230D01*
X124497598Y-88744059D01*
X124462145Y-88729374D01*
X124306420Y-88664870D01*
X124306412Y-88664868D01*
X124103469Y-88624500D01*
X124103465Y-88624500D01*
X123896535Y-88624500D01*
X123896530Y-88624500D01*
X123693587Y-88664868D01*
X123693579Y-88664870D01*
X123502403Y-88744058D01*
X123330342Y-88859024D01*
X123184024Y-89005342D01*
X123069058Y-89177403D01*
X122989870Y-89368579D01*
X122989868Y-89368587D01*
X122949500Y-89571530D01*
X114450500Y-89571530D01*
X114450500Y-89120730D01*
X114447646Y-89090300D01*
X114447646Y-89090298D01*
X114402793Y-88962119D01*
X114402792Y-88962117D01*
X114322150Y-88852850D01*
X114212882Y-88772207D01*
X114212880Y-88772206D01*
X114084700Y-88727353D01*
X114054270Y-88724500D01*
X114054266Y-88724500D01*
X112745734Y-88724500D01*
X112745730Y-88724500D01*
X112715302Y-88727353D01*
X112620454Y-88760542D01*
X112550676Y-88764103D01*
X112490048Y-88729374D01*
X112457821Y-88667381D01*
X112455500Y-88643500D01*
X112455500Y-81220730D01*
X115449500Y-81220730D01*
X115449500Y-82779269D01*
X115452353Y-82809699D01*
X115452353Y-82809701D01*
X115496525Y-82935934D01*
X115497207Y-82937882D01*
X115577850Y-83047150D01*
X115687118Y-83127793D01*
X115708089Y-83135131D01*
X115815299Y-83172646D01*
X115845730Y-83175500D01*
X115845734Y-83175500D01*
X117154270Y-83175500D01*
X117184699Y-83172646D01*
X117184701Y-83172646D01*
X117248790Y-83150219D01*
X117312882Y-83127793D01*
X117422150Y-83047150D01*
X117502793Y-82937882D01*
X117525219Y-82873790D01*
X117547646Y-82809701D01*
X117547646Y-82809699D01*
X117550500Y-82779269D01*
X117550500Y-81771530D01*
X117949500Y-81771530D01*
X117949500Y-82228469D01*
X117989868Y-82431412D01*
X117989870Y-82431420D01*
X118069058Y-82622596D01*
X118184024Y-82794657D01*
X118330342Y-82940975D01*
X118330345Y-82940977D01*
X118502402Y-83055941D01*
X118693580Y-83135130D01*
X118882187Y-83172646D01*
X118896530Y-83175499D01*
X118896534Y-83175500D01*
X118896535Y-83175500D01*
X119103466Y-83175500D01*
X119103467Y-83175499D01*
X119306420Y-83135130D01*
X119497598Y-83055941D01*
X119669655Y-82940977D01*
X119815977Y-82794655D01*
X119930941Y-82622598D01*
X120010130Y-82431420D01*
X120050500Y-82228465D01*
X120050500Y-81771535D01*
X120010130Y-81568580D01*
X119930941Y-81377402D01*
X119815977Y-81205345D01*
X119815975Y-81205342D01*
X119669657Y-81059024D01*
X119583626Y-81001541D01*
X119497598Y-80944059D01*
X119306420Y-80864870D01*
X119306412Y-80864868D01*
X119103469Y-80824500D01*
X119103465Y-80824500D01*
X118896535Y-80824500D01*
X118896530Y-80824500D01*
X118693587Y-80864868D01*
X118693579Y-80864870D01*
X118502403Y-80944058D01*
X118330342Y-81059024D01*
X118184024Y-81205342D01*
X118069058Y-81377403D01*
X117989870Y-81568579D01*
X117989868Y-81568587D01*
X117949500Y-81771530D01*
X117550500Y-81771530D01*
X117550500Y-81220730D01*
X117547646Y-81190300D01*
X117547646Y-81190298D01*
X117502793Y-81062119D01*
X117502792Y-81062117D01*
X117422150Y-80952850D01*
X117312882Y-80872207D01*
X117312880Y-80872206D01*
X117184700Y-80827353D01*
X117154270Y-80824500D01*
X117154266Y-80824500D01*
X115845734Y-80824500D01*
X115845730Y-80824500D01*
X115815300Y-80827353D01*
X115815298Y-80827353D01*
X115687119Y-80872206D01*
X115687117Y-80872207D01*
X115577850Y-80952850D01*
X115497207Y-81062117D01*
X115497206Y-81062119D01*
X115452353Y-81190298D01*
X115452353Y-81190300D01*
X115449500Y-81220730D01*
X112455500Y-81220730D01*
X112455500Y-77499998D01*
X114894318Y-77499998D01*
X114894318Y-77500001D01*
X114914955Y-77656760D01*
X114914956Y-77656762D01*
X114975464Y-77802841D01*
X115071718Y-77928282D01*
X115197159Y-78024536D01*
X115343238Y-78085044D01*
X115421619Y-78095363D01*
X115499999Y-78105682D01*
X115500000Y-78105682D01*
X115500001Y-78105682D01*
X115552254Y-78098802D01*
X115656762Y-78085044D01*
X115802841Y-78024536D01*
X115928282Y-77928282D01*
X116024536Y-77802841D01*
X116085044Y-77656762D01*
X116105682Y-77500000D01*
X120994353Y-77500000D01*
X121014834Y-77642456D01*
X121074622Y-77773371D01*
X121074623Y-77773373D01*
X121168872Y-77882143D01*
X121289947Y-77959953D01*
X121289950Y-77959954D01*
X121289949Y-77959954D01*
X121428036Y-78000499D01*
X121428038Y-78000500D01*
X121428039Y-78000500D01*
X121571962Y-78000500D01*
X121571962Y-78000499D01*
X121710053Y-77959953D01*
X121831128Y-77882143D01*
X121925377Y-77773373D01*
X121985165Y-77642457D01*
X122005647Y-77500000D01*
X121985165Y-77357543D01*
X121925377Y-77226627D01*
X121831128Y-77117857D01*
X121710053Y-77040047D01*
X121710051Y-77040046D01*
X121710049Y-77040045D01*
X121710050Y-77040045D01*
X121571963Y-76999500D01*
X121571961Y-76999500D01*
X121428039Y-76999500D01*
X121428036Y-76999500D01*
X121289949Y-77040045D01*
X121168873Y-77117856D01*
X121074623Y-77226626D01*
X121074622Y-77226628D01*
X121014834Y-77357543D01*
X120994353Y-77500000D01*
X116105682Y-77500000D01*
X116085044Y-77343238D01*
X116024536Y-77197159D01*
X115928282Y-77071718D01*
X115802841Y-76975464D01*
X115656762Y-76914956D01*
X115656760Y-76914955D01*
X115500001Y-76894318D01*
X115499999Y-76894318D01*
X115343239Y-76914955D01*
X115343237Y-76914956D01*
X115197160Y-76975463D01*
X115071718Y-77071718D01*
X114975463Y-77197160D01*
X114914956Y-77343237D01*
X114914955Y-77343239D01*
X114894318Y-77499998D01*
X112455500Y-77499998D01*
X112455500Y-74999998D01*
X122694318Y-74999998D01*
X122694318Y-75000001D01*
X122714955Y-75156760D01*
X122714956Y-75156762D01*
X122775464Y-75302841D01*
X122871718Y-75428282D01*
X122997159Y-75524536D01*
X123143238Y-75585044D01*
X123221619Y-75595363D01*
X123299999Y-75605682D01*
X123300000Y-75605682D01*
X123300001Y-75605682D01*
X123352254Y-75598802D01*
X123456762Y-75585044D01*
X123602841Y-75524536D01*
X123728282Y-75428282D01*
X123824536Y-75302841D01*
X123885044Y-75156762D01*
X123905682Y-75000000D01*
X123885044Y-74843238D01*
X123824536Y-74697159D01*
X123728282Y-74571718D01*
X123602841Y-74475464D01*
X123456762Y-74414956D01*
X123456760Y-74414955D01*
X123300001Y-74394318D01*
X123299999Y-74394318D01*
X123143239Y-74414955D01*
X123143237Y-74414956D01*
X122997160Y-74475463D01*
X122871718Y-74571718D01*
X122775463Y-74697160D01*
X122714956Y-74843237D01*
X122714955Y-74843239D01*
X122694318Y-74999998D01*
X112455500Y-74999998D01*
X112455500Y-72140000D01*
X114664353Y-72140000D01*
X114684834Y-72282456D01*
X114734366Y-72390913D01*
X114744623Y-72413373D01*
X114838872Y-72522143D01*
X114959947Y-72599953D01*
X114959950Y-72599954D01*
X114959949Y-72599954D01*
X115035520Y-72622143D01*
X115078643Y-72634805D01*
X115098036Y-72640499D01*
X115098038Y-72640500D01*
X115098039Y-72640500D01*
X115241962Y-72640500D01*
X115241962Y-72640499D01*
X115380053Y-72599953D01*
X115501128Y-72522143D01*
X115536852Y-72480914D01*
X115595627Y-72443140D01*
X115665497Y-72443139D01*
X115724276Y-72480913D01*
X115743355Y-72510598D01*
X115744620Y-72513369D01*
X115744623Y-72513373D01*
X115838872Y-72622143D01*
X115959947Y-72699953D01*
X115959950Y-72699954D01*
X115959949Y-72699954D01*
X116098036Y-72740499D01*
X116098038Y-72740500D01*
X116098039Y-72740500D01*
X116241962Y-72740500D01*
X116241962Y-72740499D01*
X116380053Y-72699953D01*
X116501128Y-72622143D01*
X116595377Y-72513373D01*
X116655165Y-72382457D01*
X116675647Y-72240000D01*
X116655165Y-72097543D01*
X116595377Y-71966627D01*
X116501128Y-71857857D01*
X116380053Y-71780047D01*
X116380051Y-71780046D01*
X116380049Y-71780045D01*
X116380050Y-71780045D01*
X116241963Y-71739500D01*
X116241961Y-71739500D01*
X116098039Y-71739500D01*
X116098036Y-71739500D01*
X115959949Y-71780045D01*
X115838873Y-71857856D01*
X115838872Y-71857856D01*
X115838872Y-71857857D01*
X115822608Y-71876627D01*
X115803148Y-71899085D01*
X115744369Y-71936859D01*
X115674500Y-71936859D01*
X115615722Y-71899084D01*
X115596642Y-71869396D01*
X115595378Y-71866629D01*
X115595376Y-71866626D01*
X115501128Y-71757857D01*
X115380053Y-71680047D01*
X115380051Y-71680046D01*
X115380049Y-71680045D01*
X115380050Y-71680045D01*
X115241963Y-71639500D01*
X115241961Y-71639500D01*
X115098039Y-71639500D01*
X115098036Y-71639500D01*
X114959949Y-71680045D01*
X114838873Y-71757856D01*
X114744623Y-71866626D01*
X114744622Y-71866628D01*
X114684834Y-71997543D01*
X114664353Y-72140000D01*
X112455500Y-72140000D01*
X112455500Y-71250301D01*
X112475185Y-71183262D01*
X112527989Y-71137507D01*
X112597147Y-71127563D01*
X112660703Y-71156588D01*
X112692293Y-71198787D01*
X112744623Y-71313373D01*
X112838872Y-71422143D01*
X112959947Y-71499953D01*
X112959950Y-71499954D01*
X112959949Y-71499954D01*
X113009207Y-71514417D01*
X113096496Y-71540047D01*
X113098036Y-71540499D01*
X113098038Y-71540500D01*
X113098039Y-71540500D01*
X113241962Y-71540500D01*
X113241962Y-71540499D01*
X113380053Y-71499953D01*
X113381171Y-71499234D01*
X113382448Y-71498859D01*
X113388118Y-71496270D01*
X113388490Y-71497084D01*
X113448207Y-71479547D01*
X113515248Y-71499228D01*
X113561005Y-71552029D01*
X113570952Y-71585900D01*
X113584834Y-71682456D01*
X113623835Y-71767855D01*
X113644623Y-71813373D01*
X113738872Y-71922143D01*
X113859947Y-71999953D01*
X113859950Y-71999954D01*
X113859949Y-71999954D01*
X113967107Y-72031417D01*
X113993870Y-72039276D01*
X113998036Y-72040499D01*
X113998038Y-72040500D01*
X113998039Y-72040500D01*
X114141962Y-72040500D01*
X114141962Y-72040499D01*
X114280053Y-71999953D01*
X114401128Y-71922143D01*
X114495377Y-71813373D01*
X114555165Y-71682457D01*
X114575647Y-71540000D01*
X114555165Y-71397543D01*
X114495377Y-71266627D01*
X114401128Y-71157857D01*
X114280053Y-71080047D01*
X114280051Y-71080046D01*
X114280049Y-71080045D01*
X114280050Y-71080045D01*
X114141963Y-71039500D01*
X114141961Y-71039500D01*
X113998039Y-71039500D01*
X113998036Y-71039500D01*
X113859949Y-71080045D01*
X113859945Y-71080047D01*
X113858816Y-71080773D01*
X113857530Y-71081150D01*
X113851882Y-71083730D01*
X113851510Y-71082917D01*
X113791775Y-71100452D01*
X113724737Y-71080762D01*
X113678987Y-71027955D01*
X113669047Y-70994098D01*
X113668877Y-70992917D01*
X113655165Y-70897543D01*
X113595377Y-70766627D01*
X113501128Y-70657857D01*
X113380053Y-70580047D01*
X113380051Y-70580046D01*
X113380049Y-70580045D01*
X113380050Y-70580045D01*
X113241963Y-70539500D01*
X113241961Y-70539500D01*
X113098039Y-70539500D01*
X113098036Y-70539500D01*
X112959949Y-70580045D01*
X112838873Y-70657856D01*
X112744623Y-70766626D01*
X112744622Y-70766628D01*
X112692294Y-70881210D01*
X112646539Y-70934014D01*
X112579499Y-70953698D01*
X112512460Y-70934013D01*
X112466705Y-70881209D01*
X112455500Y-70829698D01*
X112455500Y-69000000D01*
X112994353Y-69000000D01*
X113014834Y-69142456D01*
X113067211Y-69257143D01*
X113074623Y-69273373D01*
X113168872Y-69382143D01*
X113289947Y-69459953D01*
X113289950Y-69459954D01*
X113289949Y-69459954D01*
X113397107Y-69491417D01*
X113424633Y-69499500D01*
X113428036Y-69500499D01*
X113428038Y-69500500D01*
X113428039Y-69500500D01*
X113571962Y-69500500D01*
X113571962Y-69500499D01*
X113710053Y-69459953D01*
X113831128Y-69382143D01*
X113925377Y-69273373D01*
X113985165Y-69142457D01*
X114005647Y-69000000D01*
X113985165Y-68857543D01*
X113925377Y-68726627D01*
X113831128Y-68617857D01*
X113710053Y-68540047D01*
X113710051Y-68540046D01*
X113710049Y-68540045D01*
X113710050Y-68540045D01*
X113571963Y-68499500D01*
X113571961Y-68499500D01*
X113428039Y-68499500D01*
X113428036Y-68499500D01*
X113289949Y-68540045D01*
X113168873Y-68617856D01*
X113074623Y-68726626D01*
X113074622Y-68726628D01*
X113014834Y-68857543D01*
X112994353Y-69000000D01*
X112455500Y-69000000D01*
X112455500Y-68068072D01*
X112454850Y-68062086D01*
X112450706Y-68023938D01*
X112439269Y-67971923D01*
X112436636Y-67961308D01*
X112436636Y-67961307D01*
X112393266Y-67880787D01*
X112347278Y-67828190D01*
X112302902Y-67790084D01*
X110275628Y-66500000D01*
X118994353Y-66500000D01*
X119014834Y-66642456D01*
X119021207Y-66656410D01*
X119074623Y-66773373D01*
X119168872Y-66882143D01*
X119289947Y-66959953D01*
X119289950Y-66959954D01*
X119289949Y-66959954D01*
X119428036Y-67000499D01*
X119428038Y-67000500D01*
X119428039Y-67000500D01*
X119571962Y-67000500D01*
X119571962Y-67000499D01*
X119710053Y-66959953D01*
X119831128Y-66882143D01*
X119925377Y-66773373D01*
X119985165Y-66642457D01*
X120005647Y-66500000D01*
X124994353Y-66500000D01*
X125014834Y-66642456D01*
X125021207Y-66656410D01*
X125074623Y-66773373D01*
X125168872Y-66882143D01*
X125289947Y-66959953D01*
X125289950Y-66959954D01*
X125289949Y-66959954D01*
X125428036Y-67000499D01*
X125428038Y-67000500D01*
X125428039Y-67000500D01*
X125571962Y-67000500D01*
X125571962Y-67000499D01*
X125710053Y-66959953D01*
X125831128Y-66882143D01*
X125925377Y-66773373D01*
X125985165Y-66642457D01*
X126005647Y-66500000D01*
X125985165Y-66357543D01*
X125925377Y-66226627D01*
X125831128Y-66117857D01*
X125710053Y-66040047D01*
X125710051Y-66040046D01*
X125710049Y-66040045D01*
X125710050Y-66040045D01*
X125571963Y-65999500D01*
X125571961Y-65999500D01*
X125428039Y-65999500D01*
X125428036Y-65999500D01*
X125289949Y-66040045D01*
X125168873Y-66117856D01*
X125074623Y-66226626D01*
X125074622Y-66226628D01*
X125014834Y-66357543D01*
X124994353Y-66500000D01*
X120005647Y-66500000D01*
X119985165Y-66357543D01*
X119925377Y-66226627D01*
X119831128Y-66117857D01*
X119710053Y-66040047D01*
X119710051Y-66040046D01*
X119710049Y-66040045D01*
X119710050Y-66040045D01*
X119571963Y-65999500D01*
X119571961Y-65999500D01*
X119428039Y-65999500D01*
X119428036Y-65999500D01*
X119289949Y-66040045D01*
X119168873Y-66117856D01*
X119074623Y-66226626D01*
X119074622Y-66226628D01*
X119014834Y-66357543D01*
X118994353Y-66500000D01*
X110275628Y-66500000D01*
X109640791Y-66096013D01*
X109640786Y-66096010D01*
X109640785Y-66096010D01*
X109587918Y-66072080D01*
X109587911Y-66072078D01*
X109521343Y-66052694D01*
X109463897Y-66044500D01*
X109463891Y-66044500D01*
X106124000Y-66044500D01*
X106123992Y-66044500D01*
X106080313Y-66049197D01*
X106028825Y-66060397D01*
X106018627Y-66062890D01*
X106018624Y-66062891D01*
X105937916Y-66105899D01*
X105937913Y-66105901D01*
X105885104Y-66151660D01*
X105867160Y-66169242D01*
X105867154Y-66169249D01*
X105822511Y-66249059D01*
X105822509Y-66249064D01*
X105802826Y-66316096D01*
X105802825Y-66316101D01*
X105802825Y-66316102D01*
X105796867Y-66357543D01*
X105794500Y-66374003D01*
X105794500Y-67876007D01*
X105799197Y-67919686D01*
X105810397Y-67971174D01*
X105812016Y-67977795D01*
X105812890Y-67981373D01*
X105855900Y-68062085D01*
X105858050Y-68064566D01*
X105901660Y-68114895D01*
X105919242Y-68132839D01*
X105919246Y-68132843D01*
X105919247Y-68132844D01*
X105919249Y-68132845D01*
X105999059Y-68177488D01*
X105999063Y-68177490D01*
X106066102Y-68197175D01*
X106124000Y-68205500D01*
X109863518Y-68205500D01*
X109930557Y-68225185D01*
X109951199Y-68241819D01*
X110758181Y-69048801D01*
X110791666Y-69110124D01*
X110794500Y-69136482D01*
X110794500Y-72113517D01*
X110774815Y-72180556D01*
X110758181Y-72201198D01*
X110690790Y-72268589D01*
X110629467Y-72302074D01*
X110559775Y-72297090D01*
X110503842Y-72255218D01*
X110479425Y-72189754D01*
X110484134Y-72145965D01*
X110485160Y-72142467D01*
X110485165Y-72142457D01*
X110505647Y-72000000D01*
X110485165Y-71857543D01*
X110425377Y-71726627D01*
X110331128Y-71617857D01*
X110331125Y-71617855D01*
X110331125Y-71617854D01*
X110310058Y-71604316D01*
X110264302Y-71551513D01*
X110254358Y-71482354D01*
X110283382Y-71418798D01*
X110310058Y-71395684D01*
X110331125Y-71382145D01*
X110331125Y-71382144D01*
X110331128Y-71382143D01*
X110425377Y-71273373D01*
X110485165Y-71142457D01*
X110505647Y-71000000D01*
X110485165Y-70857543D01*
X110425377Y-70726627D01*
X110331128Y-70617857D01*
X110331125Y-70617855D01*
X110331125Y-70617854D01*
X110310058Y-70604316D01*
X110264302Y-70551513D01*
X110254358Y-70482354D01*
X110283382Y-70418798D01*
X110310058Y-70395684D01*
X110331125Y-70382145D01*
X110331125Y-70382144D01*
X110331128Y-70382143D01*
X110425377Y-70273373D01*
X110485165Y-70142457D01*
X110505647Y-70000000D01*
X110485165Y-69857543D01*
X110425377Y-69726627D01*
X110331128Y-69617857D01*
X110210053Y-69540047D01*
X110210051Y-69540046D01*
X110210049Y-69540045D01*
X110210050Y-69540045D01*
X110071963Y-69499500D01*
X110071961Y-69499500D01*
X109928039Y-69499500D01*
X109928036Y-69499500D01*
X109789949Y-69540045D01*
X109668873Y-69617856D01*
X109593713Y-69704596D01*
X109534935Y-69742370D01*
X109465065Y-69742370D01*
X109406287Y-69704596D01*
X109331128Y-69617857D01*
X109210053Y-69540047D01*
X109210051Y-69540046D01*
X109210049Y-69540045D01*
X109210050Y-69540045D01*
X109071963Y-69499500D01*
X109071961Y-69499500D01*
X108928039Y-69499500D01*
X108928036Y-69499500D01*
X108789949Y-69540045D01*
X108668873Y-69617856D01*
X108593713Y-69704596D01*
X108534935Y-69742370D01*
X108465065Y-69742370D01*
X108406287Y-69704596D01*
X108331128Y-69617857D01*
X108210053Y-69540047D01*
X108210051Y-69540046D01*
X108210049Y-69540045D01*
X108210050Y-69540045D01*
X108071963Y-69499500D01*
X108071961Y-69499500D01*
X107928039Y-69499500D01*
X107928036Y-69499500D01*
X107789949Y-69540045D01*
X107668873Y-69617856D01*
X107574623Y-69726626D01*
X107574622Y-69726628D01*
X107514834Y-69857543D01*
X107494353Y-70000000D01*
X107514834Y-70142456D01*
X107574622Y-70273371D01*
X107574623Y-70273373D01*
X107668872Y-70382143D01*
X107676324Y-70386932D01*
X107689943Y-70395685D01*
X107735698Y-70448489D01*
X107745641Y-70517648D01*
X107716615Y-70581203D01*
X107689943Y-70604315D01*
X107668874Y-70617855D01*
X107574623Y-70726626D01*
X107574622Y-70726628D01*
X107514834Y-70857543D01*
X107494353Y-71000000D01*
X107514834Y-71142456D01*
X107564086Y-71250301D01*
X107574623Y-71273373D01*
X107668872Y-71382143D01*
X107676324Y-71386932D01*
X107689943Y-71395685D01*
X107735698Y-71448489D01*
X107745641Y-71517648D01*
X107716615Y-71581203D01*
X107689943Y-71604315D01*
X107668874Y-71617855D01*
X107668872Y-71617856D01*
X107668872Y-71617857D01*
X107650118Y-71639500D01*
X107574623Y-71726626D01*
X107574622Y-71726628D01*
X107514834Y-71857543D01*
X107500129Y-71959822D01*
X107471104Y-72023377D01*
X107412325Y-72061151D01*
X107342456Y-72061151D01*
X107313593Y-72048503D01*
X106265702Y-71419768D01*
X106218344Y-71368397D01*
X106205500Y-71313439D01*
X106205500Y-70124008D01*
X106205499Y-70123992D01*
X106200803Y-70080316D01*
X106191875Y-70039276D01*
X106189602Y-70028825D01*
X106189348Y-70027789D01*
X106187110Y-70018627D01*
X106144100Y-69937915D01*
X106098345Y-69885111D01*
X106098339Y-69885104D01*
X106080757Y-69867160D01*
X106080756Y-69867159D01*
X106080754Y-69867157D01*
X106080752Y-69867156D01*
X106080750Y-69867154D01*
X106000940Y-69822511D01*
X106000935Y-69822509D01*
X105933903Y-69802826D01*
X105933899Y-69802825D01*
X105933898Y-69802825D01*
X105876000Y-69794500D01*
X104124000Y-69794500D01*
X104123992Y-69794500D01*
X104080313Y-69799197D01*
X104028825Y-69810397D01*
X104018627Y-69812890D01*
X104018624Y-69812891D01*
X103937916Y-69855899D01*
X103937913Y-69855901D01*
X103885104Y-69901660D01*
X103867160Y-69919242D01*
X103867154Y-69919249D01*
X103822511Y-69999059D01*
X103822509Y-69999064D01*
X103802826Y-70066096D01*
X103802825Y-70066101D01*
X103802825Y-70066102D01*
X103794502Y-70123992D01*
X103794500Y-70124003D01*
X103794500Y-70175623D01*
X103774815Y-70242662D01*
X103722011Y-70288417D01*
X103652853Y-70298361D01*
X103640542Y-70296590D01*
X103626000Y-70294500D01*
X101624000Y-70294500D01*
X101623992Y-70294500D01*
X101580313Y-70299197D01*
X101528825Y-70310397D01*
X101518627Y-70312890D01*
X101518624Y-70312891D01*
X101437916Y-70355899D01*
X101437913Y-70355901D01*
X101385104Y-70401660D01*
X101367160Y-70419242D01*
X101367154Y-70419249D01*
X101322511Y-70499059D01*
X101322509Y-70499064D01*
X101302826Y-70566096D01*
X101302825Y-70566101D01*
X101302825Y-70566102D01*
X101295384Y-70617857D01*
X101294500Y-70624003D01*
X95871486Y-70624003D01*
X95877685Y-70616450D01*
X95975232Y-70433954D01*
X96035300Y-70235934D01*
X96055583Y-70030000D01*
X96035300Y-69824066D01*
X95975232Y-69626046D01*
X95877685Y-69443550D01*
X95788563Y-69334954D01*
X95746410Y-69283589D01*
X95586452Y-69152317D01*
X95586453Y-69152317D01*
X95586450Y-69152315D01*
X95403954Y-69054768D01*
X95205934Y-68994700D01*
X95205932Y-68994699D01*
X95205934Y-68994699D01*
X95000000Y-68974417D01*
X94794067Y-68994699D01*
X94596043Y-69054769D01*
X94492483Y-69110124D01*
X94413550Y-69152315D01*
X94413548Y-69152316D01*
X94413547Y-69152317D01*
X94253589Y-69283589D01*
X94122317Y-69443547D01*
X94122315Y-69443550D01*
X94113547Y-69459954D01*
X94024769Y-69626043D01*
X93964699Y-69824067D01*
X93944417Y-70030000D01*
X92500500Y-70030000D01*
X92500500Y-67490000D01*
X93944417Y-67490000D01*
X93964699Y-67695932D01*
X93983879Y-67759159D01*
X94024768Y-67893954D01*
X94122315Y-68076450D01*
X94122317Y-68076452D01*
X94253589Y-68236410D01*
X94350209Y-68315702D01*
X94413550Y-68367685D01*
X94596046Y-68465232D01*
X94794066Y-68525300D01*
X94794065Y-68525300D01*
X94812529Y-68527118D01*
X95000000Y-68545583D01*
X95205934Y-68525300D01*
X95403954Y-68465232D01*
X95586450Y-68367685D01*
X95746410Y-68236410D01*
X95877685Y-68076450D01*
X95975232Y-67893954D01*
X96035300Y-67695934D01*
X96055583Y-67490000D01*
X96035300Y-67284066D01*
X95975232Y-67086046D01*
X95877685Y-66903550D01*
X95782598Y-66787685D01*
X95746410Y-66743589D01*
X95586452Y-66612317D01*
X95586453Y-66612317D01*
X95586450Y-66612315D01*
X95403954Y-66514768D01*
X95205934Y-66454700D01*
X95205932Y-66454699D01*
X95205934Y-66454699D01*
X95000000Y-66434417D01*
X94794067Y-66454699D01*
X94596043Y-66514769D01*
X94485898Y-66573643D01*
X94413550Y-66612315D01*
X94413548Y-66612316D01*
X94413547Y-66612317D01*
X94253589Y-66743589D01*
X94122317Y-66903547D01*
X94024769Y-67086043D01*
X93964699Y-67284067D01*
X93944417Y-67490000D01*
X92500500Y-67490000D01*
X92500500Y-64299999D01*
X107994353Y-64299999D01*
X108014834Y-64442456D01*
X108041114Y-64499999D01*
X108074623Y-64573373D01*
X108168872Y-64682143D01*
X108289947Y-64759953D01*
X108289950Y-64759954D01*
X108289949Y-64759954D01*
X108397107Y-64791417D01*
X108419228Y-64797913D01*
X108428036Y-64800499D01*
X108428038Y-64800500D01*
X108428039Y-64800500D01*
X108571961Y-64800500D01*
X108580771Y-64797912D01*
X108647801Y-64797114D01*
X108660438Y-64800500D01*
X108739562Y-64800500D01*
X111564117Y-64800500D01*
X111631156Y-64820185D01*
X111651798Y-64836819D01*
X112049490Y-65234511D01*
X112105439Y-65290460D01*
X112105441Y-65290461D01*
X112105445Y-65290464D01*
X112162753Y-65323550D01*
X112173961Y-65330021D01*
X112250388Y-65350500D01*
X134108532Y-65350500D01*
X134175571Y-65370185D01*
X134196213Y-65386819D01*
X142770077Y-73960683D01*
X142803562Y-74022006D01*
X142798578Y-74091698D01*
X142756706Y-74147631D01*
X142740853Y-74157720D01*
X142713549Y-74172315D01*
X142553589Y-74303590D01*
X142479400Y-74393989D01*
X142421654Y-74433323D01*
X142351809Y-74435194D01*
X142292041Y-74399006D01*
X142276162Y-74377327D01*
X142240460Y-74315489D01*
X142184511Y-74259540D01*
X136914395Y-68989424D01*
X136880910Y-68928101D01*
X136879339Y-68884094D01*
X136880647Y-68875000D01*
X136860165Y-68732543D01*
X136800377Y-68601627D01*
X136706128Y-68492857D01*
X136585053Y-68415047D01*
X136585051Y-68415046D01*
X136585049Y-68415045D01*
X136585050Y-68415045D01*
X136446963Y-68374500D01*
X136446961Y-68374500D01*
X136303039Y-68374500D01*
X136303036Y-68374500D01*
X136164949Y-68415045D01*
X136043873Y-68492856D01*
X135949623Y-68601626D01*
X135949622Y-68601628D01*
X135889834Y-68732543D01*
X135869353Y-68875000D01*
X135889834Y-69017456D01*
X135946921Y-69142456D01*
X135949623Y-69148373D01*
X136043872Y-69257143D01*
X136164947Y-69334953D01*
X136164950Y-69334954D01*
X136164949Y-69334954D01*
X136272107Y-69366417D01*
X136300280Y-69374690D01*
X136303036Y-69375499D01*
X136303038Y-69375500D01*
X136399167Y-69375500D01*
X136466206Y-69395185D01*
X136486848Y-69411819D01*
X138607315Y-71532286D01*
X138640800Y-71593609D01*
X138635816Y-71663301D01*
X138593944Y-71719234D01*
X138586674Y-71724282D01*
X138518874Y-71767855D01*
X138518873Y-71767855D01*
X138483148Y-71809085D01*
X138424369Y-71846859D01*
X138354500Y-71846859D01*
X138295722Y-71809084D01*
X138276642Y-71779396D01*
X138275378Y-71776629D01*
X138275376Y-71776626D01*
X138264080Y-71763590D01*
X138181128Y-71667857D01*
X138060053Y-71590047D01*
X138060051Y-71590046D01*
X138060049Y-71590045D01*
X138060050Y-71590045D01*
X137921963Y-71549500D01*
X137921961Y-71549500D01*
X137778039Y-71549500D01*
X137778036Y-71549500D01*
X137639949Y-71590045D01*
X137518873Y-71667856D01*
X137424623Y-71776626D01*
X137424622Y-71776628D01*
X137364834Y-71907543D01*
X137344353Y-72050000D01*
X137364834Y-72192456D01*
X137405937Y-72282457D01*
X137424623Y-72323373D01*
X137518872Y-72432143D01*
X137639947Y-72509953D01*
X137639950Y-72509954D01*
X137639949Y-72509954D01*
X137778036Y-72550499D01*
X137778038Y-72550500D01*
X137778039Y-72550500D01*
X137921962Y-72550500D01*
X137921962Y-72550499D01*
X138045204Y-72514313D01*
X138060050Y-72509954D01*
X138060050Y-72509953D01*
X138060053Y-72509953D01*
X138181128Y-72432143D01*
X138216852Y-72390914D01*
X138275627Y-72353140D01*
X138345497Y-72353139D01*
X138404276Y-72390913D01*
X138423355Y-72420598D01*
X138424620Y-72423369D01*
X138424623Y-72423373D01*
X138518872Y-72532143D01*
X138639947Y-72609953D01*
X138639950Y-72609954D01*
X138639949Y-72609954D01*
X138743978Y-72640499D01*
X138766214Y-72647028D01*
X138778036Y-72650499D01*
X138778038Y-72650500D01*
X138778039Y-72650500D01*
X138921962Y-72650500D01*
X138921962Y-72650499D01*
X139060053Y-72609953D01*
X139181128Y-72532143D01*
X139275377Y-72423373D01*
X139275378Y-72423369D01*
X139279439Y-72417052D01*
X139332242Y-72371296D01*
X139401400Y-72361351D01*
X139464957Y-72390374D01*
X139471437Y-72396408D01*
X141663181Y-74588152D01*
X141696666Y-74649475D01*
X141699500Y-74675833D01*
X141699500Y-81409562D01*
X141713152Y-81460513D01*
X141719979Y-81485990D01*
X141733097Y-81508710D01*
X141749730Y-81537519D01*
X141749731Y-81537523D01*
X141759535Y-81554504D01*
X141759541Y-81554512D01*
X142310701Y-82105672D01*
X142344186Y-82166995D01*
X142339202Y-82236687D01*
X142332381Y-82251800D01*
X142324770Y-82266039D01*
X142264699Y-82464067D01*
X142244417Y-82670000D01*
X142264699Y-82875932D01*
X142283491Y-82937880D01*
X142324768Y-83073954D01*
X142422315Y-83256450D01*
X142422317Y-83256452D01*
X142553589Y-83416410D01*
X142650209Y-83495702D01*
X142713550Y-83547685D01*
X142896046Y-83645232D01*
X143094066Y-83705300D01*
X143094065Y-83705300D01*
X143112529Y-83707118D01*
X143300000Y-83725583D01*
X143505934Y-83705300D01*
X143703954Y-83645232D01*
X143886450Y-83547685D01*
X144046410Y-83416410D01*
X144177685Y-83256450D01*
X144275232Y-83073954D01*
X144335300Y-82875934D01*
X144355583Y-82670000D01*
X144335300Y-82464066D01*
X144275232Y-82266046D01*
X144177685Y-82083550D01*
X144125702Y-82020209D01*
X144046410Y-81923589D01*
X143886452Y-81792317D01*
X143886453Y-81792317D01*
X143886450Y-81792315D01*
X143703954Y-81694768D01*
X143505934Y-81634700D01*
X143505932Y-81634699D01*
X143505934Y-81634699D01*
X143300000Y-81614417D01*
X143094067Y-81634699D01*
X142896039Y-81694770D01*
X142881800Y-81702381D01*
X142813397Y-81716620D01*
X142748154Y-81691616D01*
X142735672Y-81680701D01*
X142336819Y-81281848D01*
X142303334Y-81220525D01*
X142300500Y-81194167D01*
X142300500Y-80914575D01*
X142320185Y-80847536D01*
X142372989Y-80801781D01*
X142442147Y-80791837D01*
X142505703Y-80820862D01*
X142520354Y-80835912D01*
X142553587Y-80876408D01*
X142600094Y-80914575D01*
X142713550Y-81007685D01*
X142896046Y-81105232D01*
X143094066Y-81165300D01*
X143094065Y-81165300D01*
X143112529Y-81167118D01*
X143300000Y-81185583D01*
X143505934Y-81165300D01*
X143703954Y-81105232D01*
X143886450Y-81007685D01*
X144046410Y-80876410D01*
X144177685Y-80716450D01*
X144275232Y-80533954D01*
X144335300Y-80335934D01*
X144355583Y-80130000D01*
X144335300Y-79924066D01*
X144275232Y-79726046D01*
X144177685Y-79543550D01*
X144111927Y-79463423D01*
X144046410Y-79383589D01*
X143886452Y-79252317D01*
X143886453Y-79252317D01*
X143886450Y-79252315D01*
X143703954Y-79154768D01*
X143505934Y-79094700D01*
X143505932Y-79094699D01*
X143505934Y-79094699D01*
X143300000Y-79074417D01*
X143094067Y-79094699D01*
X142918692Y-79147898D01*
X142896274Y-79154699D01*
X142896043Y-79154769D01*
X142785898Y-79213643D01*
X142713550Y-79252315D01*
X142713548Y-79252316D01*
X142713547Y-79252317D01*
X142553589Y-79383589D01*
X142520354Y-79424088D01*
X142462608Y-79463423D01*
X142392763Y-79465294D01*
X142332995Y-79429107D01*
X142302279Y-79366351D01*
X142300500Y-79345424D01*
X142300500Y-78374575D01*
X142320185Y-78307536D01*
X142372989Y-78261781D01*
X142442147Y-78251837D01*
X142505703Y-78280862D01*
X142520354Y-78295912D01*
X142553587Y-78336408D01*
X142600094Y-78374575D01*
X142713550Y-78467685D01*
X142896046Y-78565232D01*
X143094066Y-78625300D01*
X143094065Y-78625300D01*
X143112529Y-78627118D01*
X143300000Y-78645583D01*
X143505934Y-78625300D01*
X143703954Y-78565232D01*
X143886450Y-78467685D01*
X144046410Y-78336410D01*
X144177685Y-78176450D01*
X144275232Y-77993954D01*
X144335300Y-77795934D01*
X144355583Y-77590000D01*
X144335300Y-77384066D01*
X144275232Y-77186046D01*
X144177685Y-77003550D01*
X144104978Y-76914956D01*
X144046410Y-76843589D01*
X143897971Y-76721770D01*
X143886450Y-76712315D01*
X143703954Y-76614768D01*
X143505934Y-76554700D01*
X143505932Y-76554699D01*
X143505934Y-76554699D01*
X143300000Y-76534417D01*
X143094067Y-76554699D01*
X142946378Y-76599500D01*
X142908033Y-76611132D01*
X142896043Y-76614769D01*
X142785898Y-76673643D01*
X142713550Y-76712315D01*
X142713548Y-76712316D01*
X142713547Y-76712317D01*
X142553589Y-76843589D01*
X142520354Y-76884088D01*
X142462608Y-76923423D01*
X142392763Y-76925294D01*
X142332995Y-76889107D01*
X142302279Y-76826351D01*
X142300500Y-76805424D01*
X142300500Y-75834575D01*
X142320185Y-75767536D01*
X142372989Y-75721781D01*
X142442147Y-75711837D01*
X142505703Y-75740862D01*
X142520354Y-75755912D01*
X142553587Y-75796408D01*
X142600094Y-75834575D01*
X142713550Y-75927685D01*
X142896046Y-76025232D01*
X143094066Y-76085300D01*
X143094065Y-76085300D01*
X143112529Y-76087118D01*
X143300000Y-76105583D01*
X143505934Y-76085300D01*
X143703954Y-76025232D01*
X143886450Y-75927685D01*
X144046410Y-75796410D01*
X144177685Y-75636450D01*
X144275232Y-75453954D01*
X144335300Y-75255934D01*
X144355583Y-75050000D01*
X144335300Y-74844066D01*
X144275232Y-74646046D01*
X144177685Y-74463550D01*
X144120598Y-74393989D01*
X144046410Y-74303589D01*
X143886452Y-74172317D01*
X143886453Y-74172317D01*
X143886450Y-74172315D01*
X143703954Y-74074768D01*
X143671491Y-74064920D01*
X143613053Y-74026622D01*
X143587714Y-73978357D01*
X143580021Y-73949646D01*
X143580017Y-73949639D01*
X143540464Y-73881130D01*
X143540458Y-73881122D01*
X143417036Y-73757700D01*
X143383551Y-73696377D01*
X143388535Y-73626685D01*
X143430407Y-73570752D01*
X143492565Y-73546616D01*
X143505934Y-73545300D01*
X143703954Y-73485232D01*
X143886450Y-73387685D01*
X144046410Y-73256410D01*
X144177685Y-73096450D01*
X144275232Y-72913954D01*
X144335300Y-72715934D01*
X144355583Y-72510000D01*
X144335300Y-72304066D01*
X144275232Y-72106046D01*
X144177685Y-71923550D01*
X144102670Y-71832143D01*
X144046410Y-71763589D01*
X143886452Y-71632317D01*
X143886453Y-71632317D01*
X143886450Y-71632315D01*
X143703954Y-71534768D01*
X143505934Y-71474700D01*
X143505932Y-71474699D01*
X143505934Y-71474699D01*
X143300000Y-71454417D01*
X143094067Y-71474699D01*
X142918692Y-71527898D01*
X142896274Y-71534699D01*
X142896043Y-71534769D01*
X142792631Y-71590045D01*
X142713550Y-71632315D01*
X142713548Y-71632316D01*
X142713547Y-71632317D01*
X142553589Y-71763590D01*
X142475844Y-71858323D01*
X142418098Y-71897657D01*
X142348254Y-71899528D01*
X142292310Y-71867339D01*
X138005218Y-67580247D01*
X142199500Y-67580247D01*
X142199500Y-69319752D01*
X142211131Y-69378229D01*
X142211132Y-69378230D01*
X142255447Y-69444552D01*
X142321769Y-69488867D01*
X142321770Y-69488868D01*
X142380247Y-69500499D01*
X142380250Y-69500500D01*
X142380252Y-69500500D01*
X144119750Y-69500500D01*
X144119751Y-69500499D01*
X144134568Y-69497552D01*
X144178229Y-69488868D01*
X144178229Y-69488867D01*
X144178231Y-69488867D01*
X144244552Y-69444552D01*
X144288867Y-69378231D01*
X144288867Y-69378229D01*
X144288868Y-69378229D01*
X144300499Y-69319752D01*
X144300500Y-69319750D01*
X144300500Y-67580249D01*
X144300499Y-67580247D01*
X144288868Y-67521770D01*
X144288867Y-67521769D01*
X144244552Y-67455447D01*
X144178230Y-67411132D01*
X144178229Y-67411131D01*
X144119752Y-67399500D01*
X144119748Y-67399500D01*
X142380252Y-67399500D01*
X142380247Y-67399500D01*
X142321770Y-67411131D01*
X142321769Y-67411132D01*
X142255447Y-67455447D01*
X142211132Y-67521769D01*
X142211131Y-67521770D01*
X142199500Y-67580247D01*
X138005218Y-67580247D01*
X136334971Y-65910000D01*
X142194417Y-65910000D01*
X142214699Y-66115932D01*
X142230872Y-66169246D01*
X142274768Y-66313954D01*
X142372315Y-66496450D01*
X142387348Y-66514768D01*
X142503589Y-66656410D01*
X142600209Y-66735702D01*
X142663550Y-66787685D01*
X142846046Y-66885232D01*
X143044066Y-66945300D01*
X143044065Y-66945300D01*
X143062529Y-66947118D01*
X143250000Y-66965583D01*
X143455934Y-66945300D01*
X143653954Y-66885232D01*
X143836450Y-66787685D01*
X143996410Y-66656410D01*
X144127685Y-66496450D01*
X144225232Y-66313954D01*
X144285300Y-66115934D01*
X144305583Y-65910000D01*
X144285300Y-65704066D01*
X144225232Y-65506046D01*
X144127685Y-65323550D01*
X144054613Y-65234511D01*
X143996410Y-65163589D01*
X143836452Y-65032317D01*
X143836453Y-65032317D01*
X143836450Y-65032315D01*
X143653954Y-64934768D01*
X143455934Y-64874700D01*
X143455932Y-64874699D01*
X143455934Y-64874699D01*
X143250000Y-64854417D01*
X143044067Y-64874699D01*
X142846043Y-64934769D01*
X142735898Y-64993643D01*
X142663550Y-65032315D01*
X142663548Y-65032316D01*
X142663547Y-65032317D01*
X142503589Y-65163589D01*
X142372317Y-65323547D01*
X142372315Y-65323550D01*
X142357910Y-65350500D01*
X142274769Y-65506043D01*
X142214699Y-65704067D01*
X142194417Y-65910000D01*
X136334971Y-65910000D01*
X134734512Y-64309541D01*
X134734507Y-64309537D01*
X134717987Y-64299999D01*
X134717985Y-64299999D01*
X134688915Y-64283215D01*
X134665990Y-64269979D01*
X134640513Y-64263152D01*
X134589562Y-64249500D01*
X134589560Y-64249500D01*
X131751826Y-64249500D01*
X131684787Y-64229815D01*
X131658113Y-64206703D01*
X131634814Y-64179815D01*
X131581128Y-64117857D01*
X131460053Y-64040047D01*
X131460051Y-64040046D01*
X131460049Y-64040045D01*
X131460050Y-64040045D01*
X131321963Y-63999500D01*
X131321961Y-63999500D01*
X131178039Y-63999500D01*
X131178036Y-63999500D01*
X131039949Y-64040045D01*
X130918873Y-64117856D01*
X130824623Y-64226626D01*
X130824622Y-64226628D01*
X130764834Y-64357543D01*
X130755052Y-64425583D01*
X130744353Y-64500000D01*
X130754902Y-64573373D01*
X130759860Y-64607853D01*
X130749916Y-64677011D01*
X130704161Y-64729815D01*
X130637122Y-64749500D01*
X112465783Y-64749500D01*
X112398744Y-64729815D01*
X112378102Y-64713181D01*
X111924462Y-64259541D01*
X111924461Y-64259540D01*
X111903927Y-64247685D01*
X111903927Y-64247683D01*
X111903924Y-64247683D01*
X111855944Y-64219981D01*
X111855941Y-64219979D01*
X111806393Y-64206703D01*
X111779512Y-64199500D01*
X111779510Y-64199500D01*
X109755538Y-64199500D01*
X109688499Y-64179815D01*
X109642744Y-64127011D01*
X109632800Y-64057853D01*
X109661825Y-63994297D01*
X109704023Y-63962707D01*
X109710047Y-63959954D01*
X109710053Y-63959953D01*
X109831128Y-63882143D01*
X109925377Y-63773373D01*
X109985165Y-63642457D01*
X110005647Y-63500000D01*
X109985165Y-63357543D01*
X109925377Y-63226627D01*
X109831128Y-63117857D01*
X109710053Y-63040047D01*
X109710051Y-63040046D01*
X109710049Y-63040045D01*
X109710050Y-63040045D01*
X109571963Y-62999500D01*
X109571961Y-62999500D01*
X109428039Y-62999500D01*
X109428036Y-62999500D01*
X109289949Y-63040045D01*
X109168873Y-63117856D01*
X109074623Y-63226626D01*
X109074622Y-63226628D01*
X109014834Y-63357543D01*
X108994353Y-63500000D01*
X109014834Y-63642456D01*
X109033520Y-63683371D01*
X109074623Y-63773373D01*
X109168872Y-63882143D01*
X109289947Y-63959953D01*
X109289949Y-63959953D01*
X109295977Y-63962707D01*
X109348779Y-64008464D01*
X109368462Y-64075504D01*
X109348776Y-64142542D01*
X109295970Y-64188296D01*
X109244462Y-64199500D01*
X109084016Y-64199500D01*
X109016977Y-64179815D01*
X108971222Y-64127012D01*
X108957462Y-64096883D01*
X108925377Y-64026627D01*
X108831128Y-63917857D01*
X108710053Y-63840047D01*
X108710051Y-63840046D01*
X108710049Y-63840045D01*
X108710050Y-63840045D01*
X108571963Y-63799500D01*
X108571961Y-63799500D01*
X108428039Y-63799500D01*
X108428036Y-63799500D01*
X108289949Y-63840045D01*
X108168873Y-63917856D01*
X108074623Y-64026626D01*
X108074622Y-64026628D01*
X108014834Y-64157543D01*
X107994353Y-64299999D01*
X92500500Y-64299999D01*
X92500500Y-62410000D01*
X93944417Y-62410000D01*
X93964699Y-62615932D01*
X93964700Y-62615934D01*
X94024768Y-62813954D01*
X94122315Y-62996450D01*
X94122317Y-62996452D01*
X94253589Y-63156410D01*
X94335183Y-63223371D01*
X94413550Y-63287685D01*
X94596046Y-63385232D01*
X94794066Y-63445300D01*
X94794065Y-63445300D01*
X94812529Y-63447118D01*
X95000000Y-63465583D01*
X95205934Y-63445300D01*
X95403954Y-63385232D01*
X95586450Y-63287685D01*
X95746410Y-63156410D01*
X95877685Y-62996450D01*
X95902513Y-62950000D01*
X110988113Y-62950000D01*
X111008594Y-63092456D01*
X111068382Y-63223371D01*
X111068383Y-63223373D01*
X111162632Y-63332143D01*
X111283707Y-63409953D01*
X111283710Y-63409954D01*
X111283709Y-63409954D01*
X111421796Y-63450499D01*
X111421798Y-63450500D01*
X111421799Y-63450500D01*
X111565722Y-63450500D01*
X111565722Y-63450499D01*
X111703653Y-63410000D01*
X131694353Y-63410000D01*
X131714834Y-63552456D01*
X131755937Y-63642457D01*
X131774623Y-63683373D01*
X131868872Y-63792143D01*
X131989947Y-63869953D01*
X131989950Y-63869954D01*
X131989949Y-63869954D01*
X132128036Y-63910499D01*
X132128038Y-63910500D01*
X132128039Y-63910500D01*
X132271962Y-63910500D01*
X132271962Y-63910499D01*
X132410053Y-63869953D01*
X132531128Y-63792143D01*
X132625377Y-63683373D01*
X132685165Y-63552457D01*
X132705647Y-63410000D01*
X132699896Y-63370000D01*
X142194417Y-63370000D01*
X142214699Y-63575932D01*
X142214700Y-63575934D01*
X142274768Y-63773954D01*
X142372315Y-63956450D01*
X142372317Y-63956452D01*
X142503589Y-64116410D01*
X142591184Y-64188296D01*
X142663550Y-64247685D01*
X142846046Y-64345232D01*
X143044066Y-64405300D01*
X143044065Y-64405300D01*
X143062529Y-64407118D01*
X143250000Y-64425583D01*
X143455934Y-64405300D01*
X143653954Y-64345232D01*
X143836450Y-64247685D01*
X143996410Y-64116410D01*
X144127685Y-63956450D01*
X144225232Y-63773954D01*
X144285300Y-63575934D01*
X144305583Y-63370000D01*
X144285300Y-63164066D01*
X144225232Y-62966046D01*
X144127685Y-62783550D01*
X144039936Y-62676627D01*
X143996410Y-62623589D01*
X143845205Y-62499500D01*
X143836450Y-62492315D01*
X143653954Y-62394768D01*
X143455934Y-62334700D01*
X143455932Y-62334699D01*
X143455934Y-62334699D01*
X143250000Y-62314417D01*
X143044067Y-62334699D01*
X142846043Y-62394769D01*
X142735898Y-62453643D01*
X142663550Y-62492315D01*
X142663548Y-62492316D01*
X142663547Y-62492317D01*
X142503589Y-62623589D01*
X142372317Y-62783547D01*
X142372315Y-62783550D01*
X142356064Y-62813954D01*
X142274769Y-62966043D01*
X142214699Y-63164067D01*
X142194417Y-63370000D01*
X132699896Y-63370000D01*
X132685165Y-63267543D01*
X132625377Y-63136627D01*
X132531128Y-63027857D01*
X132410053Y-62950047D01*
X132410051Y-62950046D01*
X132410049Y-62950045D01*
X132410050Y-62950045D01*
X132271963Y-62909500D01*
X132271961Y-62909500D01*
X132128039Y-62909500D01*
X132128036Y-62909500D01*
X131989949Y-62950045D01*
X131868873Y-63027856D01*
X131774623Y-63136626D01*
X131774622Y-63136628D01*
X131714834Y-63267543D01*
X131694353Y-63410000D01*
X111703653Y-63410000D01*
X111703813Y-63409953D01*
X111824888Y-63332143D01*
X111919137Y-63223373D01*
X111978925Y-63092457D01*
X111999407Y-62950000D01*
X111978925Y-62807543D01*
X111975480Y-62800000D01*
X132924353Y-62800000D01*
X132944834Y-62942456D01*
X132969493Y-62996450D01*
X133004623Y-63073373D01*
X133098872Y-63182143D01*
X133219947Y-63259953D01*
X133219950Y-63259954D01*
X133219949Y-63259954D01*
X133358036Y-63300499D01*
X133358038Y-63300500D01*
X133358039Y-63300500D01*
X133501962Y-63300500D01*
X133501962Y-63300499D01*
X133640053Y-63259953D01*
X133761128Y-63182143D01*
X133794788Y-63143296D01*
X133853567Y-63105523D01*
X133888501Y-63100500D01*
X136239560Y-63100500D01*
X136239562Y-63100500D01*
X136315989Y-63080021D01*
X136384511Y-63040460D01*
X136440460Y-62984511D01*
X138594970Y-60830000D01*
X142194417Y-60830000D01*
X142214699Y-61035932D01*
X142214700Y-61035934D01*
X142274768Y-61233954D01*
X142372315Y-61416450D01*
X142372317Y-61416452D01*
X142503589Y-61576410D01*
X142600209Y-61655702D01*
X142663550Y-61707685D01*
X142846046Y-61805232D01*
X143044066Y-61865300D01*
X143044065Y-61865300D01*
X143062529Y-61867118D01*
X143250000Y-61885583D01*
X143455934Y-61865300D01*
X143653954Y-61805232D01*
X143836450Y-61707685D01*
X143996410Y-61576410D01*
X144127685Y-61416450D01*
X144225232Y-61233954D01*
X144285300Y-61035934D01*
X144305583Y-60830000D01*
X144285300Y-60624066D01*
X144225232Y-60426046D01*
X144127685Y-60243550D01*
X144075702Y-60180209D01*
X143996410Y-60083589D01*
X143836452Y-59952317D01*
X143836453Y-59952317D01*
X143836450Y-59952315D01*
X143653954Y-59854768D01*
X143455934Y-59794700D01*
X143455932Y-59794699D01*
X143455934Y-59794699D01*
X143250000Y-59774417D01*
X143044067Y-59794699D01*
X142846043Y-59854769D01*
X142735898Y-59913643D01*
X142663550Y-59952315D01*
X142663548Y-59952316D01*
X142663547Y-59952317D01*
X142503589Y-60083589D01*
X142372317Y-60243547D01*
X142274769Y-60426043D01*
X142214699Y-60624067D01*
X142194417Y-60830000D01*
X138594970Y-60830000D01*
X141134969Y-58290000D01*
X142194417Y-58290000D01*
X142214699Y-58495932D01*
X142214700Y-58495934D01*
X142274768Y-58693954D01*
X142372315Y-58876450D01*
X142372317Y-58876452D01*
X142503589Y-59036410D01*
X142546613Y-59071718D01*
X142663550Y-59167685D01*
X142846046Y-59265232D01*
X143044066Y-59325300D01*
X143044065Y-59325300D01*
X143062529Y-59327118D01*
X143250000Y-59345583D01*
X143455934Y-59325300D01*
X143653954Y-59265232D01*
X143836450Y-59167685D01*
X143996410Y-59036410D01*
X144127685Y-58876450D01*
X144225232Y-58693954D01*
X144285300Y-58495934D01*
X144305583Y-58290000D01*
X144285300Y-58084066D01*
X144225232Y-57886046D01*
X144127685Y-57703550D01*
X144075702Y-57640209D01*
X143996410Y-57543589D01*
X143836452Y-57412317D01*
X143836453Y-57412317D01*
X143836450Y-57412315D01*
X143653954Y-57314768D01*
X143455934Y-57254700D01*
X143455932Y-57254699D01*
X143455934Y-57254699D01*
X143250000Y-57234417D01*
X143044067Y-57254699D01*
X142846043Y-57314769D01*
X142735898Y-57373643D01*
X142663550Y-57412315D01*
X142663548Y-57412316D01*
X142663547Y-57412317D01*
X142503589Y-57543589D01*
X142372317Y-57703547D01*
X142274769Y-57886043D01*
X142214699Y-58084067D01*
X142194417Y-58290000D01*
X141134969Y-58290000D01*
X142685673Y-56739296D01*
X142746994Y-56705813D01*
X142816686Y-56710797D01*
X142831804Y-56717620D01*
X142840493Y-56722264D01*
X142846046Y-56725232D01*
X143044066Y-56785300D01*
X143044065Y-56785300D01*
X143062529Y-56787118D01*
X143250000Y-56805583D01*
X143455934Y-56785300D01*
X143653954Y-56725232D01*
X143836450Y-56627685D01*
X143996410Y-56496410D01*
X144127685Y-56336450D01*
X144225232Y-56153954D01*
X144285300Y-55955934D01*
X144305583Y-55750000D01*
X144285300Y-55544066D01*
X144225232Y-55346046D01*
X144127685Y-55163550D01*
X144075702Y-55100209D01*
X143996410Y-55003589D01*
X143836452Y-54872317D01*
X143836453Y-54872317D01*
X143836450Y-54872315D01*
X143653954Y-54774768D01*
X143455934Y-54714700D01*
X143455932Y-54714699D01*
X143455934Y-54714699D01*
X143250000Y-54694417D01*
X143044067Y-54714699D01*
X142846043Y-54774769D01*
X142735898Y-54833643D01*
X142663550Y-54872315D01*
X142663548Y-54872316D01*
X142663547Y-54872317D01*
X142503589Y-55003589D01*
X142372317Y-55163547D01*
X142274769Y-55346043D01*
X142214699Y-55544067D01*
X142194417Y-55750000D01*
X142214699Y-55955932D01*
X142274769Y-56153956D01*
X142282379Y-56168193D01*
X142296620Y-56236596D01*
X142271619Y-56301840D01*
X142260701Y-56314326D01*
X136111848Y-62463181D01*
X136050525Y-62496666D01*
X136024167Y-62499500D01*
X133888501Y-62499500D01*
X133821462Y-62479815D01*
X133794788Y-62456703D01*
X133761128Y-62417857D01*
X133640053Y-62340047D01*
X133640051Y-62340046D01*
X133640049Y-62340045D01*
X133640050Y-62340045D01*
X133501963Y-62299500D01*
X133501961Y-62299500D01*
X133358039Y-62299500D01*
X133358036Y-62299500D01*
X133219949Y-62340045D01*
X133098873Y-62417856D01*
X133004623Y-62526626D01*
X133004622Y-62526628D01*
X132944834Y-62657543D01*
X132924353Y-62800000D01*
X111975480Y-62800000D01*
X111919137Y-62676627D01*
X111824888Y-62567857D01*
X111703813Y-62490047D01*
X111703811Y-62490046D01*
X111703809Y-62490045D01*
X111703810Y-62490045D01*
X111565723Y-62449500D01*
X111565721Y-62449500D01*
X111421799Y-62449500D01*
X111421796Y-62449500D01*
X111283709Y-62490045D01*
X111162633Y-62567856D01*
X111068383Y-62676626D01*
X111068382Y-62676628D01*
X111008594Y-62807543D01*
X110988113Y-62950000D01*
X95902513Y-62950000D01*
X95975232Y-62813954D01*
X96035300Y-62615934D01*
X96055583Y-62410000D01*
X96035300Y-62204066D01*
X95975232Y-62006046D01*
X95877685Y-61823550D01*
X95782598Y-61707685D01*
X95746410Y-61663589D01*
X95586452Y-61532317D01*
X95586453Y-61532317D01*
X95586450Y-61532315D01*
X95403954Y-61434768D01*
X95205934Y-61374700D01*
X95205932Y-61374699D01*
X95205934Y-61374699D01*
X95000000Y-61354417D01*
X94794067Y-61374699D01*
X94596043Y-61434769D01*
X94485898Y-61493643D01*
X94413550Y-61532315D01*
X94413548Y-61532316D01*
X94413547Y-61532317D01*
X94253589Y-61663589D01*
X94122317Y-61823547D01*
X94024769Y-62006043D01*
X93964699Y-62204067D01*
X93944417Y-62410000D01*
X92500500Y-62410000D01*
X92500500Y-59870000D01*
X93944417Y-59870000D01*
X93964699Y-60075932D01*
X93964700Y-60075934D01*
X94024768Y-60273954D01*
X94122315Y-60456450D01*
X94122317Y-60456452D01*
X94253589Y-60616410D01*
X94350209Y-60695702D01*
X94413550Y-60747685D01*
X94596046Y-60845232D01*
X94794066Y-60905300D01*
X94794065Y-60905300D01*
X94812529Y-60907118D01*
X95000000Y-60925583D01*
X95205934Y-60905300D01*
X95403954Y-60845232D01*
X95586450Y-60747685D01*
X95746410Y-60616410D01*
X95877685Y-60456450D01*
X95975232Y-60273954D01*
X96035300Y-60075934D01*
X96055583Y-59870000D01*
X96035300Y-59664066D01*
X95985531Y-59499998D01*
X121394318Y-59499998D01*
X121394318Y-59500001D01*
X121414955Y-59656760D01*
X121414956Y-59656762D01*
X121475464Y-59802841D01*
X121571718Y-59928282D01*
X121697159Y-60024536D01*
X121843238Y-60085044D01*
X121921619Y-60095363D01*
X121999999Y-60105682D01*
X122000000Y-60105682D01*
X122000001Y-60105682D01*
X122052254Y-60098802D01*
X122156762Y-60085044D01*
X122302841Y-60024536D01*
X122428282Y-59928282D01*
X122524536Y-59802841D01*
X122585044Y-59656762D01*
X122605682Y-59500000D01*
X122601211Y-59466043D01*
X122585353Y-59345583D01*
X122585044Y-59343238D01*
X122524536Y-59197159D01*
X122428282Y-59071718D01*
X122302841Y-58975464D01*
X122156762Y-58914956D01*
X122156760Y-58914955D01*
X122000001Y-58894318D01*
X121999999Y-58894318D01*
X121843239Y-58914955D01*
X121843237Y-58914956D01*
X121697160Y-58975463D01*
X121571718Y-59071718D01*
X121475463Y-59197160D01*
X121414956Y-59343237D01*
X121414955Y-59343239D01*
X121394318Y-59499998D01*
X95985531Y-59499998D01*
X95975232Y-59466046D01*
X95877685Y-59283550D01*
X95782598Y-59167685D01*
X95746410Y-59123589D01*
X95586452Y-58992317D01*
X95586453Y-58992317D01*
X95586450Y-58992315D01*
X95403954Y-58894768D01*
X95205934Y-58834700D01*
X95205932Y-58834699D01*
X95205934Y-58834699D01*
X95000000Y-58814417D01*
X94794067Y-58834699D01*
X94656433Y-58876450D01*
X94597530Y-58894318D01*
X94596043Y-58894769D01*
X94485898Y-58953643D01*
X94413550Y-58992315D01*
X94413548Y-58992316D01*
X94413547Y-58992317D01*
X94253589Y-59123589D01*
X94122317Y-59283547D01*
X94024769Y-59466043D01*
X93964699Y-59664067D01*
X93944417Y-59870000D01*
X92500500Y-59870000D01*
X92500500Y-57330000D01*
X93944417Y-57330000D01*
X93964699Y-57535932D01*
X93964700Y-57535934D01*
X94024768Y-57733954D01*
X94122315Y-57916450D01*
X94122317Y-57916452D01*
X94253589Y-58076410D01*
X94350209Y-58155702D01*
X94413550Y-58207685D01*
X94596046Y-58305232D01*
X94794066Y-58365300D01*
X94794065Y-58365300D01*
X94812529Y-58367118D01*
X95000000Y-58385583D01*
X95205934Y-58365300D01*
X95403954Y-58305232D01*
X95586450Y-58207685D01*
X95746410Y-58076410D01*
X95877685Y-57916450D01*
X95975232Y-57733954D01*
X96035300Y-57535934D01*
X96055583Y-57330000D01*
X96035300Y-57124066D01*
X95975232Y-56926046D01*
X95877685Y-56743550D01*
X95782598Y-56627685D01*
X95746410Y-56583589D01*
X95586452Y-56452317D01*
X95586453Y-56452317D01*
X95586450Y-56452315D01*
X95403954Y-56354768D01*
X95205934Y-56294700D01*
X95205932Y-56294699D01*
X95205934Y-56294699D01*
X95000000Y-56274417D01*
X94794067Y-56294699D01*
X94596043Y-56354769D01*
X94485898Y-56413643D01*
X94413550Y-56452315D01*
X94413548Y-56452316D01*
X94413547Y-56452317D01*
X94253589Y-56583589D01*
X94122317Y-56743547D01*
X94024769Y-56926043D01*
X93964699Y-57124067D01*
X93944417Y-57330000D01*
X92500500Y-57330000D01*
X92500500Y-53920247D01*
X93949500Y-53920247D01*
X93949500Y-55659752D01*
X93961131Y-55718229D01*
X93961132Y-55718230D01*
X94005447Y-55784552D01*
X94071769Y-55828867D01*
X94071770Y-55828868D01*
X94130247Y-55840499D01*
X94130250Y-55840500D01*
X94130252Y-55840500D01*
X95869750Y-55840500D01*
X95869751Y-55840499D01*
X95884568Y-55837552D01*
X95928229Y-55828868D01*
X95928229Y-55828867D01*
X95928231Y-55828867D01*
X95994552Y-55784552D01*
X96038867Y-55718231D01*
X96038867Y-55718229D01*
X96038868Y-55718229D01*
X96050499Y-55659752D01*
X96050500Y-55659750D01*
X96050500Y-53920249D01*
X96050499Y-53920247D01*
X96038868Y-53861770D01*
X96038867Y-53861769D01*
X95994552Y-53795447D01*
X95928230Y-53751132D01*
X95928229Y-53751131D01*
X95869752Y-53739500D01*
X95869748Y-53739500D01*
X94130252Y-53739500D01*
X94130247Y-53739500D01*
X94071770Y-53751131D01*
X94071769Y-53751132D01*
X94005447Y-53795447D01*
X93961132Y-53861769D01*
X93961131Y-53861770D01*
X93949500Y-53920247D01*
X92500500Y-53920247D01*
X92500500Y-52049995D01*
X98604732Y-52049995D01*
X98604732Y-52050004D01*
X98623777Y-52304154D01*
X98660167Y-52463590D01*
X98680492Y-52552637D01*
X98773607Y-52789888D01*
X98901041Y-53010612D01*
X99059950Y-53209877D01*
X99246783Y-53383232D01*
X99457366Y-53526805D01*
X99457371Y-53526807D01*
X99457372Y-53526808D01*
X99457373Y-53526809D01*
X99546538Y-53569748D01*
X99686992Y-53637387D01*
X99686993Y-53637387D01*
X99686996Y-53637389D01*
X99930542Y-53712513D01*
X100182565Y-53750500D01*
X100437435Y-53750500D01*
X100689458Y-53712513D01*
X100933004Y-53637389D01*
X101162634Y-53526805D01*
X101373217Y-53383232D01*
X101560050Y-53209877D01*
X101718959Y-53010612D01*
X101846393Y-52789888D01*
X101939508Y-52552637D01*
X101996222Y-52304157D01*
X102007565Y-52152792D01*
X102015268Y-52050004D01*
X102015268Y-52049995D01*
X101999134Y-51834699D01*
X101996222Y-51795843D01*
X101939508Y-51547363D01*
X101846393Y-51310112D01*
X101718959Y-51089388D01*
X101560050Y-50890123D01*
X101373217Y-50716768D01*
X101162634Y-50573195D01*
X101162630Y-50573193D01*
X101162627Y-50573191D01*
X101162626Y-50573190D01*
X101073453Y-50530247D01*
X103689500Y-50530247D01*
X103689500Y-53569752D01*
X103701131Y-53628229D01*
X103701132Y-53628230D01*
X103745447Y-53694552D01*
X103811769Y-53738867D01*
X103811770Y-53738868D01*
X103870247Y-53750499D01*
X103870250Y-53750500D01*
X103870252Y-53750500D01*
X106909750Y-53750500D01*
X106909751Y-53750499D01*
X106924568Y-53747552D01*
X106968229Y-53738868D01*
X106968229Y-53738867D01*
X106968231Y-53738867D01*
X107034552Y-53694552D01*
X107078867Y-53628231D01*
X107078867Y-53628229D01*
X107078868Y-53628229D01*
X107090499Y-53569752D01*
X107090500Y-53569750D01*
X107090500Y-51846530D01*
X112949500Y-51846530D01*
X112949500Y-52353469D01*
X112989868Y-52556412D01*
X112989870Y-52556420D01*
X113069059Y-52747598D01*
X113126541Y-52833626D01*
X113184024Y-52919657D01*
X113330342Y-53065975D01*
X113330345Y-53065977D01*
X113502402Y-53180941D01*
X113693580Y-53260130D01*
X113882187Y-53297646D01*
X113896530Y-53300499D01*
X113896534Y-53300500D01*
X113896535Y-53300500D01*
X114103466Y-53300500D01*
X114103467Y-53300499D01*
X114306420Y-53260130D01*
X114497598Y-53180941D01*
X114669655Y-53065977D01*
X114815977Y-52919655D01*
X114930941Y-52747598D01*
X115010130Y-52556420D01*
X115050500Y-52353465D01*
X115050500Y-51846535D01*
X115010130Y-51643580D01*
X114930941Y-51452402D01*
X114826257Y-51295730D01*
X115449500Y-51295730D01*
X115449500Y-52904269D01*
X115452353Y-52934699D01*
X115452353Y-52934701D01*
X115497206Y-53062880D01*
X115497207Y-53062882D01*
X115577850Y-53172150D01*
X115687118Y-53252793D01*
X115708089Y-53260131D01*
X115815299Y-53297646D01*
X115845730Y-53300500D01*
X115845734Y-53300500D01*
X117154270Y-53300500D01*
X117184699Y-53297646D01*
X117184701Y-53297646D01*
X117248790Y-53275219D01*
X117312882Y-53252793D01*
X117370865Y-53210000D01*
X142194417Y-53210000D01*
X142214699Y-53415932D01*
X142214700Y-53415934D01*
X142274768Y-53613954D01*
X142372315Y-53796450D01*
X142372317Y-53796452D01*
X142503589Y-53956410D01*
X142600209Y-54035702D01*
X142663550Y-54087685D01*
X142846046Y-54185232D01*
X143044066Y-54245300D01*
X143044065Y-54245300D01*
X143062529Y-54247118D01*
X143250000Y-54265583D01*
X143455934Y-54245300D01*
X143653954Y-54185232D01*
X143836450Y-54087685D01*
X143996410Y-53956410D01*
X144127685Y-53796450D01*
X144225232Y-53613954D01*
X144285300Y-53415934D01*
X144305583Y-53210000D01*
X144285300Y-53004066D01*
X144225232Y-52806046D01*
X144127685Y-52623550D01*
X144069483Y-52552630D01*
X143996410Y-52463589D01*
X143862223Y-52353466D01*
X143836450Y-52332315D01*
X143653954Y-52234768D01*
X143455934Y-52174700D01*
X143455932Y-52174699D01*
X143455934Y-52174699D01*
X143250000Y-52154417D01*
X143044067Y-52174699D01*
X142846043Y-52234769D01*
X142735898Y-52293643D01*
X142663550Y-52332315D01*
X142663548Y-52332316D01*
X142663547Y-52332317D01*
X142503589Y-52463589D01*
X142372317Y-52623547D01*
X142274769Y-52806043D01*
X142214699Y-53004067D01*
X142194417Y-53210000D01*
X117370865Y-53210000D01*
X117422150Y-53172150D01*
X117502793Y-53062882D01*
X117525219Y-52998790D01*
X117547646Y-52934701D01*
X117547646Y-52934699D01*
X117550500Y-52904269D01*
X117550500Y-51295730D01*
X117547646Y-51265300D01*
X117547646Y-51265298D01*
X117502793Y-51137119D01*
X117502792Y-51137117D01*
X117422150Y-51027850D01*
X117312882Y-50947207D01*
X117312880Y-50947206D01*
X117184700Y-50902353D01*
X117154270Y-50899500D01*
X117154266Y-50899500D01*
X115845734Y-50899500D01*
X115845730Y-50899500D01*
X115815300Y-50902353D01*
X115815298Y-50902353D01*
X115687119Y-50947206D01*
X115687117Y-50947207D01*
X115577850Y-51027850D01*
X115497207Y-51137117D01*
X115497206Y-51137119D01*
X115452353Y-51265298D01*
X115452353Y-51265300D01*
X115449500Y-51295730D01*
X114826257Y-51295730D01*
X114815977Y-51280345D01*
X114815975Y-51280342D01*
X114669657Y-51134024D01*
X114579755Y-51073954D01*
X114497598Y-51019059D01*
X114306420Y-50939870D01*
X114306412Y-50939868D01*
X114103469Y-50899500D01*
X114103465Y-50899500D01*
X113896535Y-50899500D01*
X113896530Y-50899500D01*
X113693587Y-50939868D01*
X113693579Y-50939870D01*
X113502403Y-51019058D01*
X113330342Y-51134024D01*
X113184024Y-51280342D01*
X113069058Y-51452403D01*
X112989870Y-51643579D01*
X112989868Y-51643587D01*
X112949500Y-51846530D01*
X107090500Y-51846530D01*
X107090500Y-50530249D01*
X107090499Y-50530247D01*
X107078868Y-50471770D01*
X107078867Y-50471769D01*
X107034552Y-50405447D01*
X106968230Y-50361132D01*
X106968229Y-50361131D01*
X106909752Y-50349500D01*
X106909748Y-50349500D01*
X103870252Y-50349500D01*
X103870247Y-50349500D01*
X103811770Y-50361131D01*
X103811769Y-50361132D01*
X103745447Y-50405447D01*
X103701132Y-50471769D01*
X103701131Y-50471770D01*
X103689500Y-50530247D01*
X101073453Y-50530247D01*
X100933006Y-50462612D01*
X100933008Y-50462612D01*
X100689466Y-50387489D01*
X100689462Y-50387488D01*
X100689458Y-50387487D01*
X100568231Y-50369214D01*
X100437440Y-50349500D01*
X100437435Y-50349500D01*
X100182565Y-50349500D01*
X100182559Y-50349500D01*
X100025609Y-50373157D01*
X99930542Y-50387487D01*
X99930539Y-50387488D01*
X99930533Y-50387489D01*
X99686992Y-50462612D01*
X99457373Y-50573190D01*
X99457372Y-50573191D01*
X99246782Y-50716768D01*
X99059952Y-50890121D01*
X99059950Y-50890123D01*
X98901041Y-51089388D01*
X98773608Y-51310109D01*
X98680492Y-51547362D01*
X98680490Y-51547369D01*
X98623777Y-51795845D01*
X98604732Y-52049995D01*
X92500500Y-52049995D01*
X92500500Y-50195730D01*
X122949500Y-50195730D01*
X122949500Y-51804269D01*
X122952353Y-51834699D01*
X122952353Y-51834701D01*
X122997206Y-51962880D01*
X122997207Y-51962882D01*
X123077850Y-52072150D01*
X123187118Y-52152793D01*
X123208089Y-52160131D01*
X123315299Y-52197646D01*
X123345730Y-52200500D01*
X123345734Y-52200500D01*
X124654270Y-52200500D01*
X124684699Y-52197646D01*
X124684701Y-52197646D01*
X124750278Y-52174699D01*
X124812882Y-52152793D01*
X124922150Y-52072150D01*
X125002793Y-51962882D01*
X125025219Y-51898790D01*
X125047646Y-51834701D01*
X125047646Y-51834699D01*
X125050500Y-51804269D01*
X125050500Y-50746530D01*
X125449500Y-50746530D01*
X125449500Y-51253469D01*
X125489868Y-51456412D01*
X125489870Y-51456420D01*
X125569058Y-51647596D01*
X125684024Y-51819657D01*
X125830342Y-51965975D01*
X125830345Y-51965977D01*
X126002402Y-52080941D01*
X126193580Y-52160130D01*
X126382187Y-52197646D01*
X126396530Y-52200499D01*
X126396534Y-52200500D01*
X126396535Y-52200500D01*
X126603466Y-52200500D01*
X126603467Y-52200499D01*
X126806420Y-52160130D01*
X126997598Y-52080941D01*
X127169655Y-51965977D01*
X127315977Y-51819655D01*
X127430941Y-51647598D01*
X127510130Y-51456420D01*
X127550500Y-51253465D01*
X127550500Y-50746535D01*
X127510130Y-50543580D01*
X127430941Y-50352402D01*
X127326257Y-50195730D01*
X131949500Y-50195730D01*
X131949500Y-51804269D01*
X131952353Y-51834699D01*
X131952353Y-51834701D01*
X131997206Y-51962880D01*
X131997207Y-51962882D01*
X132077850Y-52072150D01*
X132187118Y-52152793D01*
X132208089Y-52160131D01*
X132315299Y-52197646D01*
X132345730Y-52200500D01*
X132345734Y-52200500D01*
X133654270Y-52200500D01*
X133684699Y-52197646D01*
X133684701Y-52197646D01*
X133750278Y-52174699D01*
X133812882Y-52152793D01*
X133922150Y-52072150D01*
X134002793Y-51962882D01*
X134025219Y-51898790D01*
X134047646Y-51834701D01*
X134047646Y-51834699D01*
X134050500Y-51804269D01*
X134050500Y-50746530D01*
X134449500Y-50746530D01*
X134449500Y-51253469D01*
X134489868Y-51456412D01*
X134489870Y-51456420D01*
X134569058Y-51647596D01*
X134684024Y-51819657D01*
X134830342Y-51965975D01*
X134830345Y-51965977D01*
X135002402Y-52080941D01*
X135193580Y-52160130D01*
X135382187Y-52197646D01*
X135396530Y-52200499D01*
X135396534Y-52200500D01*
X135396535Y-52200500D01*
X135603466Y-52200500D01*
X135603467Y-52200499D01*
X135806420Y-52160130D01*
X135997598Y-52080941D01*
X136169655Y-51965977D01*
X136315977Y-51819655D01*
X136430941Y-51647598D01*
X136510130Y-51456420D01*
X136550500Y-51253465D01*
X136550500Y-50746535D01*
X136535276Y-50670000D01*
X142194417Y-50670000D01*
X142214699Y-50875932D01*
X142236320Y-50947206D01*
X142274768Y-51073954D01*
X142372315Y-51256450D01*
X142379578Y-51265300D01*
X142503589Y-51416410D01*
X142600209Y-51495702D01*
X142663550Y-51547685D01*
X142846046Y-51645232D01*
X143044066Y-51705300D01*
X143044065Y-51705300D01*
X143062529Y-51707118D01*
X143250000Y-51725583D01*
X143455934Y-51705300D01*
X143653954Y-51645232D01*
X143836450Y-51547685D01*
X143996410Y-51416410D01*
X144127685Y-51256450D01*
X144225232Y-51073954D01*
X144285300Y-50875934D01*
X144305583Y-50670000D01*
X144285300Y-50464066D01*
X144225232Y-50266046D01*
X144127685Y-50083550D01*
X144075702Y-50020209D01*
X143996410Y-49923589D01*
X143878677Y-49826969D01*
X143836450Y-49792315D01*
X143653954Y-49694768D01*
X143455934Y-49634700D01*
X143455932Y-49634699D01*
X143455934Y-49634699D01*
X143250000Y-49614417D01*
X143044067Y-49634699D01*
X142846043Y-49694769D01*
X142735898Y-49753643D01*
X142663550Y-49792315D01*
X142663548Y-49792316D01*
X142663547Y-49792317D01*
X142503589Y-49923589D01*
X142372317Y-50083547D01*
X142274769Y-50266043D01*
X142214699Y-50464067D01*
X142194417Y-50670000D01*
X136535276Y-50670000D01*
X136510130Y-50543580D01*
X136430941Y-50352402D01*
X136315977Y-50180345D01*
X136315975Y-50180342D01*
X136169657Y-50034024D01*
X136083626Y-49976541D01*
X135997598Y-49919059D01*
X135806420Y-49839870D01*
X135806412Y-49839868D01*
X135603469Y-49799500D01*
X135603465Y-49799500D01*
X135396535Y-49799500D01*
X135396530Y-49799500D01*
X135193587Y-49839868D01*
X135193579Y-49839870D01*
X135002403Y-49919058D01*
X134830342Y-50034024D01*
X134684024Y-50180342D01*
X134569058Y-50352403D01*
X134489870Y-50543579D01*
X134489868Y-50543587D01*
X134449500Y-50746530D01*
X134050500Y-50746530D01*
X134050500Y-50195730D01*
X134047646Y-50165300D01*
X134047646Y-50165298D01*
X134002793Y-50037119D01*
X134002792Y-50037117D01*
X133922150Y-49927850D01*
X133812882Y-49847207D01*
X133812880Y-49847206D01*
X133684700Y-49802353D01*
X133654270Y-49799500D01*
X133654266Y-49799500D01*
X132345734Y-49799500D01*
X132345730Y-49799500D01*
X132315300Y-49802353D01*
X132315298Y-49802353D01*
X132187119Y-49847206D01*
X132187117Y-49847207D01*
X132077850Y-49927850D01*
X131997207Y-50037117D01*
X131997206Y-50037119D01*
X131952353Y-50165298D01*
X131952353Y-50165300D01*
X131949500Y-50195730D01*
X127326257Y-50195730D01*
X127315977Y-50180345D01*
X127315975Y-50180342D01*
X127169657Y-50034024D01*
X127083626Y-49976541D01*
X126997598Y-49919059D01*
X126806420Y-49839870D01*
X126806412Y-49839868D01*
X126603469Y-49799500D01*
X126603465Y-49799500D01*
X126396535Y-49799500D01*
X126396530Y-49799500D01*
X126193587Y-49839868D01*
X126193579Y-49839870D01*
X126002403Y-49919058D01*
X125830342Y-50034024D01*
X125684024Y-50180342D01*
X125569058Y-50352403D01*
X125489870Y-50543579D01*
X125489868Y-50543587D01*
X125449500Y-50746530D01*
X125050500Y-50746530D01*
X125050500Y-50195730D01*
X125047646Y-50165300D01*
X125047646Y-50165298D01*
X125002793Y-50037119D01*
X125002792Y-50037117D01*
X124922150Y-49927850D01*
X124812882Y-49847207D01*
X124812880Y-49847206D01*
X124684700Y-49802353D01*
X124654270Y-49799500D01*
X124654266Y-49799500D01*
X123345734Y-49799500D01*
X123345730Y-49799500D01*
X123315300Y-49802353D01*
X123315298Y-49802353D01*
X123187119Y-49847206D01*
X123187117Y-49847207D01*
X123077850Y-49927850D01*
X122997207Y-50037117D01*
X122997206Y-50037119D01*
X122952353Y-50165298D01*
X122952353Y-50165300D01*
X122949500Y-50195730D01*
X92500500Y-50195730D01*
X92500500Y-48130000D01*
X142194417Y-48130000D01*
X142214699Y-48335932D01*
X142214700Y-48335934D01*
X142274768Y-48533954D01*
X142372315Y-48716450D01*
X142372317Y-48716452D01*
X142503589Y-48876410D01*
X142600209Y-48955702D01*
X142663550Y-49007685D01*
X142846046Y-49105232D01*
X143044066Y-49165300D01*
X143044065Y-49165300D01*
X143062529Y-49167118D01*
X143250000Y-49185583D01*
X143455934Y-49165300D01*
X143653954Y-49105232D01*
X143836450Y-49007685D01*
X143996410Y-48876410D01*
X144127685Y-48716450D01*
X144225232Y-48533954D01*
X144285300Y-48335934D01*
X144305583Y-48130000D01*
X144285300Y-47924066D01*
X144225232Y-47726046D01*
X144127685Y-47543550D01*
X144017661Y-47409484D01*
X143996410Y-47383589D01*
X143836452Y-47252317D01*
X143836453Y-47252317D01*
X143836450Y-47252315D01*
X143653954Y-47154768D01*
X143455934Y-47094700D01*
X143455932Y-47094699D01*
X143455934Y-47094699D01*
X143250000Y-47074417D01*
X143044067Y-47094699D01*
X142846043Y-47154769D01*
X142735898Y-47213643D01*
X142663550Y-47252315D01*
X142663548Y-47252316D01*
X142663547Y-47252317D01*
X142503589Y-47383589D01*
X142372317Y-47543547D01*
X142372315Y-47543550D01*
X142341050Y-47602042D01*
X142274769Y-47726043D01*
X142214699Y-47924067D01*
X142194417Y-48130000D01*
X92500500Y-48130000D01*
X92500500Y-48006961D01*
X92501280Y-47993077D01*
X92511459Y-47902731D01*
X92517635Y-47875670D01*
X92545353Y-47796456D01*
X92557396Y-47771450D01*
X92602046Y-47700389D01*
X92619351Y-47678690D01*
X92678690Y-47619351D01*
X92700389Y-47602046D01*
X92771450Y-47557396D01*
X92796456Y-47545353D01*
X92875670Y-47517635D01*
X92902733Y-47511459D01*
X92965419Y-47504396D01*
X92993079Y-47501280D01*
X93006962Y-47500500D01*
X133107315Y-47500500D01*
X133107318Y-47500500D01*
X133107320Y-47500499D01*
X133109887Y-47500316D01*
X133118735Y-47500000D01*
X134000000Y-47500000D01*
X134000000Y-47175570D01*
X134019685Y-47108531D01*
X134042796Y-47081858D01*
X134063724Y-47063724D01*
X134204281Y-46901513D01*
X134320321Y-46720950D01*
X134320323Y-46720944D01*
X134320327Y-46720938D01*
X134409482Y-46525715D01*
X134409482Y-46525713D01*
X134409484Y-46525710D01*
X134469954Y-46319769D01*
X134500500Y-46107318D01*
X134500500Y-46000000D01*
X134500500Y-45934108D01*
X134500500Y-45590000D01*
X142194417Y-45590000D01*
X142214699Y-45795932D01*
X142214700Y-45795934D01*
X142274768Y-45993954D01*
X142372315Y-46176450D01*
X142372317Y-46176452D01*
X142503589Y-46336410D01*
X142600209Y-46415702D01*
X142663550Y-46467685D01*
X142846046Y-46565232D01*
X143044066Y-46625300D01*
X143044065Y-46625300D01*
X143062529Y-46627118D01*
X143250000Y-46645583D01*
X143455934Y-46625300D01*
X143653954Y-46565232D01*
X143836450Y-46467685D01*
X143996410Y-46336410D01*
X144127685Y-46176450D01*
X144225232Y-45993954D01*
X144285300Y-45795934D01*
X144305583Y-45590000D01*
X144285300Y-45384066D01*
X144225232Y-45186046D01*
X144127685Y-45003550D01*
X144075702Y-44940209D01*
X143996410Y-44843589D01*
X143836452Y-44712317D01*
X143836453Y-44712317D01*
X143836450Y-44712315D01*
X143653954Y-44614768D01*
X143455934Y-44554700D01*
X143455932Y-44554699D01*
X143455934Y-44554699D01*
X143250000Y-44534417D01*
X143044067Y-44554699D01*
X142846043Y-44614769D01*
X142735898Y-44673643D01*
X142663550Y-44712315D01*
X142663548Y-44712316D01*
X142663547Y-44712317D01*
X142503589Y-44843589D01*
X142372317Y-45003547D01*
X142274769Y-45186043D01*
X142214699Y-45384067D01*
X142194417Y-45590000D01*
X134500500Y-45590000D01*
X134500500Y-44006961D01*
X134501280Y-43993077D01*
X134501280Y-43993076D01*
X134511459Y-43902731D01*
X134517635Y-43875670D01*
X134545353Y-43796456D01*
X134557396Y-43771450D01*
X134602046Y-43700389D01*
X134619351Y-43678690D01*
X134678690Y-43619351D01*
X134700389Y-43602046D01*
X134771450Y-43557396D01*
X134796456Y-43545353D01*
X134875670Y-43517635D01*
X134902733Y-43511459D01*
X134965419Y-43504396D01*
X134993079Y-43501280D01*
X135006962Y-43500500D01*
X135065892Y-43500500D01*
X144934108Y-43500500D01*
X144993038Y-43500500D01*
X145006922Y-43501280D01*
G37*
%TD.AperFunction*%
%TD*%
%TA.AperFunction,Conductor*%
%TO.N,RED2*%
G36*
X126693039Y-70519685D02*
G01*
X126738794Y-70572489D01*
X126750000Y-70624000D01*
X126750000Y-72500000D01*
X126808647Y-72558647D01*
X126829797Y-72586900D01*
X126855954Y-72634802D01*
X126855958Y-72634808D01*
X126890998Y-72681615D01*
X126891002Y-72681619D01*
X126891009Y-72681629D01*
X126891016Y-72681636D01*
X127318365Y-73108986D01*
X127318366Y-73108987D01*
X127334716Y-73123674D01*
X127334730Y-73123686D01*
X127334738Y-73123693D01*
X127355380Y-73140327D01*
X127411863Y-73169872D01*
X127442064Y-73192064D01*
X127463681Y-73213681D01*
X127497166Y-73275004D01*
X127500000Y-73301362D01*
X127500000Y-90876000D01*
X127480315Y-90943039D01*
X127427511Y-90988794D01*
X127376000Y-91000000D01*
X125624000Y-91000000D01*
X125556961Y-90980315D01*
X125511206Y-90927511D01*
X125500000Y-90876000D01*
X125500000Y-73500000D01*
X124536319Y-72536319D01*
X124502834Y-72474996D01*
X124500000Y-72448638D01*
X124500000Y-70624000D01*
X124519685Y-70556961D01*
X124572489Y-70511206D01*
X124624000Y-70500000D01*
X126626000Y-70500000D01*
X126693039Y-70519685D01*
G37*
%TD.AperFunction*%
%TD*%
%TA.AperFunction,Conductor*%
%TO.N,BLACK1*%
G36*
X105943039Y-70019685D02*
G01*
X105988794Y-70072489D01*
X106000000Y-70124000D01*
X106000000Y-71500000D01*
X108439468Y-72963681D01*
X109439797Y-73563878D01*
X109487156Y-73615249D01*
X109500000Y-73670207D01*
X109500000Y-90876000D01*
X109480315Y-90943039D01*
X109427511Y-90988794D01*
X109376000Y-91000000D01*
X107424000Y-91000000D01*
X107356961Y-90980315D01*
X107311206Y-90927511D01*
X107300000Y-90876000D01*
X107300000Y-73999999D01*
X106000001Y-73000000D01*
X106000000Y-73000000D01*
X104591982Y-73000000D01*
X104524943Y-72980315D01*
X104504301Y-72963681D01*
X104036319Y-72495699D01*
X104002834Y-72434376D01*
X104000000Y-72408018D01*
X104000000Y-70124000D01*
X104019685Y-70056961D01*
X104072489Y-70011206D01*
X104124000Y-70000000D01*
X105876000Y-70000000D01*
X105943039Y-70019685D01*
G37*
%TD.AperFunction*%
%TD*%
%TA.AperFunction,Conductor*%
%TO.N,BLUE1*%
G36*
X105954971Y-73225185D02*
G01*
X105963530Y-73231211D01*
X107046104Y-74063959D01*
X107087239Y-74120436D01*
X107094500Y-74162244D01*
X107094500Y-90876000D01*
X107074815Y-90943039D01*
X107022011Y-90988794D01*
X106970500Y-91000000D01*
X104829500Y-91000000D01*
X104762461Y-90980315D01*
X104716706Y-90927511D01*
X104705500Y-90876000D01*
X104705500Y-73329500D01*
X104725185Y-73262461D01*
X104777989Y-73216706D01*
X104829500Y-73205500D01*
X105887932Y-73205500D01*
X105954971Y-73225185D01*
G37*
%TD.AperFunction*%
%TD*%
%TA.AperFunction,Conductor*%
%TO.N,GREEN1*%
G36*
X109530463Y-66269385D02*
G01*
X112192574Y-67963456D01*
X112238563Y-68016054D01*
X112250000Y-68068069D01*
X112250000Y-90876000D01*
X112230315Y-90943039D01*
X112177511Y-90988794D01*
X112126000Y-91000000D01*
X109874000Y-91000000D01*
X109806961Y-90980315D01*
X109761206Y-90927511D01*
X109750000Y-90876000D01*
X109750000Y-73551362D01*
X109769685Y-73484323D01*
X109786319Y-73463681D01*
X111000000Y-72250000D01*
X111000000Y-69000000D01*
X110000000Y-68000000D01*
X106124000Y-68000000D01*
X106056961Y-67980315D01*
X106011206Y-67927511D01*
X106000000Y-67876000D01*
X106000000Y-66374000D01*
X106019685Y-66306961D01*
X106072489Y-66261206D01*
X106124000Y-66250000D01*
X109463891Y-66250000D01*
X109530463Y-66269385D01*
G37*
%TD.AperFunction*%
%TD*%
%TA.AperFunction,Conductor*%
%TO.N,BLACK2*%
G36*
X128943039Y-70019685D02*
G01*
X128988794Y-70072489D01*
X129000000Y-70124000D01*
X129000000Y-71500000D01*
X130346285Y-72307771D01*
X130376198Y-72332894D01*
X130418872Y-72382143D01*
X130539947Y-72459953D01*
X130642169Y-72489967D01*
X130671011Y-72502606D01*
X132439799Y-73563879D01*
X132487156Y-73615249D01*
X132500000Y-73670207D01*
X132500000Y-90876000D01*
X132480315Y-90943039D01*
X132427511Y-90988794D01*
X132376000Y-91000000D01*
X130424000Y-91000000D01*
X130356961Y-90980315D01*
X130311206Y-90927511D01*
X130300000Y-90876000D01*
X130300000Y-73999999D01*
X129000001Y-73000000D01*
X129000000Y-73000000D01*
X127551362Y-73000000D01*
X127484323Y-72980315D01*
X127463681Y-72963681D01*
X127036319Y-72536319D01*
X127002834Y-72474996D01*
X127000000Y-72448638D01*
X127000000Y-70124000D01*
X127019685Y-70056961D01*
X127072489Y-70011206D01*
X127124000Y-70000000D01*
X128876000Y-70000000D01*
X128943039Y-70019685D01*
G37*
%TD.AperFunction*%
%TD*%
%TA.AperFunction,Conductor*%
%TO.N,BLUE2*%
G36*
X128954971Y-73225185D02*
G01*
X128963530Y-73231211D01*
X130046104Y-74063959D01*
X130087239Y-74120436D01*
X130094500Y-74162244D01*
X130094500Y-90876000D01*
X130074815Y-90943039D01*
X130022011Y-90988794D01*
X129970500Y-91000000D01*
X127829500Y-91000000D01*
X127762461Y-90980315D01*
X127716706Y-90927511D01*
X127705500Y-90876000D01*
X127705500Y-73329500D01*
X127725185Y-73262461D01*
X127777989Y-73216706D01*
X127829500Y-73205500D01*
X128887932Y-73205500D01*
X128954971Y-73225185D01*
G37*
%TD.AperFunction*%
%TD*%
%TA.AperFunction,Conductor*%
%TO.N,GREEN2*%
G36*
X132527951Y-66269685D02*
G01*
X132532021Y-66272415D01*
X133739565Y-67117695D01*
X134896444Y-67927511D01*
X134947109Y-67962976D01*
X134990742Y-68017547D01*
X135000000Y-68064561D01*
X135000000Y-73499139D01*
X134999987Y-73500910D01*
X134751746Y-90877771D01*
X134731106Y-90944523D01*
X134677654Y-90989519D01*
X134627759Y-91000000D01*
X132874000Y-91000000D01*
X132806961Y-90980315D01*
X132761206Y-90927511D01*
X132750000Y-90876000D01*
X132750000Y-73551362D01*
X132769685Y-73484323D01*
X132786319Y-73463681D01*
X134000000Y-72250000D01*
X134000000Y-69000000D01*
X133000000Y-68000000D01*
X129124000Y-68000000D01*
X129056961Y-67980315D01*
X129011206Y-67927511D01*
X129000000Y-67876000D01*
X129000000Y-66374000D01*
X129019685Y-66306961D01*
X129072489Y-66261206D01*
X129124000Y-66250000D01*
X132460912Y-66250000D01*
X132527951Y-66269685D01*
G37*
%TD.AperFunction*%
%TD*%
%TA.AperFunction,Conductor*%
%TO.N,RED1*%
G36*
X103693039Y-70519685D02*
G01*
X103738794Y-70572489D01*
X103750000Y-70624000D01*
X103750000Y-72500000D01*
X104463681Y-73213681D01*
X104497166Y-73275004D01*
X104500000Y-73301362D01*
X104500000Y-90876000D01*
X104480315Y-90943039D01*
X104427511Y-90988794D01*
X104376000Y-91000000D01*
X102624000Y-91000000D01*
X102556961Y-90980315D01*
X102511206Y-90927511D01*
X102500000Y-90876000D01*
X102500000Y-73500000D01*
X101536319Y-72536319D01*
X101502834Y-72474996D01*
X101500000Y-72448638D01*
X101500000Y-70624000D01*
X101519685Y-70556961D01*
X101572489Y-70511206D01*
X101624000Y-70500000D01*
X103626000Y-70500000D01*
X103693039Y-70519685D01*
G37*
%TD.AperFunction*%
%TD*%
M02*
