%TF.GenerationSoftware,KiCad,Pcbnew,8.0.6*%
%TF.CreationDate,2025-01-28T15:40:01+01:00*%
%TF.ProjectId,Drivers_PCB,44726976-6572-4735-9f50-43422e6b6963,rev?*%
%TF.SameCoordinates,Original*%
%TF.FileFunction,Copper,L4,Bot*%
%TF.FilePolarity,Positive*%
%FSLAX46Y46*%
G04 Gerber Fmt 4.6, Leading zero omitted, Abs format (unit mm)*
G04 Created by KiCad (PCBNEW 8.0.6) date 2025-01-28 15:40:01*
%MOMM*%
%LPD*%
G01*
G04 APERTURE LIST*
G04 Aperture macros list*
%AMRoundRect*
0 Rectangle with rounded corners*
0 $1 Rounding radius*
0 $2 $3 $4 $5 $6 $7 $8 $9 X,Y pos of 4 corners*
0 Add a 4 corners polygon primitive as box body*
4,1,4,$2,$3,$4,$5,$6,$7,$8,$9,$2,$3,0*
0 Add four circle primitives for the rounded corners*
1,1,$1+$1,$2,$3*
1,1,$1+$1,$4,$5*
1,1,$1+$1,$6,$7*
1,1,$1+$1,$8,$9*
0 Add four rect primitives between the rounded corners*
20,1,$1+$1,$2,$3,$4,$5,0*
20,1,$1+$1,$4,$5,$6,$7,0*
20,1,$1+$1,$6,$7,$8,$9,0*
20,1,$1+$1,$8,$9,$2,$3,0*%
G04 Aperture macros list end*
%TA.AperFunction,ComponentPad*%
%ADD10R,3.000000X3.000000*%
%TD*%
%TA.AperFunction,ComponentPad*%
%ADD11C,3.000000*%
%TD*%
%TA.AperFunction,ComponentPad*%
%ADD12RoundRect,0.250000X0.600000X0.725000X-0.600000X0.725000X-0.600000X-0.725000X0.600000X-0.725000X0*%
%TD*%
%TA.AperFunction,ComponentPad*%
%ADD13O,1.700000X1.950000*%
%TD*%
%TA.AperFunction,ComponentPad*%
%ADD14RoundRect,0.250000X-0.600000X-0.750000X0.600000X-0.750000X0.600000X0.750000X-0.600000X0.750000X0*%
%TD*%
%TA.AperFunction,ComponentPad*%
%ADD15O,1.700000X2.000000*%
%TD*%
%TA.AperFunction,ComponentPad*%
%ADD16RoundRect,0.250000X-0.600000X-0.725000X0.600000X-0.725000X0.600000X0.725000X-0.600000X0.725000X0*%
%TD*%
%TA.AperFunction,ComponentPad*%
%ADD17RoundRect,0.250000X0.600000X0.750000X-0.600000X0.750000X-0.600000X-0.750000X0.600000X-0.750000X0*%
%TD*%
%TA.AperFunction,ComponentPad*%
%ADD18R,1.700000X1.700000*%
%TD*%
%TA.AperFunction,ComponentPad*%
%ADD19O,1.700000X1.700000*%
%TD*%
%TA.AperFunction,ViaPad*%
%ADD20C,0.600000*%
%TD*%
%TA.AperFunction,ViaPad*%
%ADD21C,0.800000*%
%TD*%
G04 APERTURE END LIST*
D10*
%TO.P,J1,1,Pin_1*%
%TO.N,Net-(J1-Pin_1)*%
X105390000Y-52050000D03*
D11*
%TO.P,J1,2,Pin_2*%
%TO.N,GND*%
X100310000Y-52050000D03*
%TD*%
D12*
%TO.P,J5,1,Pin_1*%
%TO.N,unconnected-(J5-Pin_1-Pad1)*%
X136500000Y-89800000D03*
D13*
%TO.P,J5,2,Pin_2*%
%TO.N,GREEN2*%
X134000000Y-89800000D03*
%TO.P,J5,3,Pin_3*%
%TO.N,BLACK2*%
X131500000Y-89800000D03*
%TO.P,J5,4,Pin_4*%
%TO.N,BLUE2*%
X129000000Y-89800000D03*
%TO.P,J5,5,Pin_5*%
%TO.N,RED2*%
X126500000Y-89800000D03*
%TO.P,J5,6,Pin_6*%
%TO.N,unconnected-(J5-Pin_6-Pad6)*%
X124000000Y-89800000D03*
%TD*%
D14*
%TO.P,J6,1,Pin_1*%
%TO.N,IR_LED*%
X133000000Y-51000000D03*
D15*
%TO.P,J6,2,Pin_2*%
%TO.N,GND*%
X135500000Y-51000000D03*
%TD*%
D12*
%TO.P,J3,1,Pin_1*%
%TO.N,unconnected-(J3-Pin_1-Pad1)*%
X113400000Y-89900000D03*
D13*
%TO.P,J3,2,Pin_2*%
%TO.N,GREEN1*%
X110900000Y-89900000D03*
%TO.P,J3,3,Pin_3*%
%TO.N,BLACK1*%
X108400000Y-89900000D03*
%TO.P,J3,4,Pin_4*%
%TO.N,BLUE1*%
X105900000Y-89900000D03*
%TO.P,J3,5,Pin_5*%
%TO.N,RED1*%
X103400000Y-89900000D03*
%TO.P,J3,6,Pin_6*%
%TO.N,unconnected-(J3-Pin_6-Pad6)*%
X100900000Y-89900000D03*
%TD*%
D16*
%TO.P,J4,1,Pin_1*%
%TO.N,EOC_SWITCH*%
X116500000Y-82000000D03*
D13*
%TO.P,J4,2,Pin_2*%
%TO.N,GND*%
X119000000Y-82000000D03*
%TO.P,J4,3,Pin_3*%
%TO.N,VDD*%
X121500000Y-82000000D03*
%TD*%
D17*
%TO.P,J11,1,Pin_1*%
%TO.N,VBB*%
X116500000Y-52100000D03*
D15*
%TO.P,J11,2,Pin_2*%
%TO.N,Net-(J1-Pin_1)*%
X114000000Y-52100000D03*
%TD*%
D14*
%TO.P,J2,1,Pin_1*%
%TO.N,VBB*%
X124000000Y-51000000D03*
D15*
%TO.P,J2,2,Pin_2*%
%TO.N,GND*%
X126500000Y-51000000D03*
%TD*%
D18*
%TO.P,J8,1,Pin_1*%
%TO.N,EN1*%
X95000000Y-77650000D03*
D19*
%TO.P,J8,2,Pin_2*%
%TO.N,EN2*%
X95000000Y-80190000D03*
%TO.P,J8,3,Pin_3*%
%TO.N,EOC_SWITCH*%
X95000000Y-82730000D03*
%TO.P,J8,4,Pin_4*%
%TO.N,unconnected-(J8-Pin_4-Pad4)*%
X95000000Y-85270000D03*
%TO.P,J8,5,Pin_5*%
%TO.N,unconnected-(J8-Pin_5-Pad5)*%
X95000000Y-87810000D03*
%TO.P,J8,6,Pin_6*%
%TO.N,unconnected-(J8-Pin_6-Pad6)*%
X95000000Y-90350000D03*
%TD*%
D18*
%TO.P,J7,1,Pin_1*%
%TO.N,unconnected-(J7-Pin_1-Pad1)*%
X95000000Y-54790000D03*
D19*
%TO.P,J7,2,Pin_2*%
%TO.N,unconnected-(J7-Pin_2-Pad2)*%
X95000000Y-57330000D03*
%TO.P,J7,3,Pin_3*%
%TO.N,unconnected-(J7-Pin_3-Pad3)*%
X95000000Y-59870000D03*
%TO.P,J7,4,Pin_4*%
%TO.N,VREF*%
X95000000Y-62410000D03*
%TO.P,J7,5,Pin_5*%
%TO.N,VDD*%
X95000000Y-64950000D03*
%TO.P,J7,6,Pin_6*%
%TO.N,GND*%
X95000000Y-67490000D03*
%TO.P,J7,7,Pin_7*%
X95000000Y-70030000D03*
%TO.P,J7,8,Pin_8*%
%TO.N,unconnected-(J7-Pin_8-Pad8)*%
X95000000Y-72570000D03*
%TD*%
D18*
%TO.P,J9,1,Pin_1*%
%TO.N,MS1*%
X143250000Y-68450000D03*
D19*
%TO.P,J9,2,Pin_2*%
%TO.N,MS2*%
X143250000Y-65910000D03*
%TO.P,J9,3,Pin_3*%
%TO.N,MS3*%
X143250000Y-63370000D03*
%TO.P,J9,4,Pin_4*%
%TO.N,STEP1*%
X143250000Y-60830000D03*
%TO.P,J9,5,Pin_5*%
%TO.N,IR_LED*%
X143250000Y-58290000D03*
%TO.P,J9,6,Pin_6*%
%TO.N,STEP2*%
X143250000Y-55750000D03*
%TO.P,J9,7,Pin_7*%
%TO.N,GND*%
X143250000Y-53210000D03*
%TO.P,J9,8,Pin_8*%
%TO.N,unconnected-(J9-Pin_8-Pad8)*%
X143250000Y-50670000D03*
%TO.P,J9,9,Pin_9*%
%TO.N,unconnected-(J9-Pin_9-Pad9)*%
X143250000Y-48130000D03*
%TO.P,J9,10,Pin_10*%
%TO.N,unconnected-(J9-Pin_10-Pad10)*%
X143250000Y-45590000D03*
%TD*%
D18*
%TO.P,J10,1,Pin_1*%
%TO.N,unconnected-(J10-Pin_1-Pad1)*%
X143300000Y-90290000D03*
D19*
%TO.P,J10,2,Pin_2*%
%TO.N,unconnected-(J10-Pin_2-Pad2)*%
X143300000Y-87750000D03*
%TO.P,J10,3,Pin_3*%
%TO.N,SLEEP1*%
X143300000Y-85210000D03*
%TO.P,J10,4,Pin_4*%
%TO.N,SLEEP2*%
X143300000Y-82670000D03*
%TO.P,J10,5,Pin_5*%
%TO.N,RESET1*%
X143300000Y-80130000D03*
%TO.P,J10,6,Pin_6*%
%TO.N,RESET2*%
X143300000Y-77590000D03*
%TO.P,J10,7,Pin_7*%
%TO.N,DIR1*%
X143300000Y-75050000D03*
%TO.P,J10,8,Pin_8*%
%TO.N,DIR2*%
X143300000Y-72510000D03*
%TD*%
D20*
%TO.N,GND*%
X131750000Y-72000000D03*
X110000000Y-70000000D03*
X108000000Y-71000000D03*
X109000000Y-71000000D03*
X110000000Y-72000000D03*
X130750000Y-71000000D03*
X119500000Y-66500000D03*
X108000000Y-70000000D03*
X132750000Y-71000000D03*
X132750000Y-72000000D03*
X110000000Y-71000000D03*
X109000000Y-72000000D03*
X131750000Y-70000000D03*
X130750000Y-72000000D03*
X109000000Y-70000000D03*
X125500000Y-66500000D03*
X131750000Y-71000000D03*
X108000000Y-72000000D03*
X130750000Y-70000000D03*
X132750000Y-70000000D03*
D21*
%TO.N,VBB*%
X115500000Y-77500000D03*
X123300000Y-75000000D03*
X122000000Y-59500000D03*
X138500000Y-77500000D03*
X100000000Y-75000000D03*
%TO.N,VDD*%
X111500000Y-66500000D03*
X134250000Y-66500000D03*
%TO.N,BLUE1*%
X106000000Y-75100000D03*
%TO.N,GREEN1*%
X106900000Y-66900000D03*
%TO.N,RED1*%
X102500000Y-71000000D03*
%TO.N,BLACK1*%
X104900000Y-70500000D03*
%TO.N,RED2*%
X125000000Y-71000000D03*
D20*
%TO.N,SLEEP1*%
X113500000Y-69000000D03*
D21*
%TO.N,BLACK2*%
X127500000Y-70500000D03*
%TO.N,BLUE2*%
X128700000Y-75100000D03*
%TO.N,GREEN2*%
X129900000Y-66900000D03*
D20*
%TO.N,RESET1*%
X116170000Y-72240000D03*
%TO.N,DIR1*%
X108500000Y-64300000D03*
%TO.N,STEP1*%
X111493760Y-62950000D03*
%TO.N,MS3*%
X135850000Y-70950000D03*
X113170000Y-71040000D03*
%TO.N,MS1*%
X115170000Y-72140000D03*
X137850000Y-72050000D03*
%TO.N,MS2*%
X136750000Y-71450000D03*
X114070000Y-71540000D03*
%TO.N,STEP2*%
X133430000Y-62800000D03*
%TO.N,EN2*%
X121500000Y-77500000D03*
%TO.N,RESET2*%
X138850000Y-72150000D03*
%TO.N,DIR2*%
X131250000Y-64500000D03*
%TO.N,SLEEP2*%
X136375000Y-68875000D03*
%TO.N,VREF*%
X109500000Y-63500000D03*
X132200000Y-63410000D03*
%TD*%
%TA.AperFunction,Conductor*%
%TO.N,VBB*%
G36*
X124515677Y-49019685D02*
G01*
X124536319Y-49036319D01*
X125463681Y-49963681D01*
X125497166Y-50025004D01*
X125500000Y-50051362D01*
X125500000Y-50494459D01*
X125491403Y-50537681D01*
X125491638Y-50537753D01*
X125490914Y-50540138D01*
X125490562Y-50541910D01*
X125489870Y-50543580D01*
X125489868Y-50543587D01*
X125449500Y-50746530D01*
X125449500Y-51253469D01*
X125489868Y-51456413D01*
X125489871Y-51456424D01*
X125490559Y-51458084D01*
X125490909Y-51459846D01*
X125491639Y-51462251D01*
X125491402Y-51462322D01*
X125500000Y-51505541D01*
X125500000Y-55458666D01*
X125480315Y-55525705D01*
X125475200Y-55533066D01*
X124750000Y-56500000D01*
X124000000Y-57500000D01*
X124000000Y-63500000D01*
X124000000Y-79000000D01*
X120500000Y-79000000D01*
X120500000Y-77500000D01*
X120994353Y-77500000D01*
X121014834Y-77642456D01*
X121074622Y-77773371D01*
X121074623Y-77773373D01*
X121168872Y-77882143D01*
X121289947Y-77959953D01*
X121289950Y-77959954D01*
X121289949Y-77959954D01*
X121428036Y-78000499D01*
X121428038Y-78000500D01*
X121428039Y-78000500D01*
X121571962Y-78000500D01*
X121571962Y-78000499D01*
X121710053Y-77959953D01*
X121831128Y-77882143D01*
X121925377Y-77773373D01*
X121985165Y-77642457D01*
X122005647Y-77500000D01*
X121985165Y-77357543D01*
X121925377Y-77226627D01*
X121831128Y-77117857D01*
X121710053Y-77040047D01*
X121710051Y-77040046D01*
X121710049Y-77040045D01*
X121710050Y-77040045D01*
X121571963Y-76999500D01*
X121571961Y-76999500D01*
X121428039Y-76999500D01*
X121428036Y-76999500D01*
X121289949Y-77040045D01*
X121168873Y-77117856D01*
X121074623Y-77226626D01*
X121074622Y-77226628D01*
X121014834Y-77357543D01*
X120994353Y-77500000D01*
X120500000Y-77500000D01*
X120500000Y-66000000D01*
X120500000Y-55500000D01*
X119500000Y-54500000D01*
X104499999Y-54500000D01*
X101500000Y-57499999D01*
X101500000Y-75948638D01*
X101480315Y-76015677D01*
X101463681Y-76036319D01*
X100536319Y-76963681D01*
X100474996Y-76997166D01*
X100448638Y-77000000D01*
X99551362Y-77000000D01*
X99484323Y-76980315D01*
X99463681Y-76963681D01*
X98536319Y-76036319D01*
X98502834Y-75974996D01*
X98500000Y-75948638D01*
X98500000Y-56551362D01*
X98519685Y-56484323D01*
X98536319Y-56463681D01*
X100500000Y-54500000D01*
X102500000Y-52500000D01*
X102500000Y-50530247D01*
X103689500Y-50530247D01*
X103689500Y-53569752D01*
X103701131Y-53628229D01*
X103701132Y-53628230D01*
X103745447Y-53694552D01*
X103811769Y-53738867D01*
X103811770Y-53738868D01*
X103870247Y-53750499D01*
X103870250Y-53750500D01*
X103870252Y-53750500D01*
X106909750Y-53750500D01*
X106909751Y-53750499D01*
X106924568Y-53747552D01*
X106968229Y-53738868D01*
X106968229Y-53738867D01*
X106968231Y-53738867D01*
X107034552Y-53694552D01*
X107078867Y-53628231D01*
X107078867Y-53628229D01*
X107078868Y-53628229D01*
X107090499Y-53569752D01*
X107090500Y-53569750D01*
X107090500Y-51846530D01*
X112949500Y-51846530D01*
X112949500Y-52353469D01*
X112989868Y-52556412D01*
X112989870Y-52556420D01*
X113069058Y-52747596D01*
X113184024Y-52919657D01*
X113330342Y-53065975D01*
X113330345Y-53065977D01*
X113502402Y-53180941D01*
X113693580Y-53260130D01*
X113896530Y-53300499D01*
X113896534Y-53300500D01*
X113896535Y-53300500D01*
X114103466Y-53300500D01*
X114103467Y-53300499D01*
X114306420Y-53260130D01*
X114497598Y-53180941D01*
X114669655Y-53065977D01*
X114815977Y-52919655D01*
X114930941Y-52747598D01*
X115010130Y-52556420D01*
X115050500Y-52353465D01*
X115050500Y-51846535D01*
X115010130Y-51643580D01*
X114930941Y-51452402D01*
X114815977Y-51280345D01*
X114815975Y-51280342D01*
X114669657Y-51134024D01*
X114583626Y-51076541D01*
X114497598Y-51019059D01*
X114306420Y-50939870D01*
X114306412Y-50939868D01*
X114103469Y-50899500D01*
X114103465Y-50899500D01*
X113896535Y-50899500D01*
X113896530Y-50899500D01*
X113693587Y-50939868D01*
X113693579Y-50939870D01*
X113502403Y-51019058D01*
X113330342Y-51134024D01*
X113184024Y-51280342D01*
X113069058Y-51452403D01*
X112989870Y-51643579D01*
X112989868Y-51643587D01*
X112949500Y-51846530D01*
X107090500Y-51846530D01*
X107090500Y-50530249D01*
X107090499Y-50530247D01*
X107078868Y-50471770D01*
X107078867Y-50471769D01*
X107034552Y-50405447D01*
X106968230Y-50361132D01*
X106968229Y-50361131D01*
X106909752Y-50349500D01*
X106909748Y-50349500D01*
X103870252Y-50349500D01*
X103870247Y-50349500D01*
X103811770Y-50361131D01*
X103811769Y-50361132D01*
X103745447Y-50405447D01*
X103701132Y-50471769D01*
X103701131Y-50471770D01*
X103689500Y-50530247D01*
X102500000Y-50530247D01*
X102500000Y-50051362D01*
X102519685Y-49984323D01*
X102536319Y-49963681D01*
X103463681Y-49036319D01*
X103525004Y-49002834D01*
X103551362Y-49000000D01*
X124448638Y-49000000D01*
X124515677Y-49019685D01*
G37*
%TD.AperFunction*%
%TD*%
%TA.AperFunction,Conductor*%
%TO.N,GND*%
G36*
X145006922Y-43501280D02*
G01*
X145097266Y-43511459D01*
X145124331Y-43517636D01*
X145203540Y-43545352D01*
X145228553Y-43557398D01*
X145299606Y-43602043D01*
X145321313Y-43619355D01*
X145380644Y-43678686D01*
X145397957Y-43700395D01*
X145442600Y-43771444D01*
X145454648Y-43796462D01*
X145482362Y-43875666D01*
X145488540Y-43902735D01*
X145498720Y-43993076D01*
X145499500Y-44006961D01*
X145499500Y-92993038D01*
X145498720Y-93006923D01*
X145488540Y-93097264D01*
X145482362Y-93124333D01*
X145454648Y-93203537D01*
X145442600Y-93228555D01*
X145397957Y-93299604D01*
X145380644Y-93321313D01*
X145321313Y-93380644D01*
X145299604Y-93397957D01*
X145228555Y-93442600D01*
X145203537Y-93454648D01*
X145124333Y-93482362D01*
X145097264Y-93488540D01*
X145017075Y-93497576D01*
X145006921Y-93498720D01*
X144993038Y-93499500D01*
X93006962Y-93499500D01*
X92993078Y-93498720D01*
X92980553Y-93497308D01*
X92902735Y-93488540D01*
X92875666Y-93482362D01*
X92796462Y-93454648D01*
X92771444Y-93442600D01*
X92700395Y-93397957D01*
X92678686Y-93380644D01*
X92619355Y-93321313D01*
X92602042Y-93299604D01*
X92557399Y-93228555D01*
X92545351Y-93203537D01*
X92517637Y-93124333D01*
X92511459Y-93097263D01*
X92501280Y-93006922D01*
X92500500Y-92993038D01*
X92500500Y-80189999D01*
X93644341Y-80189999D01*
X93644341Y-80190000D01*
X93664936Y-80425403D01*
X93664938Y-80425413D01*
X93726094Y-80653655D01*
X93726096Y-80653659D01*
X93726097Y-80653663D01*
X93797988Y-80807834D01*
X93825965Y-80867830D01*
X93825967Y-80867834D01*
X93961501Y-81061395D01*
X93961506Y-81061402D01*
X94128597Y-81228493D01*
X94128603Y-81228498D01*
X94314158Y-81358425D01*
X94357783Y-81413002D01*
X94364977Y-81482500D01*
X94333454Y-81544855D01*
X94314158Y-81561575D01*
X94128597Y-81691505D01*
X93961505Y-81858597D01*
X93825965Y-82052169D01*
X93825964Y-82052171D01*
X93726098Y-82266335D01*
X93726094Y-82266344D01*
X93664938Y-82494586D01*
X93664936Y-82494596D01*
X93644341Y-82729999D01*
X93644341Y-82730000D01*
X93664936Y-82965403D01*
X93664938Y-82965413D01*
X93726094Y-83193655D01*
X93726095Y-83193657D01*
X93726097Y-83193663D01*
X93797988Y-83347834D01*
X93825965Y-83407830D01*
X93825967Y-83407834D01*
X93961501Y-83601395D01*
X93961506Y-83601402D01*
X94128597Y-83768493D01*
X94128603Y-83768498D01*
X94314158Y-83898425D01*
X94357783Y-83953002D01*
X94364977Y-84022500D01*
X94333454Y-84084855D01*
X94314158Y-84101575D01*
X94128597Y-84231505D01*
X93961505Y-84398597D01*
X93825965Y-84592169D01*
X93825964Y-84592171D01*
X93726098Y-84806335D01*
X93726094Y-84806344D01*
X93664938Y-85034586D01*
X93664936Y-85034596D01*
X93644341Y-85269999D01*
X93644341Y-85270000D01*
X93664936Y-85505403D01*
X93664938Y-85505413D01*
X93726094Y-85733655D01*
X93726096Y-85733659D01*
X93726097Y-85733663D01*
X93797988Y-85887834D01*
X93825965Y-85947830D01*
X93825967Y-85947834D01*
X93961501Y-86141395D01*
X93961506Y-86141402D01*
X94128597Y-86308493D01*
X94128603Y-86308498D01*
X94314158Y-86438425D01*
X94357783Y-86493002D01*
X94364977Y-86562500D01*
X94333454Y-86624855D01*
X94314158Y-86641575D01*
X94128597Y-86771505D01*
X93961505Y-86938597D01*
X93825965Y-87132169D01*
X93825964Y-87132171D01*
X93726098Y-87346335D01*
X93726094Y-87346344D01*
X93664938Y-87574586D01*
X93664936Y-87574596D01*
X93644341Y-87809999D01*
X93644341Y-87810000D01*
X93664936Y-88045403D01*
X93664938Y-88045413D01*
X93726094Y-88273655D01*
X93726096Y-88273659D01*
X93726097Y-88273663D01*
X93797988Y-88427834D01*
X93825965Y-88487830D01*
X93825967Y-88487834D01*
X93961501Y-88681395D01*
X93961506Y-88681402D01*
X94128597Y-88848493D01*
X94128603Y-88848498D01*
X94314158Y-88978425D01*
X94357783Y-89033002D01*
X94364977Y-89102500D01*
X94333454Y-89164855D01*
X94314158Y-89181575D01*
X94128597Y-89311505D01*
X93961505Y-89478597D01*
X93825965Y-89672169D01*
X93825964Y-89672171D01*
X93726098Y-89886335D01*
X93726094Y-89886344D01*
X93664938Y-90114586D01*
X93664936Y-90114596D01*
X93644341Y-90349999D01*
X93644341Y-90350000D01*
X93664936Y-90585403D01*
X93664938Y-90585413D01*
X93726094Y-90813655D01*
X93726096Y-90813659D01*
X93726097Y-90813663D01*
X93784486Y-90938878D01*
X93825965Y-91027830D01*
X93825967Y-91027834D01*
X93888901Y-91117712D01*
X93961505Y-91221401D01*
X94128599Y-91388495D01*
X94225384Y-91456265D01*
X94322165Y-91524032D01*
X94322167Y-91524033D01*
X94322170Y-91524035D01*
X94536337Y-91623903D01*
X94536343Y-91623904D01*
X94536344Y-91623905D01*
X94591285Y-91638626D01*
X94764592Y-91685063D01*
X94952918Y-91701539D01*
X94999999Y-91705659D01*
X95000000Y-91705659D01*
X95000001Y-91705659D01*
X95039234Y-91702226D01*
X95235408Y-91685063D01*
X95463663Y-91623903D01*
X95677830Y-91524035D01*
X95871401Y-91388495D01*
X96038495Y-91221401D01*
X96174035Y-91027830D01*
X96273903Y-90813663D01*
X96335063Y-90585408D01*
X96355659Y-90350000D01*
X96354892Y-90341239D01*
X96346143Y-90241239D01*
X96335063Y-90114592D01*
X96273903Y-89886337D01*
X96174035Y-89672171D01*
X96171614Y-89668713D01*
X99549500Y-89668713D01*
X99549500Y-90131287D01*
X99582754Y-90341243D01*
X99585599Y-90350000D01*
X99648444Y-90543414D01*
X99744951Y-90732820D01*
X99869890Y-90904786D01*
X100020213Y-91055109D01*
X100192179Y-91180048D01*
X100192181Y-91180049D01*
X100192184Y-91180051D01*
X100381588Y-91276557D01*
X100583757Y-91342246D01*
X100793713Y-91375500D01*
X100793714Y-91375500D01*
X101006286Y-91375500D01*
X101006287Y-91375500D01*
X101216243Y-91342246D01*
X101418412Y-91276557D01*
X101607816Y-91180051D01*
X101693622Y-91117710D01*
X101779786Y-91055109D01*
X101779788Y-91055106D01*
X101779792Y-91055104D01*
X101930104Y-90904792D01*
X102049683Y-90740204D01*
X102105011Y-90697540D01*
X102174624Y-90691561D01*
X102236420Y-90724166D01*
X102250313Y-90740199D01*
X102353925Y-90882809D01*
X102369896Y-90904792D01*
X102520213Y-91055109D01*
X102692179Y-91180048D01*
X102692181Y-91180049D01*
X102692184Y-91180051D01*
X102881588Y-91276557D01*
X103083757Y-91342246D01*
X103293713Y-91375500D01*
X103293714Y-91375500D01*
X103506286Y-91375500D01*
X103506287Y-91375500D01*
X103716243Y-91342246D01*
X103918412Y-91276557D01*
X104107816Y-91180051D01*
X104193622Y-91117710D01*
X104279786Y-91055109D01*
X104279788Y-91055106D01*
X104279792Y-91055104D01*
X104430104Y-90904792D01*
X104549683Y-90740204D01*
X104605011Y-90697540D01*
X104674624Y-90691561D01*
X104736420Y-90724166D01*
X104750313Y-90740199D01*
X104853925Y-90882809D01*
X104869896Y-90904792D01*
X105020213Y-91055109D01*
X105192179Y-91180048D01*
X105192181Y-91180049D01*
X105192184Y-91180051D01*
X105381588Y-91276557D01*
X105583757Y-91342246D01*
X105793713Y-91375500D01*
X105793714Y-91375500D01*
X106006286Y-91375500D01*
X106006287Y-91375500D01*
X106216243Y-91342246D01*
X106418412Y-91276557D01*
X106607816Y-91180051D01*
X106693622Y-91117710D01*
X106779786Y-91055109D01*
X106779788Y-91055106D01*
X106779792Y-91055104D01*
X106930104Y-90904792D01*
X107049683Y-90740204D01*
X107105011Y-90697540D01*
X107174624Y-90691561D01*
X107236420Y-90724166D01*
X107250313Y-90740199D01*
X107353925Y-90882809D01*
X107369896Y-90904792D01*
X107520213Y-91055109D01*
X107692179Y-91180048D01*
X107692181Y-91180049D01*
X107692184Y-91180051D01*
X107881588Y-91276557D01*
X108083757Y-91342246D01*
X108293713Y-91375500D01*
X108293714Y-91375500D01*
X108506286Y-91375500D01*
X108506287Y-91375500D01*
X108716243Y-91342246D01*
X108918412Y-91276557D01*
X109107816Y-91180051D01*
X109193622Y-91117710D01*
X109279786Y-91055109D01*
X109279788Y-91055106D01*
X109279792Y-91055104D01*
X109430104Y-90904792D01*
X109549683Y-90740204D01*
X109605011Y-90697540D01*
X109674624Y-90691561D01*
X109736420Y-90724166D01*
X109750313Y-90740199D01*
X109853925Y-90882809D01*
X109869896Y-90904792D01*
X110020213Y-91055109D01*
X110192179Y-91180048D01*
X110192181Y-91180049D01*
X110192184Y-91180051D01*
X110381588Y-91276557D01*
X110583757Y-91342246D01*
X110793713Y-91375500D01*
X110793714Y-91375500D01*
X111006286Y-91375500D01*
X111006287Y-91375500D01*
X111216243Y-91342246D01*
X111418412Y-91276557D01*
X111607816Y-91180051D01*
X111779792Y-91055104D01*
X111918604Y-90916291D01*
X111979923Y-90882809D01*
X112049615Y-90887793D01*
X112105549Y-90929664D01*
X112111821Y-90938878D01*
X112115185Y-90944333D01*
X112115186Y-90944334D01*
X112207288Y-91093656D01*
X112331344Y-91217712D01*
X112480666Y-91309814D01*
X112647203Y-91364999D01*
X112749991Y-91375500D01*
X114050008Y-91375499D01*
X114152797Y-91364999D01*
X114319334Y-91309814D01*
X114468656Y-91217712D01*
X114592712Y-91093656D01*
X114684814Y-90944334D01*
X114739999Y-90777797D01*
X114750500Y-90675009D01*
X114750499Y-89568713D01*
X122649500Y-89568713D01*
X122649500Y-90031286D01*
X122665338Y-90131287D01*
X122682754Y-90241243D01*
X122718091Y-90350000D01*
X122748444Y-90443414D01*
X122844951Y-90632820D01*
X122969890Y-90804786D01*
X123120213Y-90955109D01*
X123292179Y-91080048D01*
X123292181Y-91080049D01*
X123292184Y-91080051D01*
X123481588Y-91176557D01*
X123683757Y-91242246D01*
X123893713Y-91275500D01*
X123893714Y-91275500D01*
X124106286Y-91275500D01*
X124106287Y-91275500D01*
X124316243Y-91242246D01*
X124518412Y-91176557D01*
X124707816Y-91080051D01*
X124779693Y-91027830D01*
X124879786Y-90955109D01*
X124879788Y-90955106D01*
X124879792Y-90955104D01*
X125030104Y-90804792D01*
X125149683Y-90640204D01*
X125205011Y-90597540D01*
X125274624Y-90591561D01*
X125336420Y-90624166D01*
X125350313Y-90640199D01*
X125417181Y-90732235D01*
X125469896Y-90804792D01*
X125620213Y-90955109D01*
X125792179Y-91080048D01*
X125792181Y-91080049D01*
X125792184Y-91080051D01*
X125981588Y-91176557D01*
X126183757Y-91242246D01*
X126393713Y-91275500D01*
X126393714Y-91275500D01*
X126606286Y-91275500D01*
X126606287Y-91275500D01*
X126816243Y-91242246D01*
X127018412Y-91176557D01*
X127207816Y-91080051D01*
X127279693Y-91027830D01*
X127379786Y-90955109D01*
X127379788Y-90955106D01*
X127379792Y-90955104D01*
X127530104Y-90804792D01*
X127649683Y-90640204D01*
X127705011Y-90597540D01*
X127774624Y-90591561D01*
X127836420Y-90624166D01*
X127850313Y-90640199D01*
X127917181Y-90732235D01*
X127969896Y-90804792D01*
X128120213Y-90955109D01*
X128292179Y-91080048D01*
X128292181Y-91080049D01*
X128292184Y-91080051D01*
X128481588Y-91176557D01*
X128683757Y-91242246D01*
X128893713Y-91275500D01*
X128893714Y-91275500D01*
X129106286Y-91275500D01*
X129106287Y-91275500D01*
X129316243Y-91242246D01*
X129518412Y-91176557D01*
X129707816Y-91080051D01*
X129779693Y-91027830D01*
X129879786Y-90955109D01*
X129879788Y-90955106D01*
X129879792Y-90955104D01*
X130030104Y-90804792D01*
X130149683Y-90640204D01*
X130205011Y-90597540D01*
X130274624Y-90591561D01*
X130336420Y-90624166D01*
X130350313Y-90640199D01*
X130417181Y-90732235D01*
X130469896Y-90804792D01*
X130620213Y-90955109D01*
X130792179Y-91080048D01*
X130792181Y-91080049D01*
X130792184Y-91080051D01*
X130981588Y-91176557D01*
X131183757Y-91242246D01*
X131393713Y-91275500D01*
X131393714Y-91275500D01*
X131606286Y-91275500D01*
X131606287Y-91275500D01*
X131816243Y-91242246D01*
X132018412Y-91176557D01*
X132207816Y-91080051D01*
X132279693Y-91027830D01*
X132379786Y-90955109D01*
X132379788Y-90955106D01*
X132379792Y-90955104D01*
X132530104Y-90804792D01*
X132649683Y-90640204D01*
X132705011Y-90597540D01*
X132774624Y-90591561D01*
X132836420Y-90624166D01*
X132850313Y-90640199D01*
X132917181Y-90732235D01*
X132969896Y-90804792D01*
X133120213Y-90955109D01*
X133292179Y-91080048D01*
X133292181Y-91080049D01*
X133292184Y-91080051D01*
X133481588Y-91176557D01*
X133683757Y-91242246D01*
X133893713Y-91275500D01*
X133893714Y-91275500D01*
X134106286Y-91275500D01*
X134106287Y-91275500D01*
X134316243Y-91242246D01*
X134518412Y-91176557D01*
X134707816Y-91080051D01*
X134879792Y-90955104D01*
X135018604Y-90816291D01*
X135079923Y-90782809D01*
X135149615Y-90787793D01*
X135205549Y-90829664D01*
X135211821Y-90838878D01*
X135215185Y-90844333D01*
X135215186Y-90844334D01*
X135307288Y-90993656D01*
X135431344Y-91117712D01*
X135580666Y-91209814D01*
X135747203Y-91264999D01*
X135849991Y-91275500D01*
X137150008Y-91275499D01*
X137252797Y-91264999D01*
X137419334Y-91209814D01*
X137568656Y-91117712D01*
X137692712Y-90993656D01*
X137784814Y-90844334D01*
X137839999Y-90677797D01*
X137850500Y-90575009D01*
X137850499Y-89024992D01*
X137847558Y-88996206D01*
X137839999Y-88922203D01*
X137839998Y-88922200D01*
X137831054Y-88895208D01*
X137784814Y-88755666D01*
X137692712Y-88606344D01*
X137568656Y-88482288D01*
X137419334Y-88390186D01*
X137252797Y-88335001D01*
X137252795Y-88335000D01*
X137150010Y-88324500D01*
X135849998Y-88324500D01*
X135849981Y-88324501D01*
X135747203Y-88335000D01*
X135747200Y-88335001D01*
X135580668Y-88390185D01*
X135580663Y-88390187D01*
X135431342Y-88482289D01*
X135307289Y-88606342D01*
X135211821Y-88761121D01*
X135159873Y-88807845D01*
X135090910Y-88819068D01*
X135026828Y-88791224D01*
X135018601Y-88783705D01*
X134879786Y-88644890D01*
X134707820Y-88519951D01*
X134518414Y-88423444D01*
X134518413Y-88423443D01*
X134518412Y-88423443D01*
X134316243Y-88357754D01*
X134316241Y-88357753D01*
X134316240Y-88357753D01*
X134154957Y-88332208D01*
X134106287Y-88324500D01*
X133893713Y-88324500D01*
X133845042Y-88332208D01*
X133683760Y-88357753D01*
X133481585Y-88423444D01*
X133292179Y-88519951D01*
X133120213Y-88644890D01*
X132969894Y-88795209D01*
X132969890Y-88795214D01*
X132850318Y-88959793D01*
X132794989Y-89002459D01*
X132725375Y-89008438D01*
X132663580Y-88975833D01*
X132649682Y-88959793D01*
X132530109Y-88795214D01*
X132530105Y-88795209D01*
X132379786Y-88644890D01*
X132207820Y-88519951D01*
X132018414Y-88423444D01*
X132018413Y-88423443D01*
X132018412Y-88423443D01*
X131816243Y-88357754D01*
X131816241Y-88357753D01*
X131816240Y-88357753D01*
X131654957Y-88332208D01*
X131606287Y-88324500D01*
X131393713Y-88324500D01*
X131345042Y-88332208D01*
X131183760Y-88357753D01*
X130981585Y-88423444D01*
X130792179Y-88519951D01*
X130620213Y-88644890D01*
X130469894Y-88795209D01*
X130469890Y-88795214D01*
X130350318Y-88959793D01*
X130294989Y-89002459D01*
X130225375Y-89008438D01*
X130163580Y-88975833D01*
X130149682Y-88959793D01*
X130030109Y-88795214D01*
X130030105Y-88795209D01*
X129879786Y-88644890D01*
X129707820Y-88519951D01*
X129518414Y-88423444D01*
X129518413Y-88423443D01*
X129518412Y-88423443D01*
X129316243Y-88357754D01*
X129316241Y-88357753D01*
X129316240Y-88357753D01*
X129154957Y-88332208D01*
X129106287Y-88324500D01*
X128893713Y-88324500D01*
X128845042Y-88332208D01*
X128683760Y-88357753D01*
X128481585Y-88423444D01*
X128292179Y-88519951D01*
X128120213Y-88644890D01*
X127969894Y-88795209D01*
X127969890Y-88795214D01*
X127850318Y-88959793D01*
X127794989Y-89002459D01*
X127725375Y-89008438D01*
X127663580Y-88975833D01*
X127649682Y-88959793D01*
X127530109Y-88795214D01*
X127530105Y-88795209D01*
X127379786Y-88644890D01*
X127207820Y-88519951D01*
X127018414Y-88423444D01*
X127018413Y-88423443D01*
X127018412Y-88423443D01*
X126816243Y-88357754D01*
X126816241Y-88357753D01*
X126816240Y-88357753D01*
X126654957Y-88332208D01*
X126606287Y-88324500D01*
X126393713Y-88324500D01*
X126345042Y-88332208D01*
X126183760Y-88357753D01*
X125981585Y-88423444D01*
X125792179Y-88519951D01*
X125620213Y-88644890D01*
X125469894Y-88795209D01*
X125469890Y-88795214D01*
X125350318Y-88959793D01*
X125294989Y-89002459D01*
X125225375Y-89008438D01*
X125163580Y-88975833D01*
X125149682Y-88959793D01*
X125030109Y-88795214D01*
X125030105Y-88795209D01*
X124879786Y-88644890D01*
X124707820Y-88519951D01*
X124518414Y-88423444D01*
X124518413Y-88423443D01*
X124518412Y-88423443D01*
X124316243Y-88357754D01*
X124316241Y-88357753D01*
X124316240Y-88357753D01*
X124154957Y-88332208D01*
X124106287Y-88324500D01*
X123893713Y-88324500D01*
X123845042Y-88332208D01*
X123683760Y-88357753D01*
X123481585Y-88423444D01*
X123292179Y-88519951D01*
X123120213Y-88644890D01*
X122969890Y-88795213D01*
X122844951Y-88967179D01*
X122748444Y-89156585D01*
X122682753Y-89358760D01*
X122649500Y-89568713D01*
X114750499Y-89568713D01*
X114750499Y-89124992D01*
X114748201Y-89102500D01*
X114739999Y-89022203D01*
X114739998Y-89022200D01*
X114719318Y-88959793D01*
X114684814Y-88855666D01*
X114592712Y-88706344D01*
X114468656Y-88582288D01*
X114319334Y-88490186D01*
X114152797Y-88435001D01*
X114152795Y-88435000D01*
X114050010Y-88424500D01*
X112749998Y-88424500D01*
X112749981Y-88424501D01*
X112647203Y-88435000D01*
X112647200Y-88435001D01*
X112480668Y-88490185D01*
X112480663Y-88490187D01*
X112331342Y-88582289D01*
X112207289Y-88706342D01*
X112111821Y-88861121D01*
X112059873Y-88907845D01*
X111990910Y-88919068D01*
X111926828Y-88891224D01*
X111918601Y-88883705D01*
X111779786Y-88744890D01*
X111607820Y-88619951D01*
X111418414Y-88523444D01*
X111418413Y-88523443D01*
X111418412Y-88523443D01*
X111216243Y-88457754D01*
X111216241Y-88457753D01*
X111216240Y-88457753D01*
X111054957Y-88432208D01*
X111006287Y-88424500D01*
X110793713Y-88424500D01*
X110745042Y-88432208D01*
X110583760Y-88457753D01*
X110381585Y-88523444D01*
X110192179Y-88619951D01*
X110020213Y-88744890D01*
X109869894Y-88895209D01*
X109869890Y-88895214D01*
X109750318Y-89059793D01*
X109694989Y-89102459D01*
X109625375Y-89108438D01*
X109563580Y-89075833D01*
X109549682Y-89059793D01*
X109430109Y-88895214D01*
X109430105Y-88895209D01*
X109279786Y-88744890D01*
X109107820Y-88619951D01*
X108918414Y-88523444D01*
X108918413Y-88523443D01*
X108918412Y-88523443D01*
X108716243Y-88457754D01*
X108716241Y-88457753D01*
X108716240Y-88457753D01*
X108554957Y-88432208D01*
X108506287Y-88424500D01*
X108293713Y-88424500D01*
X108245042Y-88432208D01*
X108083760Y-88457753D01*
X107881585Y-88523444D01*
X107692179Y-88619951D01*
X107520213Y-88744890D01*
X107369894Y-88895209D01*
X107369890Y-88895214D01*
X107250318Y-89059793D01*
X107194989Y-89102459D01*
X107125375Y-89108438D01*
X107063580Y-89075833D01*
X107049682Y-89059793D01*
X106930109Y-88895214D01*
X106930105Y-88895209D01*
X106779786Y-88744890D01*
X106607820Y-88619951D01*
X106418414Y-88523444D01*
X106418413Y-88523443D01*
X106418412Y-88523443D01*
X106216243Y-88457754D01*
X106216241Y-88457753D01*
X106216240Y-88457753D01*
X106054957Y-88432208D01*
X106006287Y-88424500D01*
X105793713Y-88424500D01*
X105745042Y-88432208D01*
X105583760Y-88457753D01*
X105381585Y-88523444D01*
X105192179Y-88619951D01*
X105020213Y-88744890D01*
X104869894Y-88895209D01*
X104869890Y-88895214D01*
X104750318Y-89059793D01*
X104694989Y-89102459D01*
X104625375Y-89108438D01*
X104563580Y-89075833D01*
X104549682Y-89059793D01*
X104430109Y-88895214D01*
X104430105Y-88895209D01*
X104279786Y-88744890D01*
X104107820Y-88619951D01*
X103918414Y-88523444D01*
X103918413Y-88523443D01*
X103918412Y-88523443D01*
X103716243Y-88457754D01*
X103716241Y-88457753D01*
X103716240Y-88457753D01*
X103554957Y-88432208D01*
X103506287Y-88424500D01*
X103293713Y-88424500D01*
X103245042Y-88432208D01*
X103083760Y-88457753D01*
X102881585Y-88523444D01*
X102692179Y-88619951D01*
X102520213Y-88744890D01*
X102369894Y-88895209D01*
X102369890Y-88895214D01*
X102250318Y-89059793D01*
X102194989Y-89102459D01*
X102125375Y-89108438D01*
X102063580Y-89075833D01*
X102049682Y-89059793D01*
X101930109Y-88895214D01*
X101930105Y-88895209D01*
X101779786Y-88744890D01*
X101607820Y-88619951D01*
X101418414Y-88523444D01*
X101418413Y-88523443D01*
X101418412Y-88523443D01*
X101216243Y-88457754D01*
X101216241Y-88457753D01*
X101216240Y-88457753D01*
X101054957Y-88432208D01*
X101006287Y-88424500D01*
X100793713Y-88424500D01*
X100745042Y-88432208D01*
X100583760Y-88457753D01*
X100381585Y-88523444D01*
X100192179Y-88619951D01*
X100020213Y-88744890D01*
X99869890Y-88895213D01*
X99744951Y-89067179D01*
X99648444Y-89256585D01*
X99582753Y-89458760D01*
X99549500Y-89668713D01*
X96171614Y-89668713D01*
X96101594Y-89568713D01*
X96038494Y-89478597D01*
X95871402Y-89311506D01*
X95871396Y-89311501D01*
X95685842Y-89181575D01*
X95642217Y-89126998D01*
X95635023Y-89057500D01*
X95666546Y-88995145D01*
X95685842Y-88978425D01*
X95730451Y-88947189D01*
X95871401Y-88848495D01*
X96038495Y-88681401D01*
X96174035Y-88487830D01*
X96273903Y-88273663D01*
X96335063Y-88045408D01*
X96355659Y-87810000D01*
X96335063Y-87574592D01*
X96273903Y-87346337D01*
X96174035Y-87132171D01*
X96132022Y-87072169D01*
X96038494Y-86938597D01*
X95871402Y-86771506D01*
X95871396Y-86771501D01*
X95685842Y-86641575D01*
X95642217Y-86586998D01*
X95635023Y-86517500D01*
X95666546Y-86455145D01*
X95685842Y-86438425D01*
X95763519Y-86384035D01*
X95871401Y-86308495D01*
X96038495Y-86141401D01*
X96174035Y-85947830D01*
X96273903Y-85733663D01*
X96335063Y-85505408D01*
X96355659Y-85270000D01*
X96335063Y-85034592D01*
X96273903Y-84806337D01*
X96174035Y-84592171D01*
X96132022Y-84532169D01*
X96038494Y-84398597D01*
X95871402Y-84231506D01*
X95871396Y-84231501D01*
X95685842Y-84101575D01*
X95642217Y-84046998D01*
X95635023Y-83977500D01*
X95666546Y-83915145D01*
X95685842Y-83898425D01*
X95763519Y-83844035D01*
X95871401Y-83768495D01*
X96038495Y-83601401D01*
X96174035Y-83407830D01*
X96273903Y-83193663D01*
X96335063Y-82965408D01*
X96355659Y-82730000D01*
X96335063Y-82494592D01*
X96273903Y-82266337D01*
X96174035Y-82052171D01*
X96132022Y-81992169D01*
X96038494Y-81858597D01*
X95871402Y-81691506D01*
X95871396Y-81691501D01*
X95685842Y-81561575D01*
X95642217Y-81506998D01*
X95635023Y-81437500D01*
X95666546Y-81375145D01*
X95685842Y-81358425D01*
X95763519Y-81304035D01*
X95871401Y-81228495D01*
X95874913Y-81224983D01*
X115149500Y-81224983D01*
X115149500Y-82775001D01*
X115149501Y-82775018D01*
X115160000Y-82877796D01*
X115160001Y-82877799D01*
X115189032Y-82965408D01*
X115215186Y-83044334D01*
X115307288Y-83193656D01*
X115431344Y-83317712D01*
X115580666Y-83409814D01*
X115747203Y-83464999D01*
X115849991Y-83475500D01*
X117150008Y-83475499D01*
X117252797Y-83464999D01*
X117419334Y-83409814D01*
X117568656Y-83317712D01*
X117692712Y-83193656D01*
X117784814Y-83044334D01*
X117839999Y-82877797D01*
X117850500Y-82775009D01*
X117850499Y-81768713D01*
X120149500Y-81768713D01*
X120149500Y-82231286D01*
X120181700Y-82434592D01*
X120182754Y-82441243D01*
X120200088Y-82494592D01*
X120248444Y-82643414D01*
X120344951Y-82832820D01*
X120469890Y-83004786D01*
X120620213Y-83155109D01*
X120792179Y-83280048D01*
X120792181Y-83280049D01*
X120792184Y-83280051D01*
X120981588Y-83376557D01*
X121183757Y-83442246D01*
X121393713Y-83475500D01*
X121393714Y-83475500D01*
X121606286Y-83475500D01*
X121606287Y-83475500D01*
X121816243Y-83442246D01*
X122018412Y-83376557D01*
X122207816Y-83280051D01*
X122229789Y-83264086D01*
X122379786Y-83155109D01*
X122379788Y-83155106D01*
X122379792Y-83155104D01*
X122530104Y-83004792D01*
X122530106Y-83004788D01*
X122530109Y-83004786D01*
X122655048Y-82832820D01*
X122655047Y-82832820D01*
X122655051Y-82832816D01*
X122751557Y-82643412D01*
X122817246Y-82441243D01*
X122850500Y-82231287D01*
X122850500Y-81768713D01*
X122817246Y-81558757D01*
X122751557Y-81356588D01*
X122655051Y-81167184D01*
X122655049Y-81167181D01*
X122655048Y-81167179D01*
X122530109Y-80995213D01*
X122379786Y-80844890D01*
X122207820Y-80719951D01*
X122018414Y-80623444D01*
X122018413Y-80623443D01*
X122018412Y-80623443D01*
X121816243Y-80557754D01*
X121816241Y-80557753D01*
X121816240Y-80557753D01*
X121654957Y-80532208D01*
X121606287Y-80524500D01*
X121393713Y-80524500D01*
X121345042Y-80532208D01*
X121183760Y-80557753D01*
X120981585Y-80623444D01*
X120792179Y-80719951D01*
X120620213Y-80844890D01*
X120469890Y-80995213D01*
X120344951Y-81167179D01*
X120248444Y-81356585D01*
X120182753Y-81558760D01*
X120149500Y-81768713D01*
X117850499Y-81768713D01*
X117850499Y-81224992D01*
X117839999Y-81122203D01*
X117784814Y-80955666D01*
X117692712Y-80806344D01*
X117568656Y-80682288D01*
X117424971Y-80593663D01*
X117419336Y-80590187D01*
X117419331Y-80590185D01*
X117417862Y-80589698D01*
X117252797Y-80535001D01*
X117252795Y-80535000D01*
X117150010Y-80524500D01*
X115849998Y-80524500D01*
X115849981Y-80524501D01*
X115747203Y-80535000D01*
X115747200Y-80535001D01*
X115580668Y-80590185D01*
X115580663Y-80590187D01*
X115431342Y-80682289D01*
X115307289Y-80806342D01*
X115215187Y-80955663D01*
X115215185Y-80955668D01*
X115187349Y-81039670D01*
X115160001Y-81122203D01*
X115160001Y-81122204D01*
X115160000Y-81122204D01*
X115149500Y-81224983D01*
X95874913Y-81224983D01*
X96038495Y-81061401D01*
X96174035Y-80867830D01*
X96273903Y-80653663D01*
X96335063Y-80425408D01*
X96355659Y-80190000D01*
X96335063Y-79954592D01*
X96273903Y-79726337D01*
X96174035Y-79512171D01*
X96169363Y-79505499D01*
X96038496Y-79318600D01*
X95978493Y-79258597D01*
X95916567Y-79196671D01*
X95883084Y-79135351D01*
X95888068Y-79065659D01*
X95929939Y-79009725D01*
X95960915Y-78992810D01*
X96092331Y-78943796D01*
X96207546Y-78857546D01*
X96293796Y-78742331D01*
X96344091Y-78607483D01*
X96350500Y-78547873D01*
X96350499Y-76752128D01*
X96344091Y-76692517D01*
X96326920Y-76646480D01*
X96293797Y-76557671D01*
X96293793Y-76557664D01*
X96207547Y-76442455D01*
X96207544Y-76442452D01*
X96092335Y-76356206D01*
X96092328Y-76356202D01*
X95957482Y-76305908D01*
X95957483Y-76305908D01*
X95897883Y-76299501D01*
X95897881Y-76299500D01*
X95897873Y-76299500D01*
X95897864Y-76299500D01*
X94102129Y-76299500D01*
X94102123Y-76299501D01*
X94042516Y-76305908D01*
X93907671Y-76356202D01*
X93907664Y-76356206D01*
X93792455Y-76442452D01*
X93792452Y-76442455D01*
X93706206Y-76557664D01*
X93706202Y-76557671D01*
X93655908Y-76692517D01*
X93652801Y-76721420D01*
X93649501Y-76752123D01*
X93649500Y-76752135D01*
X93649500Y-78547870D01*
X93649501Y-78547876D01*
X93655908Y-78607483D01*
X93706202Y-78742328D01*
X93706206Y-78742335D01*
X93792452Y-78857544D01*
X93792455Y-78857547D01*
X93907664Y-78943793D01*
X93907671Y-78943797D01*
X94039081Y-78992810D01*
X94095015Y-79034681D01*
X94119432Y-79100145D01*
X94104580Y-79168418D01*
X94083430Y-79196673D01*
X93961503Y-79318600D01*
X93825965Y-79512169D01*
X93825964Y-79512171D01*
X93726098Y-79726335D01*
X93726094Y-79726344D01*
X93664938Y-79954586D01*
X93664936Y-79954596D01*
X93644341Y-80189999D01*
X92500500Y-80189999D01*
X92500500Y-72569999D01*
X93644341Y-72569999D01*
X93644341Y-72570000D01*
X93664936Y-72805403D01*
X93664938Y-72805413D01*
X93726094Y-73033655D01*
X93726096Y-73033659D01*
X93726097Y-73033663D01*
X93797988Y-73187834D01*
X93825965Y-73247830D01*
X93825967Y-73247834D01*
X93919493Y-73381402D01*
X93961505Y-73441401D01*
X94128599Y-73608495D01*
X94225384Y-73676265D01*
X94322165Y-73744032D01*
X94322167Y-73744033D01*
X94322170Y-73744035D01*
X94536337Y-73843903D01*
X94764592Y-73905063D01*
X94952918Y-73921539D01*
X94999999Y-73925659D01*
X95000000Y-73925659D01*
X95000001Y-73925659D01*
X95039234Y-73922226D01*
X95235408Y-73905063D01*
X95463663Y-73843903D01*
X95677830Y-73744035D01*
X95871401Y-73608495D01*
X96038495Y-73441401D01*
X96174035Y-73247830D01*
X96273903Y-73033663D01*
X96335063Y-72805408D01*
X96355659Y-72570000D01*
X96335063Y-72334592D01*
X96273903Y-72106337D01*
X96174035Y-71892171D01*
X96172849Y-71890476D01*
X96038494Y-71698597D01*
X95871402Y-71531506D01*
X95871395Y-71531501D01*
X95677834Y-71395967D01*
X95677830Y-71395965D01*
X95618453Y-71368277D01*
X95463663Y-71296097D01*
X95463659Y-71296096D01*
X95463655Y-71296094D01*
X95235413Y-71234938D01*
X95235403Y-71234936D01*
X95000001Y-71214341D01*
X94999999Y-71214341D01*
X94764596Y-71234936D01*
X94764586Y-71234938D01*
X94536344Y-71296094D01*
X94536335Y-71296098D01*
X94322171Y-71395964D01*
X94322169Y-71395965D01*
X94128597Y-71531505D01*
X93961505Y-71698597D01*
X93825965Y-71892169D01*
X93825964Y-71892171D01*
X93726098Y-72106335D01*
X93726094Y-72106344D01*
X93664938Y-72334586D01*
X93664936Y-72334596D01*
X93644341Y-72569999D01*
X92500500Y-72569999D01*
X92500500Y-57329999D01*
X93644341Y-57329999D01*
X93644341Y-57330000D01*
X93664936Y-57565403D01*
X93664938Y-57565413D01*
X93726094Y-57793655D01*
X93726096Y-57793659D01*
X93726097Y-57793663D01*
X93825965Y-58007830D01*
X93825967Y-58007834D01*
X93961501Y-58201395D01*
X93961506Y-58201402D01*
X94128597Y-58368493D01*
X94128603Y-58368498D01*
X94314158Y-58498425D01*
X94357783Y-58553002D01*
X94364977Y-58622500D01*
X94333454Y-58684855D01*
X94314158Y-58701575D01*
X94128597Y-58831505D01*
X93961505Y-58998597D01*
X93825965Y-59192169D01*
X93825964Y-59192171D01*
X93726098Y-59406335D01*
X93726094Y-59406344D01*
X93664938Y-59634586D01*
X93664936Y-59634596D01*
X93644341Y-59869999D01*
X93644341Y-59870000D01*
X93664936Y-60105403D01*
X93664938Y-60105413D01*
X93726094Y-60333655D01*
X93726096Y-60333659D01*
X93726097Y-60333663D01*
X93825965Y-60547830D01*
X93825967Y-60547834D01*
X93961501Y-60741395D01*
X93961506Y-60741402D01*
X94128597Y-60908493D01*
X94128603Y-60908498D01*
X94314158Y-61038425D01*
X94357783Y-61093002D01*
X94364977Y-61162500D01*
X94333454Y-61224855D01*
X94314158Y-61241575D01*
X94128597Y-61371505D01*
X93961505Y-61538597D01*
X93825965Y-61732169D01*
X93825964Y-61732171D01*
X93726098Y-61946335D01*
X93726094Y-61946344D01*
X93664938Y-62174586D01*
X93664936Y-62174596D01*
X93644341Y-62409999D01*
X93644341Y-62410000D01*
X93664936Y-62645403D01*
X93664938Y-62645413D01*
X93726094Y-62873655D01*
X93726096Y-62873659D01*
X93726097Y-62873663D01*
X93813210Y-63060476D01*
X93825965Y-63087830D01*
X93825967Y-63087834D01*
X93961501Y-63281395D01*
X93961506Y-63281402D01*
X94128597Y-63448493D01*
X94128603Y-63448498D01*
X94314158Y-63578425D01*
X94357783Y-63633002D01*
X94364977Y-63702500D01*
X94333454Y-63764855D01*
X94314158Y-63781575D01*
X94128597Y-63911505D01*
X93961505Y-64078597D01*
X93825965Y-64272169D01*
X93825964Y-64272171D01*
X93726098Y-64486335D01*
X93726094Y-64486344D01*
X93664938Y-64714586D01*
X93664936Y-64714596D01*
X93644341Y-64949999D01*
X93644341Y-64950000D01*
X93664936Y-65185403D01*
X93664938Y-65185413D01*
X93726094Y-65413655D01*
X93726096Y-65413659D01*
X93726097Y-65413663D01*
X93825965Y-65627830D01*
X93825967Y-65627834D01*
X93887598Y-65715851D01*
X93961505Y-65821401D01*
X94128599Y-65988495D01*
X94225384Y-66056265D01*
X94322165Y-66124032D01*
X94322167Y-66124033D01*
X94322170Y-66124035D01*
X94536337Y-66223903D01*
X94536343Y-66223904D01*
X94536344Y-66223905D01*
X94548313Y-66227112D01*
X94764592Y-66285063D01*
X94952918Y-66301539D01*
X94999999Y-66305659D01*
X95000000Y-66305659D01*
X95000001Y-66305659D01*
X95039234Y-66302226D01*
X95235408Y-66285063D01*
X95463663Y-66223903D01*
X95677830Y-66124035D01*
X95871401Y-65988495D01*
X96038495Y-65821401D01*
X96174035Y-65627830D01*
X96273903Y-65413663D01*
X96335063Y-65185408D01*
X96355659Y-64950000D01*
X96335063Y-64714592D01*
X96273903Y-64486337D01*
X96174035Y-64272171D01*
X96152491Y-64241402D01*
X96038494Y-64078597D01*
X95871402Y-63911506D01*
X95871396Y-63911501D01*
X95685842Y-63781575D01*
X95642217Y-63726998D01*
X95635023Y-63657500D01*
X95666546Y-63595145D01*
X95685842Y-63578425D01*
X95712067Y-63560062D01*
X95871401Y-63448495D01*
X96038495Y-63281401D01*
X96174035Y-63087830D01*
X96273903Y-62873663D01*
X96335063Y-62645408D01*
X96355659Y-62410000D01*
X96335063Y-62174592D01*
X96273903Y-61946337D01*
X96174035Y-61732171D01*
X96152491Y-61701402D01*
X96038494Y-61538597D01*
X95871402Y-61371506D01*
X95871396Y-61371501D01*
X95685842Y-61241575D01*
X95642217Y-61186998D01*
X95635023Y-61117500D01*
X95666546Y-61055145D01*
X95685842Y-61038425D01*
X95708026Y-61022891D01*
X95871401Y-60908495D01*
X96038495Y-60741401D01*
X96174035Y-60547830D01*
X96273903Y-60333663D01*
X96335063Y-60105408D01*
X96355659Y-59870000D01*
X96335063Y-59634592D01*
X96273903Y-59406337D01*
X96174035Y-59192171D01*
X96152491Y-59161402D01*
X96038494Y-58998597D01*
X95871402Y-58831506D01*
X95871396Y-58831501D01*
X95685842Y-58701575D01*
X95642217Y-58646998D01*
X95635023Y-58577500D01*
X95666546Y-58515145D01*
X95685842Y-58498425D01*
X95708026Y-58482891D01*
X95871401Y-58368495D01*
X96038495Y-58201401D01*
X96174035Y-58007830D01*
X96273903Y-57793663D01*
X96335063Y-57565408D01*
X96355659Y-57330000D01*
X96335063Y-57094592D01*
X96273903Y-56866337D01*
X96174035Y-56652171D01*
X96152490Y-56621402D01*
X96103449Y-56551363D01*
X97994500Y-56551363D01*
X97994500Y-75948640D01*
X97997397Y-76002688D01*
X97997397Y-76002689D01*
X98000229Y-76029022D01*
X98000232Y-76029049D01*
X98008885Y-76082445D01*
X98008885Y-76082447D01*
X98012096Y-76091055D01*
X98059168Y-76217257D01*
X98092653Y-76278580D01*
X98178877Y-76393761D01*
X98178881Y-76393765D01*
X98178886Y-76393771D01*
X98694058Y-76908942D01*
X99106239Y-77321123D01*
X99106255Y-77321137D01*
X99106262Y-77321144D01*
X99146480Y-77357271D01*
X99146492Y-77357281D01*
X99146500Y-77357288D01*
X99167142Y-77373922D01*
X99211026Y-77405567D01*
X99341903Y-77465338D01*
X99408942Y-77485023D01*
X99408946Y-77485024D01*
X99551362Y-77505500D01*
X99551365Y-77505500D01*
X100448640Y-77505500D01*
X100458786Y-77504955D01*
X100502678Y-77502603D01*
X100502686Y-77502602D01*
X100502688Y-77502602D01*
X100502689Y-77502602D01*
X100509682Y-77501849D01*
X100529036Y-77499769D01*
X100529046Y-77499767D01*
X100529049Y-77499767D01*
X100538648Y-77498211D01*
X100582448Y-77491114D01*
X100717257Y-77440832D01*
X100778580Y-77407347D01*
X100893761Y-77321123D01*
X101821123Y-76393761D01*
X101857288Y-76353500D01*
X101873922Y-76332858D01*
X101905567Y-76288974D01*
X101965338Y-76158097D01*
X101985023Y-76091058D01*
X101985024Y-76091054D01*
X102005500Y-75948638D01*
X102005500Y-75100000D01*
X105094540Y-75100000D01*
X105114326Y-75288256D01*
X105114327Y-75288259D01*
X105172818Y-75468277D01*
X105172821Y-75468284D01*
X105267467Y-75632216D01*
X105353562Y-75727834D01*
X105394129Y-75772888D01*
X105547265Y-75884148D01*
X105547270Y-75884151D01*
X105720192Y-75961142D01*
X105720197Y-75961144D01*
X105905354Y-76000500D01*
X105905355Y-76000500D01*
X106094644Y-76000500D01*
X106094646Y-76000500D01*
X106279803Y-75961144D01*
X106452730Y-75884151D01*
X106605871Y-75772888D01*
X106732533Y-75632216D01*
X106827179Y-75468284D01*
X106885674Y-75288256D01*
X106905460Y-75100000D01*
X106885674Y-74911744D01*
X106827179Y-74731716D01*
X106732533Y-74567784D01*
X106605871Y-74427112D01*
X106605870Y-74427111D01*
X106452734Y-74315851D01*
X106452729Y-74315848D01*
X106279807Y-74238857D01*
X106279802Y-74238855D01*
X106134001Y-74207865D01*
X106094646Y-74199500D01*
X105905354Y-74199500D01*
X105872897Y-74206398D01*
X105720197Y-74238855D01*
X105720192Y-74238857D01*
X105547270Y-74315848D01*
X105547265Y-74315851D01*
X105394129Y-74427111D01*
X105267466Y-74567785D01*
X105172821Y-74731715D01*
X105172818Y-74731722D01*
X105145891Y-74814596D01*
X105114326Y-74911744D01*
X105094540Y-75100000D01*
X102005500Y-75100000D01*
X102005500Y-71956498D01*
X102025185Y-71889459D01*
X102077989Y-71843704D01*
X102147147Y-71833760D01*
X102179936Y-71843219D01*
X102220192Y-71861142D01*
X102220197Y-71861144D01*
X102405354Y-71900500D01*
X102405355Y-71900500D01*
X102594644Y-71900500D01*
X102594646Y-71900500D01*
X102779803Y-71861144D01*
X102952730Y-71784151D01*
X103105871Y-71672888D01*
X103232533Y-71532216D01*
X103327179Y-71368284D01*
X103385674Y-71188256D01*
X103405460Y-71000000D01*
X103385674Y-70811744D01*
X103327179Y-70631716D01*
X103251133Y-70500000D01*
X103994540Y-70500000D01*
X104014326Y-70688256D01*
X104014327Y-70688259D01*
X104072818Y-70868277D01*
X104072821Y-70868284D01*
X104167467Y-71032216D01*
X104228929Y-71100476D01*
X104294129Y-71172888D01*
X104447265Y-71284148D01*
X104447270Y-71284151D01*
X104620192Y-71361142D01*
X104620197Y-71361144D01*
X104805354Y-71400500D01*
X104805355Y-71400500D01*
X104994644Y-71400500D01*
X104994646Y-71400500D01*
X105179803Y-71361144D01*
X105352730Y-71284151D01*
X105505871Y-71172888D01*
X105625528Y-71039996D01*
X112364435Y-71039996D01*
X112364435Y-71040003D01*
X112384630Y-71219249D01*
X112384631Y-71219254D01*
X112444211Y-71389523D01*
X112485122Y-71454632D01*
X112540184Y-71542262D01*
X112667738Y-71669816D01*
X112677244Y-71675789D01*
X112812725Y-71760918D01*
X112820478Y-71765789D01*
X112935712Y-71806111D01*
X112990745Y-71825368D01*
X112990750Y-71825369D01*
X113169996Y-71845565D01*
X113170000Y-71845565D01*
X113170002Y-71845565D01*
X113229473Y-71838864D01*
X113298295Y-71850918D01*
X113348350Y-71896111D01*
X113440182Y-72042260D01*
X113440184Y-72042262D01*
X113567738Y-72169816D01*
X113577244Y-72175789D01*
X113718604Y-72264612D01*
X113720478Y-72265789D01*
X113873275Y-72319255D01*
X113890745Y-72325368D01*
X113890750Y-72325369D01*
X114069996Y-72345565D01*
X114070000Y-72345565D01*
X114070004Y-72345565D01*
X114249246Y-72325369D01*
X114249245Y-72325369D01*
X114249255Y-72325368D01*
X114254725Y-72323453D01*
X114324499Y-72319888D01*
X114385129Y-72354612D01*
X114412724Y-72399537D01*
X114419623Y-72419254D01*
X114444210Y-72489521D01*
X114457078Y-72510000D01*
X114540184Y-72642262D01*
X114667738Y-72769816D01*
X114724390Y-72805413D01*
X114814904Y-72862287D01*
X114820478Y-72865789D01*
X114990739Y-72925366D01*
X114990745Y-72925368D01*
X114990750Y-72925369D01*
X115169996Y-72945565D01*
X115170000Y-72945565D01*
X115170004Y-72945565D01*
X115349249Y-72925369D01*
X115349251Y-72925368D01*
X115349255Y-72925368D01*
X115349258Y-72925366D01*
X115349262Y-72925366D01*
X115519516Y-72865791D01*
X115519515Y-72865791D01*
X115519522Y-72865789D01*
X115525098Y-72862285D01*
X115592328Y-72843283D01*
X115659164Y-72863646D01*
X115667252Y-72869510D01*
X115667736Y-72869814D01*
X115667738Y-72869816D01*
X115756150Y-72925369D01*
X115804206Y-72955565D01*
X115820478Y-72965789D01*
X115990745Y-73025368D01*
X115990750Y-73025369D01*
X116169996Y-73045565D01*
X116170000Y-73045565D01*
X116170004Y-73045565D01*
X116349249Y-73025369D01*
X116349252Y-73025368D01*
X116349255Y-73025368D01*
X116519522Y-72965789D01*
X116672262Y-72869816D01*
X116799816Y-72742262D01*
X116895789Y-72589522D01*
X116955368Y-72419255D01*
X116955369Y-72419249D01*
X116975565Y-72240003D01*
X116975565Y-72239996D01*
X116955369Y-72060750D01*
X116955368Y-72060745D01*
X116950326Y-72046335D01*
X116895789Y-71890478D01*
X116895188Y-71889522D01*
X116828977Y-71784148D01*
X116799816Y-71737738D01*
X116672262Y-71610184D01*
X116608071Y-71569850D01*
X116519523Y-71514211D01*
X116349254Y-71454631D01*
X116349249Y-71454630D01*
X116170004Y-71434435D01*
X116169996Y-71434435D01*
X115990750Y-71454630D01*
X115990737Y-71454633D01*
X115820479Y-71514209D01*
X115814892Y-71517720D01*
X115747654Y-71536714D01*
X115680820Y-71516342D01*
X115672748Y-71510490D01*
X115672263Y-71510185D01*
X115672262Y-71510184D01*
X115583850Y-71454631D01*
X115519523Y-71414211D01*
X115349254Y-71354631D01*
X115349249Y-71354630D01*
X115170004Y-71334435D01*
X115169996Y-71334435D01*
X114990746Y-71354631D01*
X114985268Y-71356548D01*
X114915489Y-71360107D01*
X114854863Y-71325377D01*
X114827275Y-71280460D01*
X114811346Y-71234937D01*
X114795789Y-71190478D01*
X114784736Y-71172888D01*
X114701237Y-71040000D01*
X114699816Y-71037738D01*
X114572262Y-70910184D01*
X114505579Y-70868284D01*
X114419523Y-70814211D01*
X114249254Y-70754631D01*
X114249249Y-70754630D01*
X114070004Y-70734435D01*
X114070001Y-70734435D01*
X114070000Y-70734435D01*
X114010523Y-70741135D01*
X113941702Y-70729080D01*
X113891648Y-70683887D01*
X113799815Y-70537737D01*
X113672262Y-70410184D01*
X113519523Y-70314211D01*
X113349254Y-70254631D01*
X113349249Y-70254630D01*
X113170004Y-70234435D01*
X113169996Y-70234435D01*
X112990750Y-70254630D01*
X112990745Y-70254631D01*
X112820476Y-70314211D01*
X112667737Y-70410184D01*
X112540184Y-70537737D01*
X112444211Y-70690476D01*
X112384631Y-70860745D01*
X112384630Y-70860750D01*
X112364435Y-71039996D01*
X105625528Y-71039996D01*
X105632533Y-71032216D01*
X105727179Y-70868284D01*
X105785674Y-70688256D01*
X105805460Y-70500000D01*
X105785674Y-70311744D01*
X105727179Y-70131716D01*
X105632533Y-69967784D01*
X105505871Y-69827112D01*
X105505870Y-69827111D01*
X105352734Y-69715851D01*
X105352729Y-69715848D01*
X105179807Y-69638857D01*
X105179802Y-69638855D01*
X105034001Y-69607865D01*
X104994646Y-69599500D01*
X104805354Y-69599500D01*
X104799290Y-69600789D01*
X104620197Y-69638855D01*
X104620192Y-69638857D01*
X104447270Y-69715848D01*
X104447265Y-69715851D01*
X104294129Y-69827111D01*
X104167466Y-69967785D01*
X104072821Y-70131715D01*
X104072818Y-70131722D01*
X104014327Y-70311740D01*
X104014326Y-70311744D01*
X103994540Y-70500000D01*
X103251133Y-70500000D01*
X103232533Y-70467784D01*
X103105871Y-70327112D01*
X103105870Y-70327111D01*
X102952734Y-70215851D01*
X102952729Y-70215848D01*
X102779807Y-70138857D01*
X102779802Y-70138855D01*
X102634001Y-70107865D01*
X102594646Y-70099500D01*
X102405354Y-70099500D01*
X102372897Y-70106398D01*
X102220197Y-70138855D01*
X102220192Y-70138857D01*
X102179936Y-70156781D01*
X102110686Y-70166066D01*
X102047409Y-70136438D01*
X102010196Y-70077303D01*
X102005500Y-70043502D01*
X102005500Y-68999996D01*
X112694435Y-68999996D01*
X112694435Y-69000003D01*
X112714630Y-69179249D01*
X112714631Y-69179254D01*
X112774211Y-69349523D01*
X112810630Y-69407483D01*
X112870184Y-69502262D01*
X112997738Y-69629816D01*
X113088080Y-69686582D01*
X113134661Y-69715851D01*
X113150478Y-69725789D01*
X113320745Y-69785368D01*
X113320750Y-69785369D01*
X113499996Y-69805565D01*
X113500000Y-69805565D01*
X113500004Y-69805565D01*
X113679249Y-69785369D01*
X113679252Y-69785368D01*
X113679255Y-69785368D01*
X113849522Y-69725789D01*
X114002262Y-69629816D01*
X114129816Y-69502262D01*
X114225789Y-69349522D01*
X114285368Y-69179255D01*
X114305565Y-69000000D01*
X114291481Y-68875003D01*
X114285369Y-68820750D01*
X114285368Y-68820745D01*
X114241630Y-68695750D01*
X114225789Y-68650478D01*
X114129816Y-68497738D01*
X114002262Y-68370184D01*
X113849523Y-68274211D01*
X113679254Y-68214631D01*
X113679249Y-68214630D01*
X113500004Y-68194435D01*
X113499996Y-68194435D01*
X113320750Y-68214630D01*
X113320745Y-68214631D01*
X113150476Y-68274211D01*
X112997737Y-68370184D01*
X112870184Y-68497737D01*
X112774211Y-68650476D01*
X112714631Y-68820745D01*
X112714630Y-68820750D01*
X112694435Y-68999996D01*
X102005500Y-68999996D01*
X102005500Y-66900000D01*
X105994540Y-66900000D01*
X106014326Y-67088256D01*
X106014327Y-67088259D01*
X106072818Y-67268277D01*
X106072821Y-67268284D01*
X106167467Y-67432216D01*
X106275443Y-67552135D01*
X106294129Y-67572888D01*
X106447265Y-67684148D01*
X106447270Y-67684151D01*
X106620192Y-67761142D01*
X106620197Y-67761144D01*
X106805354Y-67800500D01*
X106805355Y-67800500D01*
X106994644Y-67800500D01*
X106994646Y-67800500D01*
X107179803Y-67761144D01*
X107352730Y-67684151D01*
X107505871Y-67572888D01*
X107632533Y-67432216D01*
X107727179Y-67268284D01*
X107785674Y-67088256D01*
X107805460Y-66900000D01*
X107785674Y-66711744D01*
X107727179Y-66531716D01*
X107708868Y-66500000D01*
X110594540Y-66500000D01*
X110614326Y-66688256D01*
X110614327Y-66688259D01*
X110672818Y-66868277D01*
X110672821Y-66868284D01*
X110767467Y-67032216D01*
X110894129Y-67172888D01*
X111047265Y-67284148D01*
X111047270Y-67284151D01*
X111220192Y-67361142D01*
X111220197Y-67361144D01*
X111405354Y-67400500D01*
X111405355Y-67400500D01*
X111594644Y-67400500D01*
X111594646Y-67400500D01*
X111779803Y-67361144D01*
X111952730Y-67284151D01*
X112105871Y-67172888D01*
X112232533Y-67032216D01*
X112327179Y-66868284D01*
X112385674Y-66688256D01*
X112405460Y-66500000D01*
X112385674Y-66311744D01*
X112327179Y-66131716D01*
X112232533Y-65967784D01*
X112105871Y-65827112D01*
X112098012Y-65821402D01*
X111952734Y-65715851D01*
X111952729Y-65715848D01*
X111779807Y-65638857D01*
X111779802Y-65638855D01*
X111634001Y-65607865D01*
X111594646Y-65599500D01*
X111405354Y-65599500D01*
X111372897Y-65606398D01*
X111220197Y-65638855D01*
X111220192Y-65638857D01*
X111047270Y-65715848D01*
X111047265Y-65715851D01*
X110894129Y-65827111D01*
X110767466Y-65967785D01*
X110672821Y-66131715D01*
X110672818Y-66131722D01*
X110622995Y-66285063D01*
X110614326Y-66311744D01*
X110594540Y-66500000D01*
X107708868Y-66500000D01*
X107632533Y-66367784D01*
X107505871Y-66227112D01*
X107501457Y-66223905D01*
X107352734Y-66115851D01*
X107352729Y-66115848D01*
X107179807Y-66038857D01*
X107179802Y-66038855D01*
X107034001Y-66007865D01*
X106994646Y-65999500D01*
X106805354Y-65999500D01*
X106772897Y-66006398D01*
X106620197Y-66038855D01*
X106620192Y-66038857D01*
X106447270Y-66115848D01*
X106447265Y-66115851D01*
X106294129Y-66227111D01*
X106167466Y-66367785D01*
X106072821Y-66531715D01*
X106072818Y-66531722D01*
X106014327Y-66711740D01*
X106014326Y-66711744D01*
X105994540Y-66900000D01*
X102005500Y-66900000D01*
X102005500Y-64299996D01*
X107694435Y-64299996D01*
X107694435Y-64300003D01*
X107714630Y-64479249D01*
X107714631Y-64479254D01*
X107774211Y-64649523D01*
X107821546Y-64724855D01*
X107870184Y-64802262D01*
X107997738Y-64929816D01*
X108150478Y-65025789D01*
X108320745Y-65085368D01*
X108320750Y-65085369D01*
X108499996Y-65105565D01*
X108500000Y-65105565D01*
X108500004Y-65105565D01*
X108679249Y-65085369D01*
X108679252Y-65085368D01*
X108679255Y-65085368D01*
X108849522Y-65025789D01*
X109002262Y-64929816D01*
X109129816Y-64802262D01*
X109225789Y-64649522D01*
X109285368Y-64479255D01*
X109293341Y-64408498D01*
X109293500Y-64407083D01*
X109320566Y-64342669D01*
X109378161Y-64303114D01*
X109430604Y-64297746D01*
X109499998Y-64305565D01*
X109500000Y-64305565D01*
X109500004Y-64305565D01*
X109679249Y-64285369D01*
X109679252Y-64285368D01*
X109679255Y-64285368D01*
X109849522Y-64225789D01*
X110002262Y-64129816D01*
X110129816Y-64002262D01*
X110225789Y-63849522D01*
X110285368Y-63679255D01*
X110286390Y-63670184D01*
X110305565Y-63500003D01*
X110305565Y-63499996D01*
X110285369Y-63320750D01*
X110285368Y-63320745D01*
X110225789Y-63150478D01*
X110225188Y-63149522D01*
X110129815Y-62997737D01*
X110082074Y-62949996D01*
X110688195Y-62949996D01*
X110688195Y-62950003D01*
X110708390Y-63129249D01*
X110708391Y-63129254D01*
X110767971Y-63299523D01*
X110812255Y-63370000D01*
X110863944Y-63452262D01*
X110991498Y-63579816D01*
X111055616Y-63620104D01*
X111135317Y-63670184D01*
X111144238Y-63675789D01*
X111220574Y-63702500D01*
X111314505Y-63735368D01*
X111314510Y-63735369D01*
X111493756Y-63755565D01*
X111493760Y-63755565D01*
X111493764Y-63755565D01*
X111673009Y-63735369D01*
X111673012Y-63735368D01*
X111673015Y-63735368D01*
X111843282Y-63675789D01*
X111996022Y-63579816D01*
X112123576Y-63452262D01*
X112219549Y-63299522D01*
X112279128Y-63129255D01*
X112283795Y-63087834D01*
X112299325Y-62950003D01*
X112299325Y-62949996D01*
X112279129Y-62770750D01*
X112279128Y-62770745D01*
X112259493Y-62714631D01*
X112219549Y-62600478D01*
X112123576Y-62447738D01*
X111996022Y-62320184D01*
X111843283Y-62224211D01*
X111673014Y-62164631D01*
X111673009Y-62164630D01*
X111493764Y-62144435D01*
X111493756Y-62144435D01*
X111314510Y-62164630D01*
X111314505Y-62164631D01*
X111144236Y-62224211D01*
X110991497Y-62320184D01*
X110863944Y-62447737D01*
X110767971Y-62600476D01*
X110708391Y-62770745D01*
X110708390Y-62770750D01*
X110688195Y-62949996D01*
X110082074Y-62949996D01*
X110002262Y-62870184D01*
X109849523Y-62774211D01*
X109679254Y-62714631D01*
X109679249Y-62714630D01*
X109500004Y-62694435D01*
X109499996Y-62694435D01*
X109320750Y-62714630D01*
X109320745Y-62714631D01*
X109150476Y-62774211D01*
X108997737Y-62870184D01*
X108870184Y-62997737D01*
X108774211Y-63150476D01*
X108714631Y-63320745D01*
X108714630Y-63320749D01*
X108706499Y-63392917D01*
X108679432Y-63457331D01*
X108621837Y-63496886D01*
X108569396Y-63502253D01*
X108500004Y-63494435D01*
X108499996Y-63494435D01*
X108320750Y-63514630D01*
X108320745Y-63514631D01*
X108150476Y-63574211D01*
X107997737Y-63670184D01*
X107870184Y-63797737D01*
X107774211Y-63950476D01*
X107714631Y-64120745D01*
X107714630Y-64120750D01*
X107694435Y-64299996D01*
X102005500Y-64299996D01*
X102005500Y-57760745D01*
X102025185Y-57693706D01*
X102041819Y-57673064D01*
X104673064Y-55041819D01*
X104734387Y-55008334D01*
X104760745Y-55005500D01*
X119239254Y-55005500D01*
X119306293Y-55025185D01*
X119326935Y-55041819D01*
X119958181Y-55673065D01*
X119991666Y-55734388D01*
X119994500Y-55760746D01*
X119994500Y-74739254D01*
X119974815Y-74806293D01*
X119958181Y-74826935D01*
X119326935Y-75458181D01*
X119265612Y-75491666D01*
X119239254Y-75494500D01*
X115051360Y-75494500D01*
X114997311Y-75497397D01*
X114997310Y-75497397D01*
X114970977Y-75500229D01*
X114970950Y-75500232D01*
X114917554Y-75508885D01*
X114917552Y-75508885D01*
X114782747Y-75559166D01*
X114721422Y-75592651D01*
X114606240Y-75678876D01*
X114606228Y-75678886D01*
X113678892Y-76606223D01*
X113678855Y-76606262D01*
X113642728Y-76646480D01*
X113642718Y-76646492D01*
X113626076Y-76667143D01*
X113594433Y-76711025D01*
X113534663Y-76841899D01*
X113514976Y-76908944D01*
X113513738Y-76917554D01*
X113494501Y-77051359D01*
X113494500Y-77051363D01*
X113494500Y-77948640D01*
X113497397Y-78002688D01*
X113497397Y-78002689D01*
X113500229Y-78029022D01*
X113500232Y-78029049D01*
X113508885Y-78082445D01*
X113508885Y-78082447D01*
X113512096Y-78091055D01*
X113559168Y-78217257D01*
X113592653Y-78278580D01*
X113678877Y-78393761D01*
X113678881Y-78393765D01*
X113678886Y-78393771D01*
X114142660Y-78857544D01*
X114606239Y-79321123D01*
X114606255Y-79321137D01*
X114606262Y-79321144D01*
X114646480Y-79357271D01*
X114646492Y-79357281D01*
X114646500Y-79357288D01*
X114667142Y-79373922D01*
X114711026Y-79405567D01*
X114841903Y-79465338D01*
X114908942Y-79485023D01*
X114908946Y-79485024D01*
X115051362Y-79505500D01*
X115051365Y-79505500D01*
X138448640Y-79505500D01*
X138458786Y-79504955D01*
X138502678Y-79502603D01*
X138502686Y-79502602D01*
X138502688Y-79502602D01*
X138502689Y-79502602D01*
X138509682Y-79501849D01*
X138529036Y-79499769D01*
X138529046Y-79499767D01*
X138529049Y-79499767D01*
X138538648Y-79498211D01*
X138582448Y-79491114D01*
X138717257Y-79440832D01*
X138778580Y-79407347D01*
X138893761Y-79321123D01*
X139821123Y-78393761D01*
X139857288Y-78353500D01*
X139873922Y-78332858D01*
X139905567Y-78288974D01*
X139965338Y-78158097D01*
X139985023Y-78091058D01*
X139985024Y-78091054D01*
X140005500Y-77948638D01*
X140005500Y-77051362D01*
X140002603Y-76997322D01*
X139999769Y-76970964D01*
X139991114Y-76917552D01*
X139940832Y-76782743D01*
X139907347Y-76721420D01*
X139821123Y-76606239D01*
X139821118Y-76606234D01*
X139821113Y-76606228D01*
X138893776Y-75678892D01*
X138893770Y-75678886D01*
X138893761Y-75678877D01*
X138893737Y-75678855D01*
X138853519Y-75642728D01*
X138853507Y-75642718D01*
X138832856Y-75626076D01*
X138788974Y-75594433D01*
X138658100Y-75534663D01*
X138591055Y-75514976D01*
X138543582Y-75508150D01*
X138448638Y-75494500D01*
X138448636Y-75494500D01*
X129689333Y-75494500D01*
X129622294Y-75474815D01*
X129576539Y-75422011D01*
X129566595Y-75352853D01*
X129571402Y-75332183D01*
X129579161Y-75308300D01*
X129585674Y-75288256D01*
X129605460Y-75100000D01*
X129585674Y-74911744D01*
X129527179Y-74731716D01*
X129432533Y-74567784D01*
X129305871Y-74427112D01*
X129305870Y-74427111D01*
X129152734Y-74315851D01*
X129152729Y-74315848D01*
X128979807Y-74238857D01*
X128979802Y-74238855D01*
X128834001Y-74207865D01*
X128794646Y-74199500D01*
X128605354Y-74199500D01*
X128572897Y-74206398D01*
X128420197Y-74238855D01*
X128420192Y-74238857D01*
X128247270Y-74315848D01*
X128247265Y-74315851D01*
X128094129Y-74427111D01*
X127967466Y-74567785D01*
X127872821Y-74731715D01*
X127872818Y-74731722D01*
X127845891Y-74814596D01*
X127814326Y-74911744D01*
X127794540Y-75100000D01*
X127814326Y-75288256D01*
X127814326Y-75288258D01*
X127814327Y-75288260D01*
X127828598Y-75332183D01*
X127830593Y-75402024D01*
X127794512Y-75461857D01*
X127731811Y-75492684D01*
X127710667Y-75494500D01*
X125260746Y-75494500D01*
X125193707Y-75474815D01*
X125173065Y-75458181D01*
X124541819Y-74826935D01*
X124508334Y-74765612D01*
X124505500Y-74739254D01*
X124505500Y-71956498D01*
X124525185Y-71889459D01*
X124577989Y-71843704D01*
X124647147Y-71833760D01*
X124679936Y-71843219D01*
X124720192Y-71861142D01*
X124720197Y-71861144D01*
X124905354Y-71900500D01*
X124905355Y-71900500D01*
X125094644Y-71900500D01*
X125094646Y-71900500D01*
X125279803Y-71861144D01*
X125452730Y-71784151D01*
X125605871Y-71672888D01*
X125732533Y-71532216D01*
X125827179Y-71368284D01*
X125885674Y-71188256D01*
X125905460Y-71000000D01*
X125885674Y-70811744D01*
X125827179Y-70631716D01*
X125751133Y-70500000D01*
X126594540Y-70500000D01*
X126614326Y-70688256D01*
X126614327Y-70688259D01*
X126672818Y-70868277D01*
X126672821Y-70868284D01*
X126767467Y-71032216D01*
X126828929Y-71100476D01*
X126894129Y-71172888D01*
X127047265Y-71284148D01*
X127047270Y-71284151D01*
X127220192Y-71361142D01*
X127220197Y-71361144D01*
X127405354Y-71400500D01*
X127405355Y-71400500D01*
X127594644Y-71400500D01*
X127594646Y-71400500D01*
X127779803Y-71361144D01*
X127952730Y-71284151D01*
X128105871Y-71172888D01*
X128232533Y-71032216D01*
X128280003Y-70949996D01*
X135044435Y-70949996D01*
X135044435Y-70950003D01*
X135064630Y-71129249D01*
X135064631Y-71129254D01*
X135124211Y-71299523D01*
X135216698Y-71446714D01*
X135220184Y-71452262D01*
X135347738Y-71579816D01*
X135438080Y-71636582D01*
X135455833Y-71647737D01*
X135500478Y-71675789D01*
X135670745Y-71735368D01*
X135670750Y-71735369D01*
X135849996Y-71755565D01*
X135850000Y-71755565D01*
X135850002Y-71755565D01*
X135909473Y-71748864D01*
X135978295Y-71760918D01*
X136028350Y-71806111D01*
X136120182Y-71952260D01*
X136120184Y-71952262D01*
X136247738Y-72079816D01*
X136400478Y-72175789D01*
X136553275Y-72229255D01*
X136570745Y-72235368D01*
X136570750Y-72235369D01*
X136749996Y-72255565D01*
X136750000Y-72255565D01*
X136750004Y-72255565D01*
X136929246Y-72235369D01*
X136929245Y-72235369D01*
X136929255Y-72235368D01*
X136934725Y-72233453D01*
X137004499Y-72229888D01*
X137065129Y-72264612D01*
X137092724Y-72309537D01*
X137104964Y-72344518D01*
X137124210Y-72399521D01*
X137136606Y-72419249D01*
X137220184Y-72552262D01*
X137347738Y-72679816D01*
X137411928Y-72720149D01*
X137494904Y-72772287D01*
X137500478Y-72775789D01*
X137670739Y-72835366D01*
X137670745Y-72835368D01*
X137670750Y-72835369D01*
X137849996Y-72855565D01*
X137850000Y-72855565D01*
X137850004Y-72855565D01*
X138029249Y-72835369D01*
X138029251Y-72835368D01*
X138029255Y-72835368D01*
X138029258Y-72835366D01*
X138029262Y-72835366D01*
X138199516Y-72775791D01*
X138199515Y-72775791D01*
X138199522Y-72775789D01*
X138205098Y-72772285D01*
X138272328Y-72753283D01*
X138339164Y-72773646D01*
X138347252Y-72779510D01*
X138347736Y-72779814D01*
X138347738Y-72779816D01*
X138436150Y-72835369D01*
X138484561Y-72865788D01*
X138500478Y-72875789D01*
X138670745Y-72935368D01*
X138670750Y-72935369D01*
X138849996Y-72955565D01*
X138850000Y-72955565D01*
X138850004Y-72955565D01*
X139029249Y-72935369D01*
X139029252Y-72935368D01*
X139029255Y-72935368D01*
X139199522Y-72875789D01*
X139352262Y-72779816D01*
X139479816Y-72652262D01*
X139569206Y-72509999D01*
X141944341Y-72509999D01*
X141944341Y-72510000D01*
X141964936Y-72745403D01*
X141964938Y-72745413D01*
X142026094Y-72973655D01*
X142026096Y-72973659D01*
X142026097Y-72973663D01*
X142050208Y-73025368D01*
X142125965Y-73187830D01*
X142125967Y-73187834D01*
X142261501Y-73381395D01*
X142261506Y-73381402D01*
X142428597Y-73548493D01*
X142428603Y-73548498D01*
X142614158Y-73678425D01*
X142657783Y-73733002D01*
X142664977Y-73802500D01*
X142633454Y-73864855D01*
X142614158Y-73881575D01*
X142428597Y-74011505D01*
X142261505Y-74178597D01*
X142125965Y-74372169D01*
X142125964Y-74372171D01*
X142026098Y-74586335D01*
X142026094Y-74586344D01*
X141964938Y-74814586D01*
X141964936Y-74814596D01*
X141944341Y-75049999D01*
X141944341Y-75050000D01*
X141964936Y-75285403D01*
X141964938Y-75285413D01*
X142026094Y-75513655D01*
X142026096Y-75513659D01*
X142026097Y-75513663D01*
X142086274Y-75642712D01*
X142125965Y-75727830D01*
X142125967Y-75727834D01*
X142261501Y-75921395D01*
X142261506Y-75921402D01*
X142428597Y-76088493D01*
X142428603Y-76088498D01*
X142614158Y-76218425D01*
X142657783Y-76273002D01*
X142664977Y-76342500D01*
X142633454Y-76404855D01*
X142614158Y-76421575D01*
X142428597Y-76551505D01*
X142261505Y-76718597D01*
X142125965Y-76912169D01*
X142125964Y-76912171D01*
X142026098Y-77126335D01*
X142026094Y-77126344D01*
X141964938Y-77354586D01*
X141964936Y-77354596D01*
X141944341Y-77589999D01*
X141944341Y-77590000D01*
X141964936Y-77825403D01*
X141964938Y-77825413D01*
X142026094Y-78053655D01*
X142026096Y-78053659D01*
X142026097Y-78053663D01*
X142043535Y-78091058D01*
X142125965Y-78267830D01*
X142125967Y-78267834D01*
X142261501Y-78461395D01*
X142261506Y-78461402D01*
X142428597Y-78628493D01*
X142428603Y-78628498D01*
X142614158Y-78758425D01*
X142657783Y-78813002D01*
X142664977Y-78882500D01*
X142633454Y-78944855D01*
X142614158Y-78961575D01*
X142428597Y-79091505D01*
X142261505Y-79258597D01*
X142125965Y-79452169D01*
X142125964Y-79452171D01*
X142026098Y-79666335D01*
X142026094Y-79666344D01*
X141964938Y-79894586D01*
X141964936Y-79894596D01*
X141944341Y-80129999D01*
X141944341Y-80130000D01*
X141964936Y-80365403D01*
X141964938Y-80365413D01*
X142026094Y-80593655D01*
X142026096Y-80593659D01*
X142026097Y-80593663D01*
X142084986Y-80719951D01*
X142125965Y-80807830D01*
X142125967Y-80807834D01*
X142261501Y-81001395D01*
X142261506Y-81001402D01*
X142428597Y-81168493D01*
X142428603Y-81168498D01*
X142614158Y-81298425D01*
X142657783Y-81353002D01*
X142664977Y-81422500D01*
X142633454Y-81484855D01*
X142614158Y-81501575D01*
X142428597Y-81631505D01*
X142261505Y-81798597D01*
X142125965Y-81992169D01*
X142125964Y-81992171D01*
X142026098Y-82206335D01*
X142026094Y-82206344D01*
X141964938Y-82434586D01*
X141964936Y-82434596D01*
X141944341Y-82669999D01*
X141944341Y-82670000D01*
X141964936Y-82905403D01*
X141964938Y-82905413D01*
X142026094Y-83133655D01*
X142026096Y-83133659D01*
X142026097Y-83133663D01*
X142054073Y-83193657D01*
X142125965Y-83347830D01*
X142125967Y-83347834D01*
X142261501Y-83541395D01*
X142261506Y-83541402D01*
X142428597Y-83708493D01*
X142428603Y-83708498D01*
X142614158Y-83838425D01*
X142657783Y-83893002D01*
X142664977Y-83962500D01*
X142633454Y-84024855D01*
X142614158Y-84041575D01*
X142428597Y-84171505D01*
X142261505Y-84338597D01*
X142125965Y-84532169D01*
X142125964Y-84532171D01*
X142026098Y-84746335D01*
X142026094Y-84746344D01*
X141964938Y-84974586D01*
X141964936Y-84974596D01*
X141944341Y-85209999D01*
X141944341Y-85210000D01*
X141964936Y-85445403D01*
X141964938Y-85445413D01*
X142026094Y-85673655D01*
X142026096Y-85673659D01*
X142026097Y-85673663D01*
X142054072Y-85733655D01*
X142125965Y-85887830D01*
X142125967Y-85887834D01*
X142261501Y-86081395D01*
X142261506Y-86081402D01*
X142428597Y-86248493D01*
X142428603Y-86248498D01*
X142614158Y-86378425D01*
X142657783Y-86433002D01*
X142664977Y-86502500D01*
X142633454Y-86564855D01*
X142614158Y-86581575D01*
X142428597Y-86711505D01*
X142261505Y-86878597D01*
X142125965Y-87072169D01*
X142125964Y-87072171D01*
X142026098Y-87286335D01*
X142026094Y-87286344D01*
X141964938Y-87514586D01*
X141964936Y-87514596D01*
X141944341Y-87749999D01*
X141944341Y-87750000D01*
X141964936Y-87985403D01*
X141964938Y-87985413D01*
X142026094Y-88213655D01*
X142026096Y-88213659D01*
X142026097Y-88213663D01*
X142093288Y-88357754D01*
X142125965Y-88427830D01*
X142125967Y-88427834D01*
X142234118Y-88582288D01*
X142261501Y-88621396D01*
X142261506Y-88621402D01*
X142383430Y-88743326D01*
X142416915Y-88804649D01*
X142411931Y-88874341D01*
X142370059Y-88930274D01*
X142339083Y-88947189D01*
X142207669Y-88996203D01*
X142207664Y-88996206D01*
X142092455Y-89082452D01*
X142092452Y-89082455D01*
X142006206Y-89197664D01*
X142006202Y-89197671D01*
X141955908Y-89332517D01*
X141953087Y-89358760D01*
X141949501Y-89392123D01*
X141949500Y-89392135D01*
X141949500Y-91187870D01*
X141949501Y-91187876D01*
X141955908Y-91247483D01*
X142006202Y-91382328D01*
X142006206Y-91382335D01*
X142092452Y-91497544D01*
X142092455Y-91497547D01*
X142207664Y-91583793D01*
X142207671Y-91583797D01*
X142342517Y-91634091D01*
X142342516Y-91634091D01*
X142349444Y-91634835D01*
X142402127Y-91640500D01*
X144197872Y-91640499D01*
X144257483Y-91634091D01*
X144392331Y-91583796D01*
X144507546Y-91497546D01*
X144593796Y-91382331D01*
X144644091Y-91247483D01*
X144650500Y-91187873D01*
X144650499Y-89392128D01*
X144644091Y-89332517D01*
X144636254Y-89311506D01*
X144593797Y-89197671D01*
X144593793Y-89197664D01*
X144507547Y-89082455D01*
X144507544Y-89082452D01*
X144392335Y-88996206D01*
X144392328Y-88996202D01*
X144260917Y-88947189D01*
X144204983Y-88905318D01*
X144180566Y-88839853D01*
X144195418Y-88771580D01*
X144216563Y-88743332D01*
X144338495Y-88621401D01*
X144474035Y-88427830D01*
X144573903Y-88213663D01*
X144635063Y-87985408D01*
X144655659Y-87750000D01*
X144635063Y-87514592D01*
X144573903Y-87286337D01*
X144474035Y-87072171D01*
X144380508Y-86938599D01*
X144338494Y-86878597D01*
X144171402Y-86711506D01*
X144171396Y-86711501D01*
X143985842Y-86581575D01*
X143942217Y-86526998D01*
X143935023Y-86457500D01*
X143966546Y-86395145D01*
X143985842Y-86378425D01*
X144085715Y-86308493D01*
X144171401Y-86248495D01*
X144338495Y-86081401D01*
X144474035Y-85887830D01*
X144573903Y-85673663D01*
X144635063Y-85445408D01*
X144655659Y-85210000D01*
X144635063Y-84974592D01*
X144573903Y-84746337D01*
X144474035Y-84532171D01*
X144380508Y-84398599D01*
X144338494Y-84338597D01*
X144171402Y-84171506D01*
X144171396Y-84171501D01*
X143985842Y-84041575D01*
X143942217Y-83986998D01*
X143935023Y-83917500D01*
X143966546Y-83855145D01*
X143985842Y-83838425D01*
X144085715Y-83768493D01*
X144171401Y-83708495D01*
X144338495Y-83541401D01*
X144474035Y-83347830D01*
X144573903Y-83133663D01*
X144635063Y-82905408D01*
X144655659Y-82670000D01*
X144635063Y-82434592D01*
X144573903Y-82206337D01*
X144474035Y-81992171D01*
X144380508Y-81858599D01*
X144338494Y-81798597D01*
X144171402Y-81631506D01*
X144171396Y-81631501D01*
X143985842Y-81501575D01*
X143942217Y-81446998D01*
X143935023Y-81377500D01*
X143966546Y-81315145D01*
X143985842Y-81298425D01*
X144090716Y-81224991D01*
X144171401Y-81168495D01*
X144338495Y-81001401D01*
X144474035Y-80807830D01*
X144573903Y-80593663D01*
X144635063Y-80365408D01*
X144655659Y-80130000D01*
X144635063Y-79894592D01*
X144573903Y-79666337D01*
X144474035Y-79452171D01*
X144466096Y-79440832D01*
X144338494Y-79258597D01*
X144171402Y-79091506D01*
X144171396Y-79091501D01*
X143985842Y-78961575D01*
X143942217Y-78906998D01*
X143935023Y-78837500D01*
X143966546Y-78775145D01*
X143985842Y-78758425D01*
X144008831Y-78742328D01*
X144171401Y-78628495D01*
X144338495Y-78461401D01*
X144474035Y-78267830D01*
X144573903Y-78053663D01*
X144635063Y-77825408D01*
X144655659Y-77590000D01*
X144635063Y-77354592D01*
X144573903Y-77126337D01*
X144474035Y-76912171D01*
X144471776Y-76908944D01*
X144338494Y-76718597D01*
X144171402Y-76551506D01*
X144171396Y-76551501D01*
X143985842Y-76421575D01*
X143942217Y-76366998D01*
X143935023Y-76297500D01*
X143966546Y-76235145D01*
X143985842Y-76218425D01*
X144071999Y-76158097D01*
X144171401Y-76088495D01*
X144338495Y-75921401D01*
X144474035Y-75727830D01*
X144573903Y-75513663D01*
X144635063Y-75285408D01*
X144655659Y-75050000D01*
X144635063Y-74814592D01*
X144573903Y-74586337D01*
X144474035Y-74372171D01*
X144434600Y-74315851D01*
X144338494Y-74178597D01*
X144171402Y-74011506D01*
X144171396Y-74011501D01*
X143985842Y-73881575D01*
X143942217Y-73826998D01*
X143935023Y-73757500D01*
X143966546Y-73695145D01*
X143985842Y-73678425D01*
X144085715Y-73608493D01*
X144171401Y-73548495D01*
X144338495Y-73381401D01*
X144474035Y-73187830D01*
X144573903Y-72973663D01*
X144635063Y-72745408D01*
X144655659Y-72510000D01*
X144635063Y-72274592D01*
X144573903Y-72046337D01*
X144474035Y-71832171D01*
X144471359Y-71828348D01*
X144338494Y-71638597D01*
X144171402Y-71471506D01*
X144171395Y-71471501D01*
X143977834Y-71335967D01*
X143977830Y-71335965D01*
X143955124Y-71325377D01*
X143763663Y-71236097D01*
X143763659Y-71236096D01*
X143763655Y-71236094D01*
X143535413Y-71174938D01*
X143535403Y-71174936D01*
X143300001Y-71154341D01*
X143299999Y-71154341D01*
X143064596Y-71174936D01*
X143064586Y-71174938D01*
X142836344Y-71236094D01*
X142836335Y-71236098D01*
X142622171Y-71335964D01*
X142622169Y-71335965D01*
X142428597Y-71471505D01*
X142261505Y-71638597D01*
X142125965Y-71832169D01*
X142125964Y-71832171D01*
X142026098Y-72046335D01*
X142026094Y-72046344D01*
X141964938Y-72274586D01*
X141964936Y-72274596D01*
X141944341Y-72509999D01*
X139569206Y-72509999D01*
X139575789Y-72499522D01*
X139635368Y-72329255D01*
X139636022Y-72323454D01*
X139655565Y-72150003D01*
X139655565Y-72149996D01*
X139635369Y-71970750D01*
X139635368Y-71970745D01*
X139630383Y-71956498D01*
X139575789Y-71800478D01*
X139575188Y-71799522D01*
X139511773Y-71698597D01*
X139479816Y-71647738D01*
X139352262Y-71520184D01*
X139348341Y-71517720D01*
X139199523Y-71424211D01*
X139029254Y-71364631D01*
X139029249Y-71364630D01*
X138850004Y-71344435D01*
X138849996Y-71344435D01*
X138670750Y-71364630D01*
X138670737Y-71364633D01*
X138500479Y-71424209D01*
X138494892Y-71427720D01*
X138427654Y-71446714D01*
X138360820Y-71426342D01*
X138352748Y-71420490D01*
X138352263Y-71420185D01*
X138352262Y-71420184D01*
X138263850Y-71364631D01*
X138199523Y-71324211D01*
X138029254Y-71264631D01*
X138029249Y-71264630D01*
X137850004Y-71244435D01*
X137849996Y-71244435D01*
X137670746Y-71264631D01*
X137665268Y-71266548D01*
X137595489Y-71270107D01*
X137534863Y-71235377D01*
X137507275Y-71190460D01*
X137494636Y-71154341D01*
X137475789Y-71100478D01*
X137379816Y-70947738D01*
X137252262Y-70820184D01*
X137238830Y-70811744D01*
X137099523Y-70724211D01*
X136929254Y-70664631D01*
X136929249Y-70664630D01*
X136750004Y-70644435D01*
X136750001Y-70644435D01*
X136750000Y-70644435D01*
X136690523Y-70651135D01*
X136621702Y-70639080D01*
X136571648Y-70593887D01*
X136492412Y-70467785D01*
X136479816Y-70447738D01*
X136352262Y-70320184D01*
X136338830Y-70311744D01*
X136199523Y-70224211D01*
X136029254Y-70164631D01*
X136029249Y-70164630D01*
X135850004Y-70144435D01*
X135849996Y-70144435D01*
X135670750Y-70164630D01*
X135670745Y-70164631D01*
X135500476Y-70224211D01*
X135347737Y-70320184D01*
X135220184Y-70447737D01*
X135124211Y-70600476D01*
X135064631Y-70770745D01*
X135064630Y-70770750D01*
X135044435Y-70949996D01*
X128280003Y-70949996D01*
X128327179Y-70868284D01*
X128385674Y-70688256D01*
X128405460Y-70500000D01*
X128385674Y-70311744D01*
X128327179Y-70131716D01*
X128232533Y-69967784D01*
X128105871Y-69827112D01*
X128105870Y-69827111D01*
X127952734Y-69715851D01*
X127952729Y-69715848D01*
X127779807Y-69638857D01*
X127779802Y-69638855D01*
X127634001Y-69607865D01*
X127594646Y-69599500D01*
X127405354Y-69599500D01*
X127399290Y-69600789D01*
X127220197Y-69638855D01*
X127220192Y-69638857D01*
X127047270Y-69715848D01*
X127047265Y-69715851D01*
X126894129Y-69827111D01*
X126767466Y-69967785D01*
X126672821Y-70131715D01*
X126672818Y-70131722D01*
X126614327Y-70311740D01*
X126614326Y-70311744D01*
X126594540Y-70500000D01*
X125751133Y-70500000D01*
X125732533Y-70467784D01*
X125605871Y-70327112D01*
X125605870Y-70327111D01*
X125452734Y-70215851D01*
X125452729Y-70215848D01*
X125279807Y-70138857D01*
X125279802Y-70138855D01*
X125134001Y-70107865D01*
X125094646Y-70099500D01*
X124905354Y-70099500D01*
X124872897Y-70106398D01*
X124720197Y-70138855D01*
X124720192Y-70138857D01*
X124679936Y-70156781D01*
X124610686Y-70166066D01*
X124547409Y-70136438D01*
X124510196Y-70077303D01*
X124505500Y-70043502D01*
X124505500Y-68874996D01*
X135569435Y-68874996D01*
X135569435Y-68875003D01*
X135589630Y-69054249D01*
X135589631Y-69054254D01*
X135649211Y-69224523D01*
X135726724Y-69347883D01*
X135745184Y-69377262D01*
X135872738Y-69504816D01*
X135932438Y-69542328D01*
X136023426Y-69599500D01*
X136025478Y-69600789D01*
X136187680Y-69657546D01*
X136195745Y-69660368D01*
X136195750Y-69660369D01*
X136374996Y-69680565D01*
X136375000Y-69680565D01*
X136375004Y-69680565D01*
X136554249Y-69660369D01*
X136554252Y-69660368D01*
X136554255Y-69660368D01*
X136724522Y-69600789D01*
X136877262Y-69504816D01*
X137004816Y-69377262D01*
X137100789Y-69224522D01*
X137160368Y-69054255D01*
X137166481Y-69000000D01*
X137180565Y-68875003D01*
X137180565Y-68874996D01*
X137160369Y-68695750D01*
X137160368Y-68695745D01*
X137100788Y-68525476D01*
X137004815Y-68372737D01*
X136877262Y-68245184D01*
X136724523Y-68149211D01*
X136554254Y-68089631D01*
X136554249Y-68089630D01*
X136375004Y-68069435D01*
X136374996Y-68069435D01*
X136195750Y-68089630D01*
X136195745Y-68089631D01*
X136025476Y-68149211D01*
X135872737Y-68245184D01*
X135745184Y-68372737D01*
X135649211Y-68525476D01*
X135589631Y-68695745D01*
X135589630Y-68695750D01*
X135569435Y-68874996D01*
X124505500Y-68874996D01*
X124505500Y-66900000D01*
X128994540Y-66900000D01*
X129014326Y-67088256D01*
X129014327Y-67088259D01*
X129072818Y-67268277D01*
X129072821Y-67268284D01*
X129167467Y-67432216D01*
X129275443Y-67552135D01*
X129294129Y-67572888D01*
X129447265Y-67684148D01*
X129447270Y-67684151D01*
X129620192Y-67761142D01*
X129620197Y-67761144D01*
X129805354Y-67800500D01*
X129805355Y-67800500D01*
X129994644Y-67800500D01*
X129994646Y-67800500D01*
X130179803Y-67761144D01*
X130352730Y-67684151D01*
X130505871Y-67572888D01*
X130632533Y-67432216D01*
X130727179Y-67268284D01*
X130785674Y-67088256D01*
X130805460Y-66900000D01*
X130785674Y-66711744D01*
X130727179Y-66531716D01*
X130708868Y-66500000D01*
X133344540Y-66500000D01*
X133364326Y-66688256D01*
X133364327Y-66688259D01*
X133422818Y-66868277D01*
X133422821Y-66868284D01*
X133517467Y-67032216D01*
X133644129Y-67172888D01*
X133797265Y-67284148D01*
X133797270Y-67284151D01*
X133970192Y-67361142D01*
X133970197Y-67361144D01*
X134155354Y-67400500D01*
X134155355Y-67400500D01*
X134344644Y-67400500D01*
X134344646Y-67400500D01*
X134529803Y-67361144D01*
X134702730Y-67284151D01*
X134855871Y-67172888D01*
X134982533Y-67032216D01*
X135077179Y-66868284D01*
X135135674Y-66688256D01*
X135155460Y-66500000D01*
X135135674Y-66311744D01*
X135077179Y-66131716D01*
X134982533Y-65967784D01*
X134855871Y-65827112D01*
X134848012Y-65821402D01*
X134702734Y-65715851D01*
X134702729Y-65715848D01*
X134529807Y-65638857D01*
X134529802Y-65638855D01*
X134384001Y-65607865D01*
X134344646Y-65599500D01*
X134155354Y-65599500D01*
X134122897Y-65606398D01*
X133970197Y-65638855D01*
X133970192Y-65638857D01*
X133797270Y-65715848D01*
X133797265Y-65715851D01*
X133644129Y-65827111D01*
X133517466Y-65967785D01*
X133422821Y-66131715D01*
X133422818Y-66131722D01*
X133372995Y-66285063D01*
X133364326Y-66311744D01*
X133344540Y-66500000D01*
X130708868Y-66500000D01*
X130632533Y-66367784D01*
X130505871Y-66227112D01*
X130501457Y-66223905D01*
X130352734Y-66115851D01*
X130352729Y-66115848D01*
X130179807Y-66038857D01*
X130179802Y-66038855D01*
X130034001Y-66007865D01*
X129994646Y-65999500D01*
X129805354Y-65999500D01*
X129772897Y-66006398D01*
X129620197Y-66038855D01*
X129620192Y-66038857D01*
X129447270Y-66115848D01*
X129447265Y-66115851D01*
X129294129Y-66227111D01*
X129167466Y-66367785D01*
X129072821Y-66531715D01*
X129072818Y-66531722D01*
X129014327Y-66711740D01*
X129014326Y-66711744D01*
X128994540Y-66900000D01*
X124505500Y-66900000D01*
X124505500Y-64499996D01*
X130444435Y-64499996D01*
X130444435Y-64500003D01*
X130464630Y-64679249D01*
X130464631Y-64679254D01*
X130524211Y-64849523D01*
X130620184Y-65002262D01*
X130747738Y-65129816D01*
X130900478Y-65225789D01*
X130918717Y-65232171D01*
X131070745Y-65285368D01*
X131070750Y-65285369D01*
X131249996Y-65305565D01*
X131250000Y-65305565D01*
X131250004Y-65305565D01*
X131429249Y-65285369D01*
X131429252Y-65285368D01*
X131429255Y-65285368D01*
X131599522Y-65225789D01*
X131752262Y-65129816D01*
X131879816Y-65002262D01*
X131975789Y-64849522D01*
X132035368Y-64679255D01*
X132042326Y-64617500D01*
X132055565Y-64500003D01*
X132055565Y-64499997D01*
X132038657Y-64349938D01*
X132050711Y-64281116D01*
X132098060Y-64229736D01*
X132165671Y-64212112D01*
X132175761Y-64212834D01*
X132199998Y-64215565D01*
X132200000Y-64215565D01*
X132200004Y-64215565D01*
X132379249Y-64195369D01*
X132379252Y-64195368D01*
X132379255Y-64195368D01*
X132549522Y-64135789D01*
X132702262Y-64039816D01*
X132829816Y-63912262D01*
X132925789Y-63759522D01*
X132974573Y-63620102D01*
X133015295Y-63563328D01*
X133080247Y-63537580D01*
X133132570Y-63544017D01*
X133250737Y-63585366D01*
X133250743Y-63585367D01*
X133250745Y-63585368D01*
X133250746Y-63585368D01*
X133250750Y-63585369D01*
X133429996Y-63605565D01*
X133430000Y-63605565D01*
X133430004Y-63605565D01*
X133609249Y-63585369D01*
X133609252Y-63585368D01*
X133609255Y-63585368D01*
X133779522Y-63525789D01*
X133932262Y-63429816D01*
X134059816Y-63302262D01*
X134155789Y-63149522D01*
X134215368Y-62979255D01*
X134218664Y-62950003D01*
X134235565Y-62800003D01*
X134235565Y-62799996D01*
X134215369Y-62620750D01*
X134215368Y-62620745D01*
X134172627Y-62498599D01*
X134155789Y-62450478D01*
X134154067Y-62447738D01*
X134081033Y-62331505D01*
X134059816Y-62297738D01*
X133932262Y-62170184D01*
X133923426Y-62164632D01*
X133779523Y-62074211D01*
X133609254Y-62014631D01*
X133609249Y-62014630D01*
X133430004Y-61994435D01*
X133429996Y-61994435D01*
X133250750Y-62014630D01*
X133250745Y-62014631D01*
X133080476Y-62074211D01*
X132927737Y-62170184D01*
X132800184Y-62297737D01*
X132704210Y-62450478D01*
X132655427Y-62589895D01*
X132614705Y-62646671D01*
X132549753Y-62672419D01*
X132497431Y-62665983D01*
X132379257Y-62624632D01*
X132379249Y-62624630D01*
X132200004Y-62604435D01*
X132199996Y-62604435D01*
X132020750Y-62624630D01*
X132020745Y-62624631D01*
X131850476Y-62684211D01*
X131697737Y-62780184D01*
X131570184Y-62907737D01*
X131474211Y-63060476D01*
X131414631Y-63230745D01*
X131414630Y-63230750D01*
X131394435Y-63409996D01*
X131394435Y-63410003D01*
X131411342Y-63560062D01*
X131399287Y-63628884D01*
X131351938Y-63680263D01*
X131284328Y-63697887D01*
X131274241Y-63697166D01*
X131260822Y-63695654D01*
X131250000Y-63694435D01*
X131249999Y-63694435D01*
X131249998Y-63694435D01*
X131249996Y-63694435D01*
X131070750Y-63714630D01*
X131070745Y-63714631D01*
X130900476Y-63774211D01*
X130747737Y-63870184D01*
X130620184Y-63997737D01*
X130524211Y-64150476D01*
X130464631Y-64320745D01*
X130464630Y-64320750D01*
X130444435Y-64499996D01*
X124505500Y-64499996D01*
X124505500Y-57709833D01*
X124525185Y-57642794D01*
X124530300Y-57635433D01*
X124818246Y-57251506D01*
X125154400Y-56803300D01*
X125879600Y-55836366D01*
X125890318Y-55821523D01*
X125895433Y-55814162D01*
X125905567Y-55799002D01*
X125927946Y-55749999D01*
X141894341Y-55749999D01*
X141894341Y-55750000D01*
X141914936Y-55985403D01*
X141914938Y-55985413D01*
X141976094Y-56213655D01*
X141976096Y-56213659D01*
X141976097Y-56213663D01*
X142067157Y-56408942D01*
X142075965Y-56427830D01*
X142075967Y-56427834D01*
X142211501Y-56621395D01*
X142211506Y-56621402D01*
X142378597Y-56788493D01*
X142378603Y-56788498D01*
X142564158Y-56918425D01*
X142607783Y-56973002D01*
X142614977Y-57042500D01*
X142583454Y-57104855D01*
X142564158Y-57121575D01*
X142378597Y-57251505D01*
X142211505Y-57418597D01*
X142075965Y-57612169D01*
X142075964Y-57612171D01*
X141976098Y-57826335D01*
X141976094Y-57826344D01*
X141914938Y-58054586D01*
X141914936Y-58054596D01*
X141894341Y-58289999D01*
X141894341Y-58290000D01*
X141914936Y-58525403D01*
X141914938Y-58525413D01*
X141976094Y-58753655D01*
X141976096Y-58753659D01*
X141976097Y-58753663D01*
X142012396Y-58831506D01*
X142075965Y-58967830D01*
X142075967Y-58967834D01*
X142211501Y-59161395D01*
X142211506Y-59161402D01*
X142378597Y-59328493D01*
X142378603Y-59328498D01*
X142564158Y-59458425D01*
X142607783Y-59513002D01*
X142614977Y-59582500D01*
X142583454Y-59644855D01*
X142564158Y-59661575D01*
X142378597Y-59791505D01*
X142211505Y-59958597D01*
X142075965Y-60152169D01*
X142075964Y-60152171D01*
X141976098Y-60366335D01*
X141976094Y-60366344D01*
X141914938Y-60594586D01*
X141914936Y-60594596D01*
X141894341Y-60829999D01*
X141894341Y-60830000D01*
X141914936Y-61065403D01*
X141914938Y-61065413D01*
X141976094Y-61293655D01*
X141976096Y-61293659D01*
X141976097Y-61293663D01*
X142012396Y-61371506D01*
X142075965Y-61507830D01*
X142075967Y-61507834D01*
X142211501Y-61701395D01*
X142211506Y-61701402D01*
X142378597Y-61868493D01*
X142378603Y-61868498D01*
X142564158Y-61998425D01*
X142607783Y-62053002D01*
X142614977Y-62122500D01*
X142583454Y-62184855D01*
X142564158Y-62201575D01*
X142378597Y-62331505D01*
X142211505Y-62498597D01*
X142075965Y-62692169D01*
X142075964Y-62692171D01*
X141976098Y-62906335D01*
X141976094Y-62906344D01*
X141914938Y-63134586D01*
X141914936Y-63134596D01*
X141894341Y-63369999D01*
X141894341Y-63370000D01*
X141914936Y-63605403D01*
X141914938Y-63605413D01*
X141976094Y-63833655D01*
X141976096Y-63833659D01*
X141976097Y-63833663D01*
X142030568Y-63950476D01*
X142075965Y-64047830D01*
X142075967Y-64047834D01*
X142211501Y-64241395D01*
X142211506Y-64241402D01*
X142378597Y-64408493D01*
X142378603Y-64408498D01*
X142564158Y-64538425D01*
X142607783Y-64593002D01*
X142614977Y-64662500D01*
X142583454Y-64724855D01*
X142564158Y-64741575D01*
X142378597Y-64871505D01*
X142211505Y-65038597D01*
X142075965Y-65232169D01*
X142075964Y-65232171D01*
X141976098Y-65446335D01*
X141976094Y-65446344D01*
X141914938Y-65674586D01*
X141914936Y-65674596D01*
X141894341Y-65909999D01*
X141894341Y-65910000D01*
X141914936Y-66145403D01*
X141914938Y-66145413D01*
X141976094Y-66373655D01*
X141976096Y-66373659D01*
X141976097Y-66373663D01*
X142035009Y-66500000D01*
X142075965Y-66587830D01*
X142075967Y-66587834D01*
X142184281Y-66742521D01*
X142211501Y-66781396D01*
X142211506Y-66781402D01*
X142333430Y-66903326D01*
X142366915Y-66964649D01*
X142361931Y-67034341D01*
X142320059Y-67090274D01*
X142289083Y-67107189D01*
X142157669Y-67156203D01*
X142157664Y-67156206D01*
X142042455Y-67242452D01*
X142042452Y-67242455D01*
X141956206Y-67357664D01*
X141956202Y-67357671D01*
X141905908Y-67492517D01*
X141899501Y-67552116D01*
X141899501Y-67552123D01*
X141899500Y-67552135D01*
X141899500Y-69347870D01*
X141899501Y-69347876D01*
X141905908Y-69407483D01*
X141956202Y-69542328D01*
X141956206Y-69542335D01*
X142042452Y-69657544D01*
X142042455Y-69657547D01*
X142157664Y-69743793D01*
X142157671Y-69743797D01*
X142292517Y-69794091D01*
X142292516Y-69794091D01*
X142299444Y-69794835D01*
X142352127Y-69800500D01*
X144147872Y-69800499D01*
X144207483Y-69794091D01*
X144342331Y-69743796D01*
X144457546Y-69657546D01*
X144543796Y-69542331D01*
X144594091Y-69407483D01*
X144600500Y-69347873D01*
X144600499Y-67552128D01*
X144594091Y-67492517D01*
X144571600Y-67432216D01*
X144543797Y-67357671D01*
X144543793Y-67357664D01*
X144457547Y-67242455D01*
X144457544Y-67242452D01*
X144342335Y-67156206D01*
X144342328Y-67156202D01*
X144210917Y-67107189D01*
X144154983Y-67065318D01*
X144130566Y-66999853D01*
X144145418Y-66931580D01*
X144166563Y-66903332D01*
X144288495Y-66781401D01*
X144424035Y-66587830D01*
X144523903Y-66373663D01*
X144585063Y-66145408D01*
X144605659Y-65910000D01*
X144585063Y-65674592D01*
X144523903Y-65446337D01*
X144424035Y-65232171D01*
X144419567Y-65225789D01*
X144288494Y-65038597D01*
X144121402Y-64871506D01*
X144121396Y-64871501D01*
X143935842Y-64741575D01*
X143892217Y-64686998D01*
X143885023Y-64617500D01*
X143916546Y-64555145D01*
X143935842Y-64538425D01*
X144020345Y-64479255D01*
X144121401Y-64408495D01*
X144288495Y-64241401D01*
X144424035Y-64047830D01*
X144523903Y-63833663D01*
X144585063Y-63605408D01*
X144605659Y-63370000D01*
X144585063Y-63134592D01*
X144535601Y-62949996D01*
X144523905Y-62906344D01*
X144523904Y-62906343D01*
X144523903Y-62906337D01*
X144424035Y-62692171D01*
X144418462Y-62684211D01*
X144288494Y-62498597D01*
X144121402Y-62331506D01*
X144121396Y-62331501D01*
X143935842Y-62201575D01*
X143892217Y-62146998D01*
X143885023Y-62077500D01*
X143916546Y-62015145D01*
X143935842Y-61998425D01*
X144010234Y-61946335D01*
X144121401Y-61868495D01*
X144288495Y-61701401D01*
X144424035Y-61507830D01*
X144523903Y-61293663D01*
X144585063Y-61065408D01*
X144605659Y-60830000D01*
X144585063Y-60594592D01*
X144523903Y-60366337D01*
X144424035Y-60152171D01*
X144391292Y-60105408D01*
X144288494Y-59958597D01*
X144121402Y-59791506D01*
X144121396Y-59791501D01*
X143935842Y-59661575D01*
X143892217Y-59606998D01*
X143885023Y-59537500D01*
X143916546Y-59475145D01*
X143935842Y-59458425D01*
X144010234Y-59406335D01*
X144121401Y-59328495D01*
X144288495Y-59161401D01*
X144424035Y-58967830D01*
X144523903Y-58753663D01*
X144585063Y-58525408D01*
X144605659Y-58290000D01*
X144585063Y-58054592D01*
X144523903Y-57826337D01*
X144424035Y-57612171D01*
X144391292Y-57565408D01*
X144288494Y-57418597D01*
X144121402Y-57251506D01*
X144121396Y-57251501D01*
X143935842Y-57121575D01*
X143892217Y-57066998D01*
X143885023Y-56997500D01*
X143916546Y-56935145D01*
X143935842Y-56918425D01*
X144100257Y-56803300D01*
X144121401Y-56788495D01*
X144288495Y-56621401D01*
X144424035Y-56427830D01*
X144523903Y-56213663D01*
X144585063Y-55985408D01*
X144605659Y-55750000D01*
X144585063Y-55514592D01*
X144523903Y-55286337D01*
X144424035Y-55072171D01*
X144402783Y-55041819D01*
X144288494Y-54878597D01*
X144121402Y-54711506D01*
X144121395Y-54711501D01*
X143927834Y-54575967D01*
X143927830Y-54575965D01*
X143927828Y-54575964D01*
X143713663Y-54476097D01*
X143713659Y-54476096D01*
X143713655Y-54476094D01*
X143485413Y-54414938D01*
X143485403Y-54414936D01*
X143250001Y-54394341D01*
X143249999Y-54394341D01*
X143014596Y-54414936D01*
X143014586Y-54414938D01*
X142786344Y-54476094D01*
X142786335Y-54476098D01*
X142572171Y-54575964D01*
X142572169Y-54575965D01*
X142378597Y-54711505D01*
X142211505Y-54878597D01*
X142075965Y-55072169D01*
X142075964Y-55072171D01*
X141976098Y-55286335D01*
X141976094Y-55286344D01*
X141914938Y-55514586D01*
X141914936Y-55514596D01*
X141894341Y-55749999D01*
X125927946Y-55749999D01*
X125965338Y-55668125D01*
X125985023Y-55601086D01*
X125985024Y-55601082D01*
X126005500Y-55458666D01*
X126005500Y-51505541D01*
X125995784Y-51406910D01*
X125995782Y-51406902D01*
X125995782Y-51406897D01*
X125986478Y-51360131D01*
X125986372Y-51359597D01*
X125986369Y-51359589D01*
X125985786Y-51356651D01*
X125985778Y-51356616D01*
X125977734Y-51316178D01*
X125976754Y-51313051D01*
X125957381Y-51215652D01*
X125955000Y-51191470D01*
X125955000Y-50808527D01*
X125957383Y-50784336D01*
X125976747Y-50686985D01*
X125977329Y-50685871D01*
X125985781Y-50643379D01*
X125985784Y-50643364D01*
X125986191Y-50641316D01*
X125986204Y-50641255D01*
X125987191Y-50636295D01*
X125995788Y-50593073D01*
X126005500Y-50494459D01*
X126005500Y-50199983D01*
X131649500Y-50199983D01*
X131649500Y-51800001D01*
X131649501Y-51800018D01*
X131660000Y-51902796D01*
X131660001Y-51902799D01*
X131715185Y-52069331D01*
X131715186Y-52069334D01*
X131807288Y-52218656D01*
X131931344Y-52342712D01*
X132080666Y-52434814D01*
X132247203Y-52489999D01*
X132349991Y-52500500D01*
X133650008Y-52500499D01*
X133752797Y-52489999D01*
X133919334Y-52434814D01*
X134068656Y-52342712D01*
X134192712Y-52218656D01*
X134284814Y-52069334D01*
X134339999Y-51902797D01*
X134350500Y-51800009D01*
X134350499Y-50199992D01*
X134339999Y-50097203D01*
X134284814Y-49930666D01*
X134192712Y-49781344D01*
X134068656Y-49657288D01*
X133919334Y-49565186D01*
X133752797Y-49510001D01*
X133752795Y-49510000D01*
X133650010Y-49499500D01*
X132349998Y-49499500D01*
X132349981Y-49499501D01*
X132247203Y-49510000D01*
X132247200Y-49510001D01*
X132080668Y-49565185D01*
X132080663Y-49565187D01*
X131931342Y-49657289D01*
X131807289Y-49781342D01*
X131715187Y-49930663D01*
X131715185Y-49930668D01*
X131701828Y-49970977D01*
X131660001Y-50097203D01*
X131660001Y-50097204D01*
X131660000Y-50097204D01*
X131649500Y-50199983D01*
X126005500Y-50199983D01*
X126005500Y-50051362D01*
X126002603Y-49997322D01*
X125999769Y-49970964D01*
X125991114Y-49917552D01*
X125940832Y-49782743D01*
X125907347Y-49721420D01*
X125821123Y-49606239D01*
X125821118Y-49606234D01*
X125821113Y-49606228D01*
X124893776Y-48678892D01*
X124893770Y-48678886D01*
X124893761Y-48678877D01*
X124893737Y-48678855D01*
X124853519Y-48642728D01*
X124853507Y-48642718D01*
X124832856Y-48626076D01*
X124788974Y-48594433D01*
X124658100Y-48534663D01*
X124591055Y-48514976D01*
X124543582Y-48508150D01*
X124448638Y-48494500D01*
X103551362Y-48494500D01*
X103551360Y-48494500D01*
X103497311Y-48497397D01*
X103497310Y-48497397D01*
X103470977Y-48500229D01*
X103470950Y-48500232D01*
X103417554Y-48508885D01*
X103417552Y-48508885D01*
X103282747Y-48559166D01*
X103221422Y-48592651D01*
X103106240Y-48678876D01*
X103106228Y-48678886D01*
X102178892Y-49606223D01*
X102178855Y-49606262D01*
X102142728Y-49646480D01*
X102142718Y-49646492D01*
X102126076Y-49667143D01*
X102094433Y-49711025D01*
X102034663Y-49841899D01*
X102014976Y-49908944D01*
X102003010Y-49992171D01*
X101994501Y-50051359D01*
X101994500Y-50051363D01*
X101994500Y-52239254D01*
X101974815Y-52306293D01*
X101958181Y-52326935D01*
X98178892Y-56106223D01*
X98178855Y-56106262D01*
X98142728Y-56146480D01*
X98142718Y-56146492D01*
X98126076Y-56167143D01*
X98094433Y-56211025D01*
X98034663Y-56341899D01*
X98014976Y-56408944D01*
X97994500Y-56551363D01*
X96103449Y-56551363D01*
X96038496Y-56458600D01*
X95988838Y-56408942D01*
X95916567Y-56336671D01*
X95883084Y-56275351D01*
X95888068Y-56205659D01*
X95929939Y-56149725D01*
X95960915Y-56132810D01*
X96092331Y-56083796D01*
X96207546Y-55997546D01*
X96293796Y-55882331D01*
X96344091Y-55747483D01*
X96350500Y-55687873D01*
X96350499Y-53892128D01*
X96344091Y-53832517D01*
X96293796Y-53697669D01*
X96293795Y-53697668D01*
X96293793Y-53697664D01*
X96207547Y-53582455D01*
X96207544Y-53582452D01*
X96092335Y-53496206D01*
X96092328Y-53496202D01*
X95957482Y-53445908D01*
X95957483Y-53445908D01*
X95897883Y-53439501D01*
X95897881Y-53439500D01*
X95897873Y-53439500D01*
X95897864Y-53439500D01*
X94102129Y-53439500D01*
X94102123Y-53439501D01*
X94042516Y-53445908D01*
X93907671Y-53496202D01*
X93907664Y-53496206D01*
X93792455Y-53582452D01*
X93792452Y-53582455D01*
X93706206Y-53697664D01*
X93706202Y-53697671D01*
X93655908Y-53832517D01*
X93649501Y-53892116D01*
X93649501Y-53892123D01*
X93649500Y-53892135D01*
X93649500Y-55687870D01*
X93649501Y-55687876D01*
X93655908Y-55747483D01*
X93706202Y-55882328D01*
X93706206Y-55882335D01*
X93792452Y-55997544D01*
X93792455Y-55997547D01*
X93907664Y-56083793D01*
X93907671Y-56083797D01*
X94039081Y-56132810D01*
X94095015Y-56174681D01*
X94119432Y-56240145D01*
X94104580Y-56308418D01*
X94083430Y-56336673D01*
X93961503Y-56458600D01*
X93825965Y-56652169D01*
X93825964Y-56652171D01*
X93726098Y-56866335D01*
X93726094Y-56866344D01*
X93664938Y-57094586D01*
X93664936Y-57094596D01*
X93644341Y-57329999D01*
X92500500Y-57329999D01*
X92500500Y-48006961D01*
X92501280Y-47993077D01*
X92511459Y-47902731D01*
X92517635Y-47875670D01*
X92545353Y-47796456D01*
X92557396Y-47771450D01*
X92602046Y-47700389D01*
X92619351Y-47678690D01*
X92678690Y-47619351D01*
X92700389Y-47602046D01*
X92771450Y-47557396D01*
X92796456Y-47545353D01*
X92875670Y-47517635D01*
X92902733Y-47511459D01*
X92965419Y-47504396D01*
X92993079Y-47501280D01*
X93006962Y-47500500D01*
X133107317Y-47500500D01*
X133107318Y-47500500D01*
X133289612Y-47474290D01*
X133319764Y-47469955D01*
X133319765Y-47469954D01*
X133319769Y-47469954D01*
X133525710Y-47409484D01*
X133525713Y-47409482D01*
X133525715Y-47409482D01*
X133720938Y-47320327D01*
X133720944Y-47320323D01*
X133720950Y-47320321D01*
X133901513Y-47204281D01*
X134063724Y-47063724D01*
X134204281Y-46901513D01*
X134320321Y-46720950D01*
X134320323Y-46720944D01*
X134320327Y-46720938D01*
X134409482Y-46525715D01*
X134409482Y-46525713D01*
X134409484Y-46525710D01*
X134469954Y-46319769D01*
X134500500Y-46107318D01*
X134500500Y-46000000D01*
X134500500Y-45934108D01*
X134500500Y-45589999D01*
X141894341Y-45589999D01*
X141894341Y-45590000D01*
X141914936Y-45825403D01*
X141914938Y-45825413D01*
X141976094Y-46053655D01*
X141976096Y-46053659D01*
X141976097Y-46053663D01*
X142052134Y-46216725D01*
X142075965Y-46267830D01*
X142075967Y-46267834D01*
X142211501Y-46461395D01*
X142211506Y-46461402D01*
X142378597Y-46628493D01*
X142378603Y-46628498D01*
X142564158Y-46758425D01*
X142607783Y-46813002D01*
X142614977Y-46882500D01*
X142583454Y-46944855D01*
X142564158Y-46961575D01*
X142378597Y-47091505D01*
X142211505Y-47258597D01*
X142075965Y-47452169D01*
X142075964Y-47452171D01*
X141976098Y-47666335D01*
X141976094Y-47666344D01*
X141914938Y-47894586D01*
X141914936Y-47894596D01*
X141894341Y-48129999D01*
X141894341Y-48130000D01*
X141914936Y-48365403D01*
X141914938Y-48365413D01*
X141976094Y-48593655D01*
X141976096Y-48593659D01*
X141976097Y-48593663D01*
X142015840Y-48678892D01*
X142075965Y-48807830D01*
X142075967Y-48807834D01*
X142211501Y-49001395D01*
X142211506Y-49001402D01*
X142378597Y-49168493D01*
X142378603Y-49168498D01*
X142564158Y-49298425D01*
X142607783Y-49353002D01*
X142614977Y-49422500D01*
X142583454Y-49484855D01*
X142564158Y-49501575D01*
X142378597Y-49631505D01*
X142211505Y-49798597D01*
X142075965Y-49992169D01*
X142075964Y-49992171D01*
X141976098Y-50206335D01*
X141976094Y-50206344D01*
X141914938Y-50434586D01*
X141914936Y-50434596D01*
X141894341Y-50669999D01*
X141894341Y-50670000D01*
X141914936Y-50905403D01*
X141914938Y-50905413D01*
X141976094Y-51133655D01*
X141976096Y-51133659D01*
X141976097Y-51133663D01*
X142003053Y-51191470D01*
X142075965Y-51347830D01*
X142075967Y-51347834D01*
X142087672Y-51364550D01*
X142211505Y-51541401D01*
X142378599Y-51708495D01*
X142475384Y-51776265D01*
X142572165Y-51844032D01*
X142572167Y-51844033D01*
X142572170Y-51844035D01*
X142786337Y-51943903D01*
X143014592Y-52005063D01*
X143202918Y-52021539D01*
X143249999Y-52025659D01*
X143250000Y-52025659D01*
X143250001Y-52025659D01*
X143289234Y-52022226D01*
X143485408Y-52005063D01*
X143713663Y-51943903D01*
X143927830Y-51844035D01*
X144121401Y-51708495D01*
X144288495Y-51541401D01*
X144424035Y-51347830D01*
X144523903Y-51133663D01*
X144585063Y-50905408D01*
X144605659Y-50670000D01*
X144602696Y-50636139D01*
X144590301Y-50494459D01*
X144585063Y-50434592D01*
X144523903Y-50206337D01*
X144424035Y-49992171D01*
X144380971Y-49930668D01*
X144288494Y-49798597D01*
X144121402Y-49631506D01*
X144121396Y-49631501D01*
X143935842Y-49501575D01*
X143892217Y-49446998D01*
X143885023Y-49377500D01*
X143916546Y-49315145D01*
X143935842Y-49298425D01*
X143958026Y-49282891D01*
X144121401Y-49168495D01*
X144288495Y-49001401D01*
X144424035Y-48807830D01*
X144523903Y-48593663D01*
X144585063Y-48365408D01*
X144605659Y-48130000D01*
X144585063Y-47894592D01*
X144533029Y-47700395D01*
X144523905Y-47666344D01*
X144523904Y-47666343D01*
X144523903Y-47666337D01*
X144424035Y-47452171D01*
X144394146Y-47409484D01*
X144288494Y-47258597D01*
X144121402Y-47091506D01*
X144121396Y-47091501D01*
X143935842Y-46961575D01*
X143892217Y-46906998D01*
X143885023Y-46837500D01*
X143916546Y-46775145D01*
X143935842Y-46758425D01*
X143989379Y-46720938D01*
X144121401Y-46628495D01*
X144288495Y-46461401D01*
X144424035Y-46267830D01*
X144523903Y-46053663D01*
X144585063Y-45825408D01*
X144605659Y-45590000D01*
X144585063Y-45354592D01*
X144523903Y-45126337D01*
X144424035Y-44912171D01*
X144288495Y-44718599D01*
X144288494Y-44718597D01*
X144121402Y-44551506D01*
X144121395Y-44551501D01*
X143927834Y-44415967D01*
X143927830Y-44415965D01*
X143927828Y-44415964D01*
X143713663Y-44316097D01*
X143713659Y-44316096D01*
X143713655Y-44316094D01*
X143485413Y-44254938D01*
X143485403Y-44254936D01*
X143250001Y-44234341D01*
X143249999Y-44234341D01*
X143014596Y-44254936D01*
X143014586Y-44254938D01*
X142786344Y-44316094D01*
X142786335Y-44316098D01*
X142572171Y-44415964D01*
X142572169Y-44415965D01*
X142378597Y-44551505D01*
X142211505Y-44718597D01*
X142075965Y-44912169D01*
X142075964Y-44912171D01*
X141976098Y-45126335D01*
X141976094Y-45126344D01*
X141914938Y-45354586D01*
X141914936Y-45354596D01*
X141894341Y-45589999D01*
X134500500Y-45589999D01*
X134500500Y-44006961D01*
X134501280Y-43993077D01*
X134501280Y-43993076D01*
X134511459Y-43902731D01*
X134517635Y-43875670D01*
X134545353Y-43796456D01*
X134557396Y-43771450D01*
X134602046Y-43700389D01*
X134619351Y-43678690D01*
X134678690Y-43619351D01*
X134700389Y-43602046D01*
X134771450Y-43557396D01*
X134796456Y-43545353D01*
X134875670Y-43517635D01*
X134902733Y-43511459D01*
X134965419Y-43504396D01*
X134993079Y-43501280D01*
X135006962Y-43500500D01*
X135065892Y-43500500D01*
X144934108Y-43500500D01*
X144993038Y-43500500D01*
X145006922Y-43501280D01*
G37*
%TD.AperFunction*%
%TD*%
%TA.AperFunction,Conductor*%
%TO.N,VBB*%
G36*
X125000000Y-76000000D02*
G01*
X131250000Y-76000000D01*
X138448638Y-76000000D01*
X138515677Y-76019685D01*
X138536319Y-76036319D01*
X139463681Y-76963681D01*
X139497166Y-77025004D01*
X139500000Y-77051362D01*
X139500000Y-77948638D01*
X139480315Y-78015677D01*
X139463681Y-78036319D01*
X138536319Y-78963681D01*
X138474996Y-78997166D01*
X138448638Y-79000000D01*
X124000000Y-79000000D01*
X124000000Y-75000000D01*
X125000000Y-76000000D01*
G37*
%TD.AperFunction*%
%TD*%
%TA.AperFunction,Conductor*%
%TO.N,VBB*%
G36*
X120500000Y-79000000D02*
G01*
X115051362Y-79000000D01*
X114984323Y-78980315D01*
X114963681Y-78963681D01*
X114036319Y-78036319D01*
X114002834Y-77974996D01*
X114000000Y-77948638D01*
X114000000Y-77051362D01*
X114019685Y-76984323D01*
X114036319Y-76963681D01*
X114963681Y-76036319D01*
X115025004Y-76002834D01*
X115051362Y-76000000D01*
X119500000Y-76000000D01*
X120500000Y-75000000D01*
X120500000Y-79000000D01*
G37*
%TD.AperFunction*%
%TD*%
M02*
